<svg width="18" height="18" viewBox="0 0 18 18" fill="none" xmlns="http://www.w3.org/2000/svg">
<path fill-rule="evenodd" clip-rule="evenodd" d="M17.5465 8.70662C17.5465 4.00852 13.738 0.199951 9.03987 0.199951C4.34177 0.199951 0.533203 4.00852 0.533203 8.70662C0.533203 13.4047 4.34177 17.2133 9.03987 17.2133C10.0653 17.2133 11.4739 16.8392 13.2657 16.0911L16.1632 17.2213L16.2492 17.2493C16.6237 17.3474 17.0206 17.1514 17.1647 16.7819C17.2224 16.6342 17.2332 16.4723 17.1957 16.3182L16.3878 12.9955L16.5201 12.679C17.2044 11.0122 17.5465 9.68804 17.5465 8.70662ZM15.4364 12.2643L15.1697 12.8957L15.8932 15.8708L13.251 14.8402L12.5294 15.1394C11.0076 15.7535 9.83217 16.0533 9.03987 16.0533C4.98242 16.0533 1.6932 12.7641 1.6932 8.70662C1.6932 4.64917 4.98242 1.35995 9.03987 1.35995C13.0973 1.35995 16.3865 4.64917 16.3865 8.70662C16.3865 9.51515 16.0749 10.7136 15.4364 12.2643Z" fill="#262626"/>
</svg>
