<svg width="127" height="10" viewBox="0 0 127 10" fill="none" xmlns="http://www.w3.org/2000/svg">
<path d="M3.27148 0.421875V9H2.1875V1.77539L0.00195312 2.57227V1.59375L3.10156 0.421875H3.27148ZM12.0488 8.10938V9H6.46484V8.2207L9.25977 5.10938C9.60352 4.72656 9.86914 4.40234 10.0566 4.13672C10.248 3.86719 10.3809 3.62695 10.4551 3.41602C10.5332 3.20117 10.5723 2.98242 10.5723 2.75977C10.5723 2.47852 10.5137 2.22461 10.3965 1.99805C10.2832 1.76758 10.1152 1.58398 9.89258 1.44727C9.66992 1.31055 9.40039 1.24219 9.08398 1.24219C8.70508 1.24219 8.38867 1.31641 8.13477 1.46484C7.88477 1.60938 7.69727 1.8125 7.57227 2.07422C7.44727 2.33594 7.38477 2.63672 7.38477 2.97656H6.30078C6.30078 2.49609 6.40625 2.05664 6.61719 1.6582C6.82812 1.25977 7.14062 0.943359 7.55469 0.708984C7.96875 0.470703 8.47852 0.351562 9.08398 0.351562C9.62305 0.351562 10.084 0.447266 10.4668 0.638672C10.8496 0.826172 11.1426 1.0918 11.3457 1.43555C11.5527 1.77539 11.6562 2.17383 11.6562 2.63086C11.6562 2.88086 11.6133 3.13477 11.5273 3.39258C11.4453 3.64648 11.3301 3.90039 11.1816 4.1543C11.0371 4.4082 10.8672 4.6582 10.6719 4.9043C10.4805 5.15039 10.2754 5.39258 10.0566 5.63086L7.77148 8.10938H12.0488ZM21.6172 6.28711H22.7422C22.6836 6.82617 22.5293 7.30859 22.2793 7.73438C22.0293 8.16016 21.6758 8.49805 21.2188 8.74805C20.7617 8.99414 20.1914 9.11719 19.5078 9.11719C19.0078 9.11719 18.5527 9.02344 18.1426 8.83594C17.7363 8.64844 17.3867 8.38281 17.0938 8.03906C16.8008 7.69141 16.5742 7.27539 16.4141 6.79102C16.2578 6.30273 16.1797 5.75977 16.1797 5.16211V4.3125C16.1797 3.71484 16.2578 3.17383 16.4141 2.68945C16.5742 2.20117 16.8027 1.7832 17.0996 1.43555C17.4004 1.08789 17.7617 0.820312 18.1836 0.632812C18.6055 0.445312 19.0801 0.351562 19.6074 0.351562C20.252 0.351562 20.7969 0.472656 21.2422 0.714844C21.6875 0.957031 22.0332 1.29297 22.2793 1.72266C22.5293 2.14844 22.6836 2.64258 22.7422 3.20508H21.6172C21.5625 2.80664 21.4609 2.46484 21.3125 2.17969C21.1641 1.89063 20.9531 1.66797 20.6797 1.51172C20.4062 1.35547 20.0488 1.27734 19.6074 1.27734C19.2285 1.27734 18.8945 1.34961 18.6055 1.49414C18.3203 1.63867 18.0801 1.84375 17.8848 2.10938C17.6934 2.375 17.5488 2.69336 17.4512 3.06445C17.3535 3.43555 17.3047 3.84766 17.3047 4.30078V5.16211C17.3047 5.58008 17.3477 5.97266 17.4336 6.33984C17.5234 6.70703 17.6582 7.0293 17.8379 7.30664C18.0176 7.58398 18.2461 7.80273 18.5234 7.96289C18.8008 8.11914 19.1289 8.19727 19.5078 8.19727C19.9883 8.19727 20.3711 8.12109 20.6562 7.96875C20.9414 7.81641 21.1562 7.59766 21.3008 7.3125C21.4492 7.02734 21.5547 6.68555 21.6172 6.28711ZM23.832 5.90039V5.76562C23.832 5.30859 23.8984 4.88477 24.0312 4.49414C24.1641 4.09961 24.3555 3.75781 24.6055 3.46875C24.8555 3.17578 25.1582 2.94922 25.5137 2.78906C25.8691 2.625 26.2676 2.54297 26.709 2.54297C27.1543 2.54297 27.5547 2.625 27.9102 2.78906C28.2695 2.94922 28.5742 3.17578 28.8242 3.46875C29.0781 3.75781 29.2715 4.09961 29.4043 4.49414C29.5371 4.88477 29.6035 5.30859 29.6035 5.76562V5.90039C29.6035 6.35742 29.5371 6.78125 29.4043 7.17188C29.2715 7.5625 29.0781 7.9043 28.8242 8.19727C28.5742 8.48633 28.2715 8.71289 27.916 8.87695C27.5645 9.03711 27.166 9.11719 26.7207 9.11719C26.2754 9.11719 25.875 9.03711 25.5195 8.87695C25.1641 8.71289 24.8594 8.48633 24.6055 8.19727C24.3555 7.9043 24.1641 7.5625 24.0312 7.17188C23.8984 6.78125 23.832 6.35742 23.832 5.90039ZM24.916 5.76562V5.90039C24.916 6.2168 24.9531 6.51562 25.0273 6.79688C25.1016 7.07422 25.2129 7.32031 25.3613 7.53516C25.5137 7.75 25.7031 7.91992 25.9297 8.04492C26.1562 8.16602 26.4199 8.22656 26.7207 8.22656C27.0176 8.22656 27.2773 8.16602 27.5 8.04492C27.7266 7.91992 27.9141 7.75 28.0625 7.53516C28.2109 7.32031 28.3223 7.07422 28.3965 6.79688C28.4746 6.51562 28.5137 6.2168 28.5137 5.90039V5.76562C28.5137 5.45312 28.4746 5.1582 28.3965 4.88086C28.3223 4.59961 28.209 4.35156 28.0566 4.13672C27.9082 3.91797 27.7207 3.74609 27.4941 3.62109C27.2715 3.49609 27.0098 3.43359 26.709 3.43359C26.4121 3.43359 26.1504 3.49609 25.9238 3.62109C25.7012 3.74609 25.5137 3.91797 25.3613 4.13672C25.2129 4.35156 25.1016 4.59961 25.0273 4.88086C24.9531 5.1582 24.916 5.45312 24.916 5.76562ZM32.041 3.91992V9H30.9512V2.66016H31.9824L32.041 3.91992ZM31.8184 5.58984L31.3145 5.57227C31.3184 5.13867 31.375 4.73828 31.4844 4.37109C31.5938 4 31.7559 3.67773 31.9707 3.4043C32.1855 3.13086 32.4531 2.91992 32.7734 2.77148C33.0938 2.61914 33.4648 2.54297 33.8867 2.54297C34.1836 2.54297 34.457 2.58594 34.707 2.67188C34.957 2.75391 35.1738 2.88477 35.3574 3.06445C35.541 3.24414 35.6836 3.47461 35.7852 3.75586C35.8867 4.03711 35.9375 4.37695 35.9375 4.77539V9H34.8535V4.82812C34.8535 4.49609 34.7969 4.23047 34.6836 4.03125C34.5742 3.83203 34.418 3.6875 34.2148 3.59766C34.0117 3.50391 33.7734 3.45703 33.5 3.45703C33.1797 3.45703 32.9121 3.51367 32.6973 3.62695C32.4824 3.74023 32.3105 3.89648 32.1816 4.0957C32.0527 4.29492 31.959 4.52344 31.9004 4.78125C31.8457 5.03516 31.8184 5.30469 31.8184 5.58984ZM35.9258 4.99219L35.1992 5.21484C35.2031 4.86719 35.2598 4.5332 35.3691 4.21289C35.4824 3.89258 35.6445 3.60742 35.8555 3.35742C36.0703 3.10742 36.334 2.91016 36.6465 2.76562C36.959 2.61719 37.3164 2.54297 37.7188 2.54297C38.0586 2.54297 38.3594 2.58789 38.6211 2.67773C38.8867 2.76758 39.1094 2.90625 39.2891 3.09375C39.4727 3.27734 39.6113 3.51367 39.7051 3.80273C39.7988 4.0918 39.8457 4.43555 39.8457 4.83398V9H38.7559V4.82227C38.7559 4.4668 38.6992 4.19141 38.5859 3.99609C38.4766 3.79688 38.3203 3.6582 38.1172 3.58008C37.918 3.49805 37.6797 3.45703 37.4023 3.45703C37.1641 3.45703 36.9531 3.49805 36.7695 3.58008C36.5859 3.66211 36.4316 3.77539 36.3066 3.91992C36.1816 4.06055 36.0859 4.22266 36.0195 4.40625C35.957 4.58984 35.9258 4.78516 35.9258 4.99219ZM42.5645 3.91992V9H41.4746V2.66016H42.5059L42.5645 3.91992ZM42.3418 5.58984L41.8379 5.57227C41.8418 5.13867 41.8984 4.73828 42.0078 4.37109C42.1172 4 42.2793 3.67773 42.4941 3.4043C42.709 3.13086 42.9766 2.91992 43.2969 2.77148C43.6172 2.61914 43.9883 2.54297 44.4102 2.54297C44.707 2.54297 44.9805 2.58594 45.2305 2.67188C45.4805 2.75391 45.6973 2.88477 45.8809 3.06445C46.0645 3.24414 46.207 3.47461 46.3086 3.75586C46.4102 4.03711 46.4609 4.37695 46.4609 4.77539V9H45.377V4.82812C45.377 4.49609 45.3203 4.23047 45.207 4.03125C45.0977 3.83203 44.9414 3.6875 44.7383 3.59766C44.5352 3.50391 44.2969 3.45703 44.0234 3.45703C43.7031 3.45703 43.4355 3.51367 43.2207 3.62695C43.0059 3.74023 42.834 3.89648 42.7051 4.0957C42.5762 4.29492 42.4824 4.52344 42.4238 4.78125C42.3691 5.03516 42.3418 5.30469 42.3418 5.58984ZM46.4492 4.99219L45.7227 5.21484C45.7266 4.86719 45.7832 4.5332 45.8926 4.21289C46.0059 3.89258 46.168 3.60742 46.3789 3.35742C46.5938 3.10742 46.8574 2.91016 47.1699 2.76562C47.4824 2.61719 47.8398 2.54297 48.2422 2.54297C48.582 2.54297 48.8828 2.58789 49.1445 2.67773C49.4102 2.76758 49.6328 2.90625 49.8125 3.09375C49.9961 3.27734 50.1348 3.51367 50.2285 3.80273C50.3223 4.0918 50.3691 4.43555 50.3691 4.83398V9H49.2793V4.82227C49.2793 4.4668 49.2227 4.19141 49.1094 3.99609C49 3.79688 48.8438 3.6582 48.6406 3.58008C48.4414 3.49805 48.2031 3.45703 47.9258 3.45703C47.6875 3.45703 47.4766 3.49805 47.293 3.58008C47.1094 3.66211 46.9551 3.77539 46.8301 3.91992C46.7051 4.06055 46.6094 4.22266 46.543 4.40625C46.4805 4.58984 46.4492 4.78516 46.4492 4.99219ZM54.6406 9.11719C54.1992 9.11719 53.7988 9.04297 53.4395 8.89453C53.084 8.74219 52.7773 8.5293 52.5195 8.25586C52.2656 7.98242 52.0703 7.6582 51.9336 7.2832C51.7969 6.9082 51.7285 6.49805 51.7285 6.05273V5.80664C51.7285 5.29102 51.8047 4.83203 51.957 4.42969C52.1094 4.02344 52.3164 3.67969 52.5781 3.39844C52.8398 3.11719 53.1367 2.9043 53.4688 2.75977C53.8008 2.61523 54.1445 2.54297 54.5 2.54297C54.9531 2.54297 55.3438 2.62109 55.6719 2.77734C56.0039 2.93359 56.2754 3.15234 56.4863 3.43359C56.6973 3.71094 56.8535 4.03906 56.9551 4.41797C57.0566 4.79297 57.1074 5.20312 57.1074 5.64844V6.13477H52.373V5.25H56.0234V5.16797C56.0078 4.88672 55.9492 4.61328 55.8477 4.34766C55.75 4.08203 55.5938 3.86328 55.3789 3.69141C55.1641 3.51953 54.8711 3.43359 54.5 3.43359C54.2539 3.43359 54.0273 3.48633 53.8203 3.5918C53.6133 3.69336 53.4355 3.8457 53.2871 4.04883C53.1387 4.25195 53.0234 4.5 52.9414 4.79297C52.8594 5.08594 52.8184 5.42383 52.8184 5.80664V6.05273C52.8184 6.35352 52.8594 6.63672 52.9414 6.90234C53.0273 7.16406 53.1504 7.39453 53.3105 7.59375C53.4746 7.79297 53.6719 7.94922 53.9023 8.0625C54.1367 8.17578 54.4023 8.23242 54.6992 8.23242C55.082 8.23242 55.4062 8.1543 55.6719 7.99805C55.9375 7.8418 56.1699 7.63281 56.3691 7.37109L57.0254 7.89258C56.8887 8.09961 56.7148 8.29688 56.5039 8.48438C56.293 8.67188 56.0332 8.82422 55.7246 8.94141C55.4199 9.05859 55.0586 9.11719 54.6406 9.11719ZM59.457 4.01367V9H58.373V2.66016H59.3984L59.457 4.01367ZM59.1992 5.58984L58.748 5.57227C58.752 5.13867 58.8164 4.73828 58.9414 4.37109C59.0664 4 59.2422 3.67773 59.4688 3.4043C59.6953 3.13086 59.9648 2.91992 60.2773 2.77148C60.5938 2.61914 60.9434 2.54297 61.3262 2.54297C61.6387 2.54297 61.9199 2.58594 62.1699 2.67188C62.4199 2.75391 62.6328 2.88672 62.8086 3.07031C62.9883 3.25391 63.125 3.49219 63.2188 3.78516C63.3125 4.07422 63.3594 4.42773 63.3594 4.8457V9H62.2695V4.83398C62.2695 4.50195 62.2207 4.23633 62.123 4.03711C62.0254 3.83398 61.8828 3.6875 61.6953 3.59766C61.5078 3.50391 61.2773 3.45703 61.0039 3.45703C60.7344 3.45703 60.4883 3.51367 60.2656 3.62695C60.0469 3.74023 59.8574 3.89648 59.6973 4.0957C59.541 4.29492 59.418 4.52344 59.3281 4.78125C59.2422 5.03516 59.1992 5.30469 59.1992 5.58984ZM67.6602 2.66016V3.49219H64.2324V2.66016H67.6602ZM65.3926 1.11914H66.4766V7.42969C66.4766 7.64453 66.5098 7.80664 66.5762 7.91602C66.6426 8.02539 66.7285 8.09766 66.834 8.13281C66.9395 8.16797 67.0527 8.18555 67.1738 8.18555C67.2637 8.18555 67.3574 8.17773 67.4551 8.16211C67.5566 8.14258 67.6328 8.12695 67.6836 8.11523L67.6895 9C67.6035 9.02734 67.4902 9.05273 67.3496 9.07617C67.2129 9.10352 67.0469 9.11719 66.8516 9.11719C66.5859 9.11719 66.3418 9.06445 66.1191 8.95898C65.8965 8.85352 65.7188 8.67773 65.5859 8.43164C65.457 8.18164 65.3926 7.8457 65.3926 7.42383V1.11914ZM72.623 7.31836C72.623 7.16211 72.5879 7.01758 72.5176 6.88477C72.4512 6.74805 72.3125 6.625 72.1016 6.51562C71.8945 6.40234 71.582 6.30469 71.1641 6.22266C70.8125 6.14844 70.4941 6.06055 70.209 5.95898C69.9277 5.85742 69.6875 5.73438 69.4883 5.58984C69.293 5.44531 69.1426 5.27539 69.0371 5.08008C68.9316 4.88477 68.8789 4.65625 68.8789 4.39453C68.8789 4.14453 68.9336 3.9082 69.043 3.68555C69.1562 3.46289 69.3145 3.26562 69.5176 3.09375C69.7246 2.92188 69.9727 2.78711 70.2617 2.68945C70.5508 2.5918 70.873 2.54297 71.2285 2.54297C71.7363 2.54297 72.1699 2.63281 72.5293 2.8125C72.8887 2.99219 73.1641 3.23242 73.3555 3.5332C73.5469 3.83008 73.6426 4.16016 73.6426 4.52344H72.5586C72.5586 4.34766 72.5059 4.17773 72.4004 4.01367C72.2988 3.8457 72.1484 3.70703 71.9492 3.59766C71.7539 3.48828 71.5137 3.43359 71.2285 3.43359C70.9277 3.43359 70.6836 3.48047 70.4961 3.57422C70.3125 3.66406 70.1777 3.7793 70.0918 3.91992C70.0098 4.06055 69.9688 4.20898 69.9688 4.36523C69.9688 4.48242 69.9883 4.58789 70.0273 4.68164C70.0703 4.77148 70.1445 4.85547 70.25 4.93359C70.3555 5.00781 70.5039 5.07812 70.6953 5.14453C70.8867 5.21094 71.1309 5.27734 71.4277 5.34375C71.9473 5.46094 72.375 5.60156 72.7109 5.76562C73.0469 5.92969 73.2969 6.13086 73.4609 6.36914C73.625 6.60742 73.707 6.89648 73.707 7.23633C73.707 7.51367 73.6484 7.76758 73.5312 7.99805C73.418 8.22852 73.252 8.42773 73.0332 8.5957C72.8184 8.75977 72.5605 8.88867 72.2598 8.98242C71.9629 9.07227 71.6289 9.11719 71.2578 9.11719C70.6992 9.11719 70.2266 9.01758 69.8398 8.81836C69.4531 8.61914 69.1602 8.36133 68.9609 8.04492C68.7617 7.72852 68.6621 7.39453 68.6621 7.04297H69.752C69.7676 7.33984 69.8535 7.57617 70.0098 7.75195C70.166 7.92383 70.3574 8.04688 70.584 8.12109C70.8105 8.19141 71.0352 8.22656 71.2578 8.22656C71.5547 8.22656 71.8027 8.1875 72.002 8.10938C72.2051 8.03125 72.3594 7.92383 72.4648 7.78711C72.5703 7.65039 72.623 7.49414 72.623 7.31836ZM86.3457 6.69141C86.3457 7.21094 86.2246 7.65234 85.9824 8.01562C85.7441 8.375 85.4199 8.64844 85.0098 8.83594C84.6035 9.02344 84.1445 9.11719 83.6328 9.11719C83.1211 9.11719 82.6602 9.02344 82.25 8.83594C81.8398 8.64844 81.5156 8.375 81.2773 8.01562C81.0391 7.65234 80.9199 7.21094 80.9199 6.69141C80.9199 6.35156 80.9844 6.04102 81.1133 5.75977C81.2461 5.47461 81.4316 5.22656 81.6699 5.01562C81.9121 4.80469 82.1973 4.64258 82.5254 4.5293C82.8574 4.41211 83.2227 4.35352 83.6211 4.35352C84.1445 4.35352 84.6113 4.45508 85.0215 4.6582C85.4316 4.85742 85.7539 5.13281 85.9883 5.48438C86.2266 5.83594 86.3457 6.23828 86.3457 6.69141ZM85.2559 6.66797C85.2559 6.35156 85.1875 6.07227 85.0508 5.83008C84.9141 5.58398 84.7227 5.39258 84.4766 5.25586C84.2305 5.11914 83.9453 5.05078 83.6211 5.05078C83.2891 5.05078 83.002 5.11914 82.7598 5.25586C82.5215 5.39258 82.3359 5.58398 82.2031 5.83008C82.0703 6.07227 82.0039 6.35156 82.0039 6.66797C82.0039 6.99609 82.0684 7.27734 82.1973 7.51172C82.3301 7.74219 82.5176 7.91992 82.7598 8.04492C83.0059 8.16602 83.2969 8.22656 83.6328 8.22656C83.9688 8.22656 84.2578 8.16602 84.5 8.04492C84.7422 7.91992 84.9277 7.74219 85.0566 7.51172C85.1895 7.27734 85.2559 6.99609 85.2559 6.66797ZM86.1465 2.68945C86.1465 3.10352 86.0371 3.47656 85.8184 3.80859C85.5996 4.14062 85.3008 4.40234 84.9219 4.59375C84.543 4.78516 84.1133 4.88086 83.6328 4.88086C83.1445 4.88086 82.709 4.78516 82.3262 4.59375C81.9473 4.40234 81.6504 4.14062 81.4355 3.80859C81.2207 3.47656 81.1133 3.10352 81.1133 2.68945C81.1133 2.19336 81.2207 1.77148 81.4355 1.42383C81.6543 1.07617 81.9531 0.810547 82.332 0.626953C82.7109 0.443359 83.1426 0.351562 83.627 0.351562C84.1152 0.351562 84.5488 0.443359 84.9277 0.626953C85.3066 0.810547 85.6035 1.07617 85.8184 1.42383C86.0371 1.77148 86.1465 2.19336 86.1465 2.68945ZM85.0625 2.70703C85.0625 2.42188 85.002 2.16992 84.8809 1.95117C84.7598 1.73242 84.5918 1.56055 84.377 1.43555C84.1621 1.30664 83.9121 1.24219 83.627 1.24219C83.3418 1.24219 83.0918 1.30273 82.877 1.42383C82.666 1.54102 82.5 1.70898 82.3789 1.92773C82.2617 2.14648 82.2031 2.40625 82.2031 2.70703C82.2031 3 82.2617 3.25586 82.3789 3.47461C82.5 3.69336 82.668 3.86328 82.8828 3.98438C83.0977 4.10547 83.3477 4.16602 83.6328 4.16602C83.918 4.16602 84.166 4.10547 84.377 3.98438C84.5918 3.86328 84.7598 3.69336 84.8809 3.47461C85.002 3.25586 85.0625 3 85.0625 2.70703ZM95.5215 6.84375C95.5215 6.64453 95.4902 6.46875 95.4277 6.31641C95.3691 6.16016 95.2637 6.01953 95.1113 5.89453C94.9629 5.76953 94.7559 5.65039 94.4902 5.53711C94.2285 5.42383 93.8965 5.30859 93.4941 5.19141C93.0723 5.06641 92.6914 4.92773 92.3516 4.77539C92.0117 4.61914 91.7207 4.44141 91.4785 4.24219C91.2363 4.04297 91.0508 3.81445 90.9219 3.55664C90.793 3.29883 90.7285 3.00391 90.7285 2.67188C90.7285 2.33984 90.7969 2.0332 90.9336 1.75195C91.0703 1.4707 91.2656 1.22656 91.5195 1.01953C91.7773 0.808594 92.084 0.644531 92.4395 0.527344C92.7949 0.410156 93.1914 0.351562 93.6289 0.351562C94.2695 0.351562 94.8125 0.474609 95.2578 0.720703C95.707 0.962891 96.0488 1.28125 96.2832 1.67578C96.5176 2.06641 96.6348 2.48438 96.6348 2.92969H95.5098C95.5098 2.60938 95.4414 2.32617 95.3047 2.08008C95.168 1.83008 94.9609 1.63477 94.6836 1.49414C94.4062 1.34961 94.0547 1.27734 93.6289 1.27734C93.2266 1.27734 92.8945 1.33789 92.6328 1.45898C92.3711 1.58008 92.1758 1.74414 92.0469 1.95117C91.9219 2.1582 91.8594 2.39453 91.8594 2.66016C91.8594 2.83984 91.8965 3.00391 91.9707 3.15234C92.0488 3.29688 92.168 3.43164 92.3281 3.55664C92.4922 3.68164 92.6992 3.79688 92.9492 3.90234C93.2031 4.00781 93.5059 4.10938 93.8574 4.20703C94.3418 4.34375 94.7598 4.49609 95.1113 4.66406C95.4629 4.83203 95.752 5.02148 95.9785 5.23242C96.209 5.43945 96.3789 5.67578 96.4883 5.94141C96.6016 6.20312 96.6582 6.5 96.6582 6.83203C96.6582 7.17969 96.5879 7.49414 96.4473 7.77539C96.3066 8.05664 96.1055 8.29688 95.8438 8.49609C95.582 8.69531 95.2676 8.84961 94.9004 8.95898C94.5371 9.06445 94.1309 9.11719 93.6816 9.11719C93.2871 9.11719 92.8984 9.0625 92.5156 8.95312C92.1367 8.84375 91.791 8.67969 91.4785 8.46094C91.1699 8.24219 90.9219 7.97266 90.7344 7.65234C90.5508 7.32812 90.459 6.95312 90.459 6.52734H91.584C91.584 6.82031 91.6406 7.07227 91.7539 7.2832C91.8672 7.49023 92.0215 7.66211 92.2168 7.79883C92.416 7.93555 92.6406 8.03711 92.8906 8.10352C93.1445 8.16602 93.4082 8.19727 93.6816 8.19727C94.0762 8.19727 94.4102 8.14258 94.6836 8.0332C94.957 7.92383 95.1641 7.76758 95.3047 7.56445C95.4492 7.36133 95.5215 7.12109 95.5215 6.84375ZM99.0195 0V9H97.9355V0H99.0195ZM98.7617 5.58984L98.3105 5.57227C98.3145 5.13867 98.3789 4.73828 98.5039 4.37109C98.6289 4 98.8047 3.67773 99.0312 3.4043C99.2578 3.13086 99.5273 2.91992 99.8398 2.77148C100.156 2.61914 100.506 2.54297 100.889 2.54297C101.201 2.54297 101.482 2.58594 101.732 2.67188C101.982 2.75391 102.195 2.88672 102.371 3.07031C102.551 3.25391 102.688 3.49219 102.781 3.78516C102.875 4.07422 102.922 4.42773 102.922 4.8457V9H101.832V4.83398C101.832 4.50195 101.783 4.23633 101.686 4.03711C101.588 3.83398 101.445 3.6875 101.258 3.59766C101.07 3.50391 100.84 3.45703 100.566 3.45703C100.297 3.45703 100.051 3.51367 99.8281 3.62695C99.6094 3.74023 99.4199 3.89648 99.2598 4.0957C99.1035 4.29492 98.9805 4.52344 98.8906 4.78125C98.8047 5.03516 98.7617 5.30469 98.7617 5.58984ZM108.283 7.91602V4.65234C108.283 4.40234 108.232 4.18555 108.131 4.00195C108.033 3.81445 107.885 3.66992 107.686 3.56836C107.486 3.4668 107.24 3.41602 106.947 3.41602C106.674 3.41602 106.434 3.46289 106.227 3.55664C106.023 3.65039 105.863 3.77344 105.746 3.92578C105.633 4.07812 105.576 4.24219 105.576 4.41797H104.492C104.492 4.19141 104.551 3.9668 104.668 3.74414C104.785 3.52148 104.953 3.32031 105.172 3.14062C105.395 2.95703 105.66 2.8125 105.969 2.70703C106.281 2.59766 106.629 2.54297 107.012 2.54297C107.473 2.54297 107.879 2.62109 108.23 2.77734C108.586 2.93359 108.863 3.16992 109.062 3.48633C109.266 3.79883 109.367 4.19141 109.367 4.66406V7.61719C109.367 7.82812 109.385 8.05273 109.42 8.29102C109.459 8.5293 109.516 8.73438 109.59 8.90625V9H108.459C108.404 8.875 108.361 8.70898 108.33 8.50195C108.299 8.29102 108.283 8.0957 108.283 7.91602ZM108.471 5.15625L108.482 5.91797H107.387C107.078 5.91797 106.803 5.94336 106.561 5.99414C106.318 6.04102 106.115 6.11328 105.951 6.21094C105.787 6.30859 105.662 6.43164 105.576 6.58008C105.49 6.72461 105.447 6.89453 105.447 7.08984C105.447 7.28906 105.492 7.4707 105.582 7.63477C105.672 7.79883 105.807 7.92969 105.986 8.02734C106.17 8.12109 106.395 8.16797 106.66 8.16797C106.992 8.16797 107.285 8.09766 107.539 7.95703C107.793 7.81641 107.994 7.64453 108.143 7.44141C108.295 7.23828 108.377 7.04102 108.389 6.84961L108.852 7.37109C108.824 7.53516 108.75 7.7168 108.629 7.91602C108.508 8.11523 108.346 8.30664 108.143 8.49023C107.943 8.66992 107.705 8.82031 107.428 8.94141C107.154 9.05859 106.846 9.11719 106.502 9.11719C106.072 9.11719 105.695 9.0332 105.371 8.86523C105.051 8.69727 104.801 8.47266 104.621 8.19141C104.445 7.90625 104.357 7.58789 104.357 7.23633C104.357 6.89648 104.424 6.59766 104.557 6.33984C104.689 6.07812 104.881 5.86133 105.131 5.68945C105.381 5.51367 105.682 5.38086 106.033 5.29102C106.385 5.20117 106.777 5.15625 107.211 5.15625H108.471ZM112.156 3.65625V9H111.072V2.66016H112.127L112.156 3.65625ZM114.137 2.625L114.131 3.63281C114.041 3.61328 113.955 3.60156 113.873 3.59766C113.795 3.58984 113.705 3.58594 113.604 3.58594C113.354 3.58594 113.133 3.625 112.941 3.70312C112.75 3.78125 112.588 3.89062 112.455 4.03125C112.322 4.17188 112.217 4.33984 112.139 4.53516C112.064 4.72656 112.016 4.9375 111.992 5.16797L111.688 5.34375C111.688 4.96094 111.725 4.60156 111.799 4.26562C111.877 3.92969 111.996 3.63281 112.156 3.375C112.316 3.11328 112.52 2.91016 112.766 2.76562C113.016 2.61719 113.312 2.54297 113.656 2.54297C113.734 2.54297 113.824 2.55273 113.926 2.57227C114.027 2.58789 114.098 2.60547 114.137 2.625ZM117.652 9.11719C117.211 9.11719 116.811 9.04297 116.451 8.89453C116.096 8.74219 115.789 8.5293 115.531 8.25586C115.277 7.98242 115.082 7.6582 114.945 7.2832C114.809 6.9082 114.74 6.49805 114.74 6.05273V5.80664C114.74 5.29102 114.816 4.83203 114.969 4.42969C115.121 4.02344 115.328 3.67969 115.59 3.39844C115.852 3.11719 116.148 2.9043 116.48 2.75977C116.812 2.61523 117.156 2.54297 117.512 2.54297C117.965 2.54297 118.355 2.62109 118.684 2.77734C119.016 2.93359 119.287 3.15234 119.498 3.43359C119.709 3.71094 119.865 4.03906 119.967 4.41797C120.068 4.79297 120.119 5.20312 120.119 5.64844V6.13477H115.385V5.25H119.035V5.16797C119.02 4.88672 118.961 4.61328 118.859 4.34766C118.762 4.08203 118.605 3.86328 118.391 3.69141C118.176 3.51953 117.883 3.43359 117.512 3.43359C117.266 3.43359 117.039 3.48633 116.832 3.5918C116.625 3.69336 116.447 3.8457 116.299 4.04883C116.15 4.25195 116.035 4.5 115.953 4.79297C115.871 5.08594 115.83 5.42383 115.83 5.80664V6.05273C115.83 6.35352 115.871 6.63672 115.953 6.90234C116.039 7.16406 116.162 7.39453 116.322 7.59375C116.486 7.79297 116.684 7.94922 116.914 8.0625C117.148 8.17578 117.414 8.23242 117.711 8.23242C118.094 8.23242 118.418 8.1543 118.684 7.99805C118.949 7.8418 119.182 7.63281 119.381 7.37109L120.037 7.89258C119.9 8.09961 119.727 8.29688 119.516 8.48438C119.305 8.67188 119.045 8.82422 118.736 8.94141C118.432 9.05859 118.07 9.11719 117.652 9.11719ZM125.076 7.31836C125.076 7.16211 125.041 7.01758 124.971 6.88477C124.904 6.74805 124.766 6.625 124.555 6.51562C124.348 6.40234 124.035 6.30469 123.617 6.22266C123.266 6.14844 122.947 6.06055 122.662 5.95898C122.381 5.85742 122.141 5.73438 121.941 5.58984C121.746 5.44531 121.596 5.27539 121.49 5.08008C121.385 4.88477 121.332 4.65625 121.332 4.39453C121.332 4.14453 121.387 3.9082 121.496 3.68555C121.609 3.46289 121.768 3.26562 121.971 3.09375C122.178 2.92188 122.426 2.78711 122.715 2.68945C123.004 2.5918 123.326 2.54297 123.682 2.54297C124.189 2.54297 124.623 2.63281 124.982 2.8125C125.342 2.99219 125.617 3.23242 125.809 3.5332C126 3.83008 126.096 4.16016 126.096 4.52344H125.012C125.012 4.34766 124.959 4.17773 124.854 4.01367C124.752 3.8457 124.602 3.70703 124.402 3.59766C124.207 3.48828 123.967 3.43359 123.682 3.43359C123.381 3.43359 123.137 3.48047 122.949 3.57422C122.766 3.66406 122.631 3.7793 122.545 3.91992C122.463 4.06055 122.422 4.20898 122.422 4.36523C122.422 4.48242 122.441 4.58789 122.48 4.68164C122.523 4.77148 122.598 4.85547 122.703 4.93359C122.809 5.00781 122.957 5.07812 123.148 5.14453C123.34 5.21094 123.584 5.27734 123.881 5.34375C124.4 5.46094 124.828 5.60156 125.164 5.76562C125.5 5.92969 125.75 6.13086 125.914 6.36914C126.078 6.60742 126.16 6.89648 126.16 7.23633C126.16 7.51367 126.102 7.76758 125.984 7.99805C125.871 8.22852 125.705 8.42773 125.486 8.5957C125.271 8.75977 125.014 8.88867 124.713 8.98242C124.416 9.07227 124.082 9.11719 123.711 9.11719C123.152 9.11719 122.68 9.01758 122.293 8.81836C121.906 8.61914 121.613 8.36133 121.414 8.04492C121.215 7.72852 121.115 7.39453 121.115 7.04297H122.205C122.221 7.33984 122.307 7.57617 122.463 7.75195C122.619 7.92383 122.811 8.04688 123.037 8.12109C123.264 8.19141 123.488 8.22656 123.711 8.22656C124.008 8.22656 124.256 8.1875 124.455 8.10938C124.658 8.03125 124.812 7.92383 124.918 7.78711C125.023 7.65039 125.076 7.49414 125.076 7.31836Z" fill="#65676B"/>
</svg>
