<svg width="18" height="18" viewBox="0 0 18 18" fill="none" xmlns="http://www.w3.org/2000/svg">
<path d="M4.32692 11.25H3.63462C3.26739 11.25 2.91521 11.1041 2.65554 10.8445C2.39588 10.5848 2.25 10.2326 2.25 9.86538V3.63462C2.25 3.26739 2.39588 2.91521 2.65554 2.65554C2.91521 2.39588 3.26739 2.25 3.63462 2.25H9.86538C10.2326 2.25 10.5848 2.39588 10.8445 2.65554C11.1041 2.91521 11.25 3.26739 11.25 3.63462V4.32692" stroke="#4D4D4D" stroke-width="2" stroke-linecap="round" stroke-linejoin="round"/>
<path d="M6.75 8.25C6.75 7.42157 7.42157 6.75 8.25 6.75H14.25C15.0784 6.75 15.75 7.42157 15.75 8.25V14.25C15.75 15.0784 15.0784 15.75 14.25 15.75H8.25C7.42157 15.75 6.75 15.0784 6.75 14.25V8.25Z" stroke="#4D4D4D" stroke-width="2" stroke-linecap="round" stroke-linejoin="round"/>
</svg>
