<svg width="380" height="300" viewBox="0 0 380 300" fill="none" xmlns="http://www.w3.org/2000/svg">
<rect x="1" y="1" width="378" height="298" rx="9" fill="#4AACEA" fill-opacity="0.1" stroke="#4AACEA" stroke-width="2" stroke-linecap="round" stroke-linejoin="round" stroke-dasharray="6 6"/>
<path d="M262.968 53.9816H194.281C194.281 53.9816 181.908 65.3747 181.908 93.0735C181.908 116.894 191.292 149.191 187.769 162.412C185.112 172.387 172.229 174.101 166.054 174.338H231.432C231.432 174.338 252.933 175.637 256.455 162.412C259.978 149.187 250.595 116.894 250.595 93.0689C250.595 65.3565 262.968 53.9816 262.968 53.9816Z" fill="#4AACEA"/>
<path opacity="0.7" d="M262.968 53.9816H194.281C194.281 53.9816 181.908 65.3747 181.908 93.0735C181.908 116.894 191.292 149.191 187.769 162.412C185.112 172.387 172.229 174.101 166.054 174.338H231.432C231.432 174.338 252.933 175.637 256.455 162.412C259.978 149.187 250.595 116.894 250.595 93.0689C250.595 65.3565 262.968 53.9816 262.968 53.9816Z" fill="white"/>
<g opacity="0.8">
<path opacity="0.8" d="M244.282 83.1934H189.35C190.904 71.0074 195.092 63.9164 197.402 60.8174H250.371C247.773 66.2405 245.321 73.6278 244.282 83.1934Z" fill="#4AACEA"/>
<path opacity="0.3" d="M243.822 89.6555H188.812C188.857 88.5481 188.921 87.4726 189.012 86.4336H243.99C243.914 87.4818 243.858 88.5557 243.822 89.6555Z" fill="#4AACEA"/>
<path opacity="0.3" d="M206.061 96.1131H188.793C188.763 95.0832 188.746 94.07 188.743 93.0735V92.8957H206.015V93.0689C206.015 94.076 206.029 95.0923 206.061 96.1131Z" fill="#4AACEA"/>
<path opacity="0.3" d="M244.15 102.571H189.181C189.085 101.486 189.007 100.411 188.948 99.3533H243.94C243.995 100.42 244.065 101.492 244.15 102.571Z" fill="#4AACEA"/>
<path opacity="0.3" d="M244.756 109.019H189.832C189.704 107.941 189.586 106.867 189.477 105.797H244.446C244.523 106.882 244.637 107.957 244.756 109.019Z" fill="#4AACEA"/>
<path opacity="0.3" d="M245.549 115.49H190.671C190.52 114.415 190.379 113.339 190.242 112.273H245.138C245.266 113.346 245.403 114.418 245.549 115.49Z" fill="#4AACEA"/>
<path opacity="0.3" d="M246.456 121.948H191.583C191.425 120.872 191.273 119.8 191.127 118.731H245.996C246.146 119.802 246.301 120.868 246.456 121.948Z" fill="#4AACEA"/>
<path opacity="0.3" d="M247.427 128.41H192.572C192.485 127.822 192.394 127.225 192.303 126.628L192.084 125.188H246.939C247.103 126.264 247.263 127.339 247.427 128.41Z" fill="#4AACEA"/>
<path opacity="0.3" d="M193.528 134.868C193.376 133.804 193.224 132.732 193.072 131.65H247.918C248.078 132.726 248.242 133.797 248.397 134.868H193.528Z" fill="#4AACEA"/>
<path opacity="0.3" d="M194.399 141.325C194.271 140.273 194.13 139.197 193.984 138.108H239.739C239.894 139.193 240.04 140.268 240.195 141.325H194.399Z" fill="#4AACEA"/>
<path opacity="0.3" d="M195.073 147.787C194.985 146.736 194.885 145.662 194.772 144.565H249.696C249.819 145.668 249.933 146.744 250.029 147.787H195.073Z" fill="#4AACEA"/>
<path opacity="0.3" d="M195.387 154.245C195.387 153.206 195.346 152.13 195.287 151.028H224.266C224.339 152.153 224.38 153.229 224.394 154.245H195.387Z" fill="#4AACEA"/>
</g>
<path d="M236.7 170.852C233.214 171.485 229.682 171.002 226.178 170.852C224.497 170.743 222.81 170.787 221.137 170.984C219.497 171.202 217.865 171.631 216.211 171.485C216.758 171.191 217.272 170.842 217.747 170.441C217.768 170.421 217.783 170.395 217.791 170.366C217.799 170.338 217.799 170.308 217.792 170.279C217.784 170.25 217.77 170.224 217.749 170.203C217.728 170.182 217.702 170.167 217.674 170.159C212.529 168.336 207.844 173.267 202.717 172.118C204.171 171.043 206.217 171.02 207.456 169.607C207.479 169.583 207.495 169.552 207.501 169.519C207.507 169.486 207.503 169.452 207.49 169.422C207.477 169.391 207.455 169.364 207.427 169.346C207.4 169.327 207.367 169.316 207.333 169.316C202.749 169.225 198.42 170.997 193.862 171.403C193.644 171.403 193.644 171.763 193.862 171.745C198.26 171.362 202.475 169.68 206.91 169.644C205.583 170.829 203.56 170.87 202.211 172.064C202.19 172.085 202.175 172.111 202.167 172.14C202.16 172.169 202.159 172.199 202.167 172.228C202.174 172.257 202.189 172.283 202.209 172.305C202.23 172.326 202.256 172.342 202.284 172.351C207.452 173.777 212.155 168.846 217.259 170.368C216.727 170.786 216.147 171.14 215.532 171.421C215.503 171.439 215.48 171.464 215.465 171.494C215.451 171.525 215.445 171.558 215.45 171.592C215.454 171.625 215.468 171.657 215.49 171.682C215.512 171.708 215.541 171.726 215.573 171.736C217.255 172.018 218.9 171.658 220.558 171.394C222.416 171.127 224.296 171.054 226.168 171.175C229.709 171.344 233.264 171.822 236.782 171.175C237.015 171.143 236.923 170.811 236.7 170.852Z" fill="#4AACEA"/>
<path d="M143.677 70.7978C143.964 71.1669 144.334 71.5999 144.671 72.0009C145.008 72.4019 145.377 72.8075 145.742 73.1994C146.475 73.9833 147.218 74.7535 148.02 75.4781C149.508 76.8903 151.197 78.0729 153.033 78.9871C153.257 79.0874 153.489 79.1785 153.694 79.2605C153.796 79.3009 153.899 79.3359 154.004 79.3654C154.101 79.4038 154.202 79.4328 154.305 79.4519C154.742 79.5644 155.189 79.6346 155.64 79.6616C156.649 79.7106 157.66 79.6526 158.657 79.4884C159.715 79.3269 160.764 79.1048 161.797 78.8231C162.845 78.5496 163.916 78.2124 164.914 77.8615L165.825 79.6844C163.8 80.9508 161.606 81.9264 159.309 82.5828C158.097 82.9295 156.849 83.13 155.59 83.1798C154.908 83.2071 154.225 83.1628 153.553 83.0476C153.38 83.0203 153.202 82.9792 153.029 82.9382C152.856 82.8972 152.673 82.8516 152.523 82.8015C152.204 82.7058 151.894 82.601 151.611 82.4825C149.292 81.5287 147.157 80.176 145.304 78.4858C144.4 77.7022 143.538 76.8716 142.72 75.9976C142.315 75.5419 141.918 75.118 141.535 74.6623C141.153 74.2066 140.788 73.7509 140.392 73.2268L143.677 70.7978Z" fill="#FFBE9D"/>
<path d="M139.043 69.5081C138.943 72.0601 139.955 76.6629 139.955 76.6629L146.271 75.8973C146.271 75.8973 146.503 69.1617 145.277 67.5348C143.204 64.8141 139.139 67.0927 139.043 69.5081Z" fill="#4AACEA"/>
<path d="M164.066 78.5086L167.024 75.8016L167.402 78.7182C167.402 78.7182 166.176 80.3634 164.786 79.6707L164.066 78.5086Z" fill="#FFBE9D"/>
<path d="M168.51 75.9611L169.763 77.6017L167.403 78.7182L167.024 75.8016L168.51 75.9611Z" fill="#FFBE9D"/>
<path d="M167.762 68.583C168.077 68.583 168.25 68.583 168.473 68.583C168.569 68.5764 168.665 68.5764 168.76 68.583L168.997 68.6149C169.202 68.6389 169.397 68.7159 169.562 68.8382C169.643 68.9331 169.696 69.048 169.717 69.1709L169.822 69.5172L170.246 70.8844L171.094 73.6506L172.784 79.1876C173.901 82.879 175.063 86.5612 176.138 90.2617C178.349 97.6535 180.44 105.073 182.496 112.505C184.551 119.938 186.483 127.403 188.47 134.836C190.457 142.269 192.234 149.788 192.868 157.59C192.891 158.112 192.734 158.625 192.423 159.045C192.113 159.465 191.668 159.765 191.162 159.896C190.657 160.027 190.122 159.98 189.647 159.763C189.172 159.547 188.785 159.174 188.552 158.707C185.317 151.579 183.202 144.164 181.352 136.682C179.502 129.199 177.537 121.779 175.724 114.301C173.91 106.823 172.137 99.3032 170.478 91.7701C169.626 88.0104 168.851 84.2279 168.036 80.4591L166.828 74.799L166.222 71.969L165.921 70.5517L165.844 70.2008C165.802 70.0823 165.793 69.955 165.816 69.8317C165.905 69.6509 166.036 69.4945 166.199 69.3759L166.395 69.2301C166.47 69.1728 166.549 69.121 166.632 69.0752C166.828 68.9612 166.969 68.8655 167.252 68.7288C167.411 68.6473 167.584 68.5978 167.762 68.583Z" fill="#181818"/>
<path d="M192.43 158.766C192.396 158.643 192.315 158.538 192.204 158.474C192.093 158.41 191.962 158.392 191.838 158.424L190.835 158.684L189.833 158.944C189.709 158.976 189.602 159.056 189.537 159.166C189.471 159.276 189.451 159.407 189.482 159.531C190.106 162.402 189.482 164.458 190.147 166.982C190.835 169.639 193.829 171.002 193.829 171.002L193.734 169.867L194.189 170.906C194.189 170.906 196.144 168.263 195.456 165.606C194.809 163.081 193.278 161.578 192.43 158.766Z" fill="#4AACEA"/>
<path opacity="0.3" d="M192.43 158.766C192.396 158.643 192.315 158.538 192.204 158.474C192.093 158.41 191.962 158.392 191.838 158.424L190.835 158.684L189.833 158.944C189.709 158.976 189.602 159.056 189.537 159.166C189.471 159.276 189.451 159.407 189.482 159.531C190.106 162.402 189.482 164.458 190.147 166.982C190.835 169.639 193.829 171.002 193.829 171.002L193.734 169.867L194.189 170.906C194.189 170.906 196.144 168.263 195.456 165.606C194.809 163.081 193.278 161.578 192.43 158.766Z" fill="white"/>
<path d="M193.21 165.356C193.24 165.475 193.233 165.601 193.191 165.717C193.149 165.833 193.074 165.934 192.975 166.007C192.876 166.08 192.757 166.122 192.634 166.128C192.511 166.134 192.389 166.104 192.283 166.04C192.177 165.977 192.093 165.884 192.04 165.773C191.987 165.661 191.968 165.537 191.986 165.415C192.004 165.293 192.057 165.179 192.14 165.087C192.222 164.996 192.33 164.93 192.449 164.9C192.61 164.86 192.781 164.885 192.924 164.971C193.066 165.056 193.169 165.194 193.21 165.356Z" fill="#181818"/>
<path d="M193.771 170.004C193.753 170.009 193.734 170.011 193.716 170.009C193.697 170.007 193.679 170.001 193.663 169.991C193.646 169.982 193.632 169.969 193.621 169.954C193.61 169.939 193.602 169.922 193.598 169.904L192.468 165.551C192.463 165.534 192.462 165.515 192.464 165.496C192.467 165.478 192.473 165.46 192.482 165.444C192.491 165.428 192.504 165.414 192.518 165.403C192.533 165.391 192.55 165.383 192.568 165.378C192.586 165.373 192.605 165.371 192.623 165.373C192.642 165.375 192.66 165.381 192.676 165.391C192.693 165.4 192.707 165.413 192.718 165.428C192.729 165.443 192.737 165.46 192.741 165.479L193.871 169.831C193.876 169.849 193.877 169.867 193.875 169.886C193.873 169.904 193.866 169.922 193.857 169.938C193.848 169.954 193.835 169.968 193.821 169.98C193.806 169.991 193.789 169.999 193.771 170.004Z" fill="#181818"/>
<path d="M190.079 143.116L183.936 144.707C183.765 144.75 183.585 144.723 183.434 144.634C183.283 144.544 183.173 144.398 183.129 144.228C183.085 144.061 183.108 143.883 183.193 143.733C183.279 143.582 183.419 143.471 183.585 143.422L189.76 141.831C189.927 141.787 190.105 141.811 190.256 141.896C190.406 141.981 190.518 142.121 190.566 142.287C190.59 142.373 190.597 142.464 190.585 142.553C190.573 142.642 190.544 142.727 190.498 142.805C190.453 142.882 190.392 142.95 190.32 143.003C190.248 143.057 190.166 143.095 190.079 143.116Z" fill="#4AACEA"/>
<path d="M158.894 59.7101C158.785 59.9835 158.844 60.2706 159.022 60.3481C159.199 60.4255 159.436 60.266 159.546 59.9926C159.655 59.7192 159.6 59.4321 159.418 59.3546C159.236 59.2771 159.008 59.4366 158.894 59.7101Z" fill="#181818"/>
<path d="M159.336 59.3455L160.07 59.4412C160.07 59.4412 159.523 59.8012 159.336 59.3455Z" fill="#181818"/>
<path d="M159.022 60.0746C159.015 60.8083 159.107 61.5395 159.295 62.2484C159.113 62.2872 158.925 62.2857 158.744 62.244C158.563 62.2022 158.394 62.1213 158.247 62.0069L159.022 60.0746Z" fill="#EB996E"/>
<path d="M159.997 58.0421C159.969 58.0366 159.942 58.0241 159.92 58.0057C159.756 57.8558 159.559 57.7458 159.346 57.6841C159.133 57.6225 158.908 57.6109 158.689 57.6502C158.645 57.6615 158.597 57.6549 158.557 57.632C158.517 57.609 158.488 57.5714 158.475 57.5271C158.464 57.4825 158.47 57.4351 158.493 57.3952C158.516 57.3552 158.554 57.3257 158.598 57.313C158.872 57.2587 159.155 57.2692 159.424 57.3435C159.693 57.4179 159.941 57.5541 160.148 57.7413C160.164 57.7574 160.177 57.7766 160.186 57.7977C160.194 57.8188 160.199 57.8415 160.199 57.8644C160.199 57.8873 160.194 57.9099 160.186 57.931C160.177 57.9522 160.164 57.9713 160.148 57.9874C160.129 58.0083 160.106 58.0242 160.079 58.0338C160.053 58.0433 160.025 58.0462 159.997 58.0421Z" fill="#181818"/>
<path d="M149.232 59.5688C149.428 61.7882 148.69 65.4203 147.013 66.6553C147.013 66.6553 148.275 68.9886 152.317 69.5309C156.761 70.1279 154.673 67.6259 154.673 67.6259C152.308 66.7145 152.563 64.9509 153.16 63.3285L149.232 59.5688Z" fill="#FFBE9D"/>
<path d="M161.341 71.413C161.692 73.482 162.125 75.6284 162.576 77.7202C162.818 78.7638 163.059 79.812 163.342 80.8373C163.624 81.8627 163.907 82.8881 164.221 83.8952C164.394 84.392 164.549 84.8978 164.732 85.3809L165.005 86.11L165.069 86.2878V86.3425C165.078 86.3704 165.089 86.3978 165.101 86.4245C165.195 86.587 165.348 86.7063 165.529 86.7572C165.89 86.8855 166.268 86.9578 166.65 86.9713C167.628 86.9983 168.606 86.9189 169.567 86.7344C170.574 86.5521 171.636 86.306 172.625 86.0326L173.459 87.8782C172.956 88.1774 172.439 88.4511 171.909 88.6985C171.386 88.9551 170.849 89.1833 170.301 89.3821C169.153 89.8303 167.949 90.1186 166.723 90.2389C166.003 90.3043 165.277 90.2551 164.572 90.093C163.669 89.8871 162.856 89.3967 162.253 88.694C162.096 88.5053 161.956 88.3041 161.833 88.0924C161.769 87.9876 161.719 87.8782 161.665 87.7734L161.578 87.5683L161.223 86.7708C160.99 86.2376 160.767 85.7044 160.571 85.1667C160.179 84.0912 159.805 83.0111 159.482 81.9265C159.158 80.8419 158.867 79.7482 158.57 78.6544C158.028 76.4578 157.586 74.284 157.258 72.01L161.341 71.413Z" fill="#FFBE9D"/>
<path d="M172.187 86.1602L173.946 84.7657L174.739 87.4726C174.739 87.4726 172.333 89.2135 171.69 87.1673L172.187 86.1602Z" fill="#FFBE9D"/>
<path d="M175.537 85.2442L176.166 87.222L174.74 87.4726L173.951 84.7657L175.537 85.2442Z" fill="#FFBE9D"/>
<path d="M142.67 172.096L146.348 172.369L147.437 163.925L143.759 163.651L142.67 172.096Z" fill="#FFBE9D"/>
<path d="M119.119 161.368L122.305 163.305L127.605 156.688L124.419 154.751L119.119 161.368Z" fill="#FFBE9D"/>
<path d="M124.528 164.28C124.483 164.287 124.437 164.287 124.391 164.28C123.936 164.28 123.393 163.569 123.12 163.15C123.11 163.136 123.104 163.119 123.104 163.102C123.104 163.085 123.11 163.068 123.12 163.054C123.129 163.04 123.142 163.028 123.157 163.021C123.172 163.013 123.19 163.011 123.206 163.013C123.357 163.045 124.674 163.323 124.847 163.761C124.866 163.809 124.871 163.861 124.863 163.912C124.855 163.964 124.834 164.012 124.802 164.052C124.74 164.158 124.643 164.239 124.528 164.28ZM123.389 163.246C123.776 163.792 124.145 164.116 124.396 164.121C124.45 164.121 124.504 164.107 124.552 164.08C124.599 164.053 124.638 164.013 124.665 163.966C124.677 163.947 124.683 163.924 124.683 163.902C124.683 163.879 124.677 163.857 124.665 163.838C124.592 163.606 123.913 163.373 123.389 163.25V163.246Z" fill="#4AACEA"/>
<path d="M124.333 163.141C123.954 163.244 123.558 163.264 123.171 163.2C123.156 163.195 123.143 163.187 123.133 163.176C123.123 163.164 123.115 163.151 123.112 163.136C123.104 163.124 123.101 163.11 123.101 163.095C123.101 163.081 123.104 163.067 123.112 163.054C123.139 163.022 123.864 162.279 124.397 162.302C124.466 162.303 124.533 162.319 124.595 162.35C124.656 162.381 124.71 162.425 124.752 162.48C124.802 162.528 124.833 162.592 124.841 162.661C124.849 162.73 124.834 162.799 124.798 162.858C124.677 163 124.514 163.099 124.333 163.141ZM123.376 163.059C123.832 163.109 124.533 162.977 124.675 162.767C124.675 162.731 124.711 162.68 124.638 162.589C124.611 162.554 124.577 162.526 124.537 162.506C124.498 162.486 124.455 162.476 124.41 162.475C124.013 162.558 123.652 162.762 123.376 163.059Z" fill="#4AACEA"/>
<path d="M123.261 162.594L120.24 159.686C120.19 159.635 120.123 159.604 120.051 159.599C119.98 159.594 119.909 159.615 119.852 159.659L117.273 161.646C117.211 161.701 117.161 161.769 117.127 161.845C117.093 161.92 117.075 162.003 117.075 162.086C117.075 162.169 117.093 162.251 117.127 162.327C117.161 162.403 117.211 162.47 117.273 162.526C118.344 163.524 118.909 163.952 120.235 165.233C121.055 166.021 122.167 167.251 123.298 168.341C124.428 169.43 125.531 168.4 125.157 167.848C123.471 165.378 123.721 164.453 123.571 163.191C123.539 162.962 123.429 162.752 123.261 162.594Z" fill="#181818"/>
<path d="M147.943 172.488C147.554 172.48 147.167 172.436 146.786 172.355C146.768 172.352 146.752 172.343 146.74 172.33C146.728 172.317 146.72 172.3 146.718 172.283C146.715 172.265 146.718 172.246 146.726 172.23C146.735 172.214 146.747 172.2 146.763 172.191C146.932 172.105 148.427 171.353 148.864 171.608C148.906 171.63 148.941 171.662 148.966 171.702C148.991 171.743 149.005 171.789 149.005 171.836C149.015 171.915 149.004 171.995 148.975 172.069C148.945 172.143 148.898 172.209 148.837 172.26C148.573 172.434 148.258 172.515 147.943 172.488ZM147.078 172.232C147.889 172.365 148.495 172.333 148.723 172.132C148.763 172.098 148.794 172.054 148.813 172.005C148.832 171.955 148.839 171.902 148.832 171.85C148.833 171.831 148.829 171.813 148.821 171.797C148.812 171.78 148.798 171.767 148.782 171.758C148.536 171.622 147.693 171.941 147.078 172.232Z" fill="#4AACEA"/>
<path d="M146.803 172.365C146.787 172.369 146.77 172.369 146.753 172.365C146.74 172.356 146.729 172.344 146.723 172.329C146.716 172.314 146.714 172.298 146.717 172.283C146.717 172.219 146.895 170.715 147.719 170.715H147.788C148.029 170.738 148.098 170.856 148.111 170.956C148.18 171.371 147.287 172.169 146.84 172.369L146.803 172.365ZM147.715 170.874C147.186 170.874 146.977 171.749 146.913 172.123C147.369 171.85 147.975 171.212 147.934 170.975C147.934 170.952 147.934 170.893 147.765 170.879L147.715 170.874Z" fill="#4AACEA"/>
<path d="M146.576 171.845H142.443C142.371 171.845 142.302 171.87 142.247 171.916C142.192 171.962 142.155 172.025 142.142 172.096L141.586 175.363C141.575 175.445 141.582 175.528 141.606 175.607C141.629 175.687 141.67 175.76 141.724 175.822C141.779 175.884 141.846 175.934 141.921 175.968C141.996 176.002 142.078 176.02 142.16 176.019C143.601 176.019 144.298 175.91 146.116 175.91C147.233 175.91 149.543 176.024 151.088 176.024C152.633 176.024 152.756 174.497 152.113 174.361C149.247 173.741 148.135 172.884 147.187 172.082C147.018 171.933 146.802 171.849 146.576 171.845Z" fill="#181818"/>
<path opacity="0.2" d="M147.437 163.925L146.831 168.619L143.194 168.008L143.759 163.656L147.437 163.925Z" fill="black"/>
<path opacity="0.2" d="M124.415 154.751L127.605 156.692L125.408 159.427L122.154 157.572L124.415 154.751Z" fill="black"/>
<path d="M140.815 88.8125L155.704 90.8131C161.473 69.9319 159.773 69.3714 159.773 69.3714C159.117 69.0586 158.44 68.7936 157.746 68.5784C157.044 68.3232 156.334 68.0908 155.617 67.8811C154.185 67.456 152.729 67.1167 151.256 66.8649C148.398 66.3734 145.493 66.2098 142.597 66.3773C142.307 66.3975 142.025 66.4831 141.773 66.6275C141.52 66.7719 141.304 66.9714 141.139 67.2112C141.077 67.3002 141.024 67.3948 140.98 67.4938C140.817 67.8406 140.754 68.2254 140.797 68.6057C142.055 79.5795 141.649 83.1889 140.815 88.8125Z" fill="#4AACEA"/>
<path opacity="0.2" d="M157.153 75.7515C156.86 77.9121 157.138 80.1119 157.96 82.1316C158.949 78.0574 159.487 75.2958 159.751 73.3817C158.616 73.3316 157.436 73.7691 157.153 75.7515Z" fill="black"/>
<path d="M159.642 69.2984C162.194 70.7567 163.966 74.2339 164.5 76.2528L159.067 81.2201C159.067 81.2201 156.251 74.6714 156.479 72.6389C156.707 70.6064 158.68 68.747 159.642 69.2984Z" fill="#4AACEA"/>
<path d="M150.04 54.9888C148.896 58.4431 148.34 59.8787 149.342 62.3396C150.855 66.0446 155.335 66.8284 157.486 63.8161C159.423 61.1046 160.968 55.9093 158.211 53.1477C157.631 52.5315 156.901 52.0771 156.093 51.8294C155.284 51.5817 154.425 51.5491 153.6 51.735C152.774 51.921 152.012 52.3189 151.388 52.8895C150.764 53.4601 150.299 54.1837 150.04 54.9888Z" fill="#FFBE9D"/>
<path d="M155.704 58.0512C155.464 58.6849 155.426 59.3774 155.595 60.0336C155.823 60.9451 156.506 61.0225 156.93 60.4347C157.354 59.8468 157.641 58.7849 157.186 58.0193C156.73 57.2537 156.001 57.354 155.704 58.0512Z" fill="#FFBE9D"/>
<path d="M151.279 50.6868C148.818 49.3196 144.388 53.3208 143.276 59.8513C142.479 64.527 152.464 66.7874 158.771 66.7145C158.352 65.6117 155.731 62.294 157.404 59.0994C158.621 56.7798 160.006 57.3175 160.097 54.6196C160.211 51.22 155.709 48.9413 151.279 50.6868Z" fill="#181818"/>
<path d="M156.88 52.1542C159.742 51.8762 162.617 54.688 160.484 57.4907C159.964 57.0729 159.357 56.7748 158.708 56.6173C158.059 56.4598 157.384 56.4468 156.729 56.5792C155.421 56.8709 156.88 52.1542 156.88 52.1542Z" fill="#181818"/>
<path d="M151.776 90.2844C151.776 90.2844 146.011 114.72 143.276 128.761C140.424 143.572 126.747 159.003 126.747 159.003L122.117 156.414C122.117 156.414 130.721 142.332 133.51 128.501C139.179 100.429 135.333 94.7779 140.802 88.817L151.776 90.2844Z" fill="#181818"/>
<path d="M127.221 159.436L121.42 156.205L122.268 154.491L128.775 157.485L127.221 159.436Z" fill="#4AACEA"/>
<path opacity="0.2" d="M148.7 95.5936C144.207 99.4991 144.695 113.367 145.164 119.592C147.051 110.714 149.316 100.834 150.633 95.1151C150.172 94.7596 149.53 94.8918 148.7 95.5936Z" fill="black"/>
<path d="M155.485 90.8222C155.485 90.8222 158.088 119.838 156.666 130.903C155.189 142.414 147.679 167.456 147.679 167.456L142.365 166.773C142.365 166.773 146.676 141.954 147.442 130.561C148.276 118.134 144.571 89.3593 144.571 89.3593L155.485 90.8222Z" fill="#181818"/>
<path d="M148.804 167.762L141.248 166.787L141.362 164.553L149.565 165.346L148.804 167.762Z" fill="#4AACEA"/>
<path d="M140.684 87.9147L139.872 89.1497C139.809 89.2454 139.923 89.3639 140.091 89.3867L155.709 91.483C155.846 91.483 155.964 91.4511 155.978 91.3691L156.256 90.0657C156.256 89.9746 156.165 89.8788 156.019 89.8606L140.939 87.8372C140.893 87.8277 140.846 87.8298 140.801 87.8433C140.757 87.8569 140.716 87.8814 140.684 87.9147Z" fill="#4AACEA"/>
<path opacity="0.5" d="M140.684 87.9147L139.872 89.1497C139.809 89.2454 139.923 89.3639 140.091 89.3867L155.709 91.483C155.846 91.483 155.964 91.4511 155.978 91.3691L156.256 90.0657C156.256 89.9746 156.165 89.8788 156.019 89.8606L140.939 87.8372C140.893 87.8277 140.846 87.8298 140.801 87.8433C140.757 87.8569 140.716 87.8814 140.684 87.9147Z" fill="black"/>
<path d="M142.533 89.8789L142.128 89.8242C142.046 89.8242 141.991 89.7649 142 89.7148L142.374 88.0195C142.374 87.974 142.46 87.9421 142.538 87.9512L142.943 88.0059C143.025 88.0059 143.08 88.0651 143.071 88.1152L142.697 89.8105C142.688 89.8379 142.611 89.8789 142.533 89.8789Z" fill="#181818"/>
<path d="M152.732 91.246L152.327 91.1913C152.249 91.1913 152.19 91.1321 152.199 91.082L152.573 89.3867C152.573 89.3366 152.659 89.3047 152.741 89.3183L153.143 89.3685C153.225 89.3685 153.279 89.4323 153.27 89.4824L152.896 91.1731C152.887 91.246 152.81 91.246 152.732 91.246Z" fill="#181818"/>
<path d="M109.26 238.931C109.392 238.931 109.506 238.982 109.602 239.084L110.556 240.119C110.028 240.773 109.377 241.274 108.603 241.622C107.835 241.97 106.911 242.144 105.831 242.144C104.865 242.144 103.995 241.979 103.221 241.649C102.453 241.319 101.796 240.86 101.25 240.272C100.704 239.684 100.284 238.982 99.99 238.166C99.702 237.35 99.558 236.459 99.558 235.493C99.558 234.515 99.72 233.621 100.044 232.811C100.368 231.995 100.824 231.293 101.412 230.705C102 230.117 102.702 229.661 103.518 229.337C104.34 229.007 105.246 228.842 106.236 228.842C107.202 228.842 108.045 228.998 108.765 229.31C109.491 229.616 110.112 230.024 110.628 230.534L109.818 231.659C109.77 231.731 109.707 231.794 109.629 231.848C109.557 231.902 109.455 231.929 109.323 231.929C109.185 231.929 109.044 231.875 108.9 231.767C108.756 231.659 108.573 231.542 108.351 231.416C108.129 231.29 107.847 231.173 107.505 231.065C107.169 230.957 106.74 230.903 106.218 230.903C105.606 230.903 105.042 231.011 104.526 231.227C104.016 231.437 103.575 231.74 103.203 232.136C102.837 232.532 102.549 233.015 102.339 233.585C102.135 234.149 102.033 234.785 102.033 235.493C102.033 236.225 102.135 236.876 102.339 237.446C102.549 238.016 102.831 238.496 103.185 238.886C103.539 239.276 103.956 239.576 104.436 239.786C104.916 239.99 105.432 240.092 105.984 240.092C106.314 240.092 106.611 240.074 106.875 240.038C107.145 240.002 107.391 239.945 107.613 239.867C107.841 239.789 108.054 239.69 108.252 239.57C108.456 239.444 108.657 239.291 108.855 239.111C108.915 239.057 108.978 239.015 109.044 238.985C109.11 238.949 109.182 238.931 109.26 238.931ZM112.264 242V232.766H113.569C113.797 232.766 113.956 232.808 114.046 232.892C114.136 232.976 114.196 233.12 114.226 233.324L114.361 234.44C114.691 233.87 115.078 233.42 115.522 233.09C115.966 232.76 116.464 232.595 117.016 232.595C117.472 232.595 117.85 232.7 118.15 232.91L117.862 234.575C117.844 234.683 117.805 234.761 117.745 234.809C117.685 234.851 117.604 234.872 117.502 234.872C117.412 234.872 117.289 234.851 117.133 234.809C116.977 234.767 116.77 234.746 116.512 234.746C116.05 234.746 115.654 234.875 115.324 235.133C114.994 235.385 114.715 235.757 114.487 236.249V242H112.264ZM123.428 232.622C124.01 232.622 124.544 232.715 125.03 232.901C125.522 233.087 125.945 233.36 126.299 233.72C126.653 234.074 126.929 234.512 127.127 235.034C127.325 235.55 127.424 236.141 127.424 236.807C127.424 236.975 127.415 237.116 127.397 237.23C127.385 237.338 127.358 237.425 127.316 237.491C127.28 237.551 127.229 237.596 127.163 237.626C127.097 237.65 127.013 237.662 126.911 237.662H121.205C121.271 238.61 121.526 239.306 121.97 239.75C122.414 240.194 123.002 240.416 123.734 240.416C124.094 240.416 124.403 240.374 124.661 240.29C124.925 240.206 125.153 240.113 125.345 240.011C125.543 239.909 125.714 239.816 125.858 239.732C126.008 239.648 126.152 239.606 126.29 239.606C126.38 239.606 126.458 239.624 126.524 239.66C126.59 239.696 126.647 239.747 126.695 239.813L127.343 240.623C127.097 240.911 126.821 241.154 126.515 241.352C126.209 241.544 125.888 241.7 125.552 241.82C125.222 241.934 124.883 242.015 124.535 242.063C124.193 242.111 123.86 242.135 123.536 242.135C122.894 242.135 122.297 242.03 121.745 241.82C121.193 241.604 120.713 241.289 120.305 240.875C119.897 240.455 119.576 239.939 119.342 239.327C119.108 238.709 118.991 237.995 118.991 237.185C118.991 236.555 119.093 235.964 119.297 235.412C119.501 234.854 119.792 234.371 120.17 233.963C120.554 233.549 121.019 233.222 121.565 232.982C122.117 232.742 122.738 232.622 123.428 232.622ZM123.473 234.215C122.825 234.215 122.318 234.398 121.952 234.764C121.586 235.13 121.352 235.649 121.25 236.321H125.426C125.426 236.033 125.387 235.763 125.309 235.511C125.231 235.253 125.111 235.028 124.949 234.836C124.787 234.644 124.583 234.494 124.337 234.386C124.091 234.272 123.803 234.215 123.473 234.215ZM136.463 242H135.464C135.254 242 135.089 241.97 134.969 241.91C134.849 241.844 134.759 241.715 134.699 241.523L134.501 240.866C134.267 241.076 134.036 241.262 133.808 241.424C133.586 241.58 133.355 241.712 133.115 241.82C132.875 241.928 132.62 242.009 132.35 242.063C132.08 242.117 131.78 242.144 131.45 242.144C131.06 242.144 130.7 242.093 130.37 241.991C130.04 241.883 129.755 241.724 129.515 241.514C129.281 241.304 129.098 241.043 128.966 240.731C128.834 240.419 128.768 240.056 128.768 239.642C128.768 239.294 128.858 238.952 129.038 238.616C129.224 238.274 129.53 237.968 129.956 237.698C130.382 237.422 130.949 237.194 131.657 237.014C132.365 236.834 133.244 236.732 134.294 236.708V236.168C134.294 235.55 134.162 235.094 133.898 234.8C133.64 234.5 133.262 234.35 132.764 234.35C132.404 234.35 132.104 234.392 131.864 234.476C131.624 234.56 131.414 234.656 131.234 234.764C131.06 234.866 130.898 234.959 130.748 235.043C130.598 235.127 130.433 235.169 130.253 235.169C130.103 235.169 129.974 235.13 129.866 235.052C129.758 234.974 129.671 234.878 129.605 234.764L129.2 234.053C130.262 233.081 131.543 232.595 133.043 232.595C133.583 232.595 134.063 232.685 134.483 232.865C134.909 233.039 135.269 233.285 135.563 233.603C135.857 233.915 136.079 234.29 136.229 234.728C136.385 235.166 136.463 235.646 136.463 236.168V242ZM132.143 240.614C132.371 240.614 132.581 240.593 132.773 240.551C132.965 240.509 133.145 240.446 133.313 240.362C133.487 240.278 133.652 240.176 133.808 240.056C133.97 239.93 134.132 239.783 134.294 239.615V238.058C133.646 238.088 133.103 238.145 132.665 238.229C132.233 238.307 131.885 238.409 131.621 238.535C131.357 238.661 131.168 238.808 131.054 238.976C130.946 239.144 130.892 239.327 130.892 239.525C130.892 239.915 131.006 240.194 131.234 240.362C131.468 240.53 131.771 240.614 132.143 240.614ZM141.682 242.144C140.884 242.144 140.269 241.919 139.837 241.469C139.405 241.013 139.189 240.386 139.189 239.588V234.431H138.253C138.133 234.431 138.028 234.392 137.938 234.314C137.854 234.236 137.812 234.119 137.812 233.963V233.081L139.297 232.838L139.765 230.318C139.789 230.198 139.843 230.105 139.927 230.039C140.017 229.973 140.128 229.94 140.26 229.94H141.412V232.847H143.842V234.431H141.412V239.435C141.412 239.723 141.484 239.948 141.628 240.11C141.772 240.272 141.964 240.353 142.204 240.353C142.342 240.353 142.456 240.338 142.546 240.308C142.642 240.272 142.723 240.236 142.789 240.2C142.861 240.164 142.924 240.131 142.978 240.101C143.032 240.065 143.086 240.047 143.14 240.047C143.206 240.047 143.26 240.065 143.302 240.101C143.344 240.131 143.389 240.179 143.437 240.245L144.103 241.325C143.779 241.595 143.407 241.799 142.987 241.937C142.567 242.075 142.132 242.144 141.682 242.144ZM149.426 232.622C150.008 232.622 150.542 232.715 151.028 232.901C151.52 233.087 151.943 233.36 152.297 233.72C152.651 234.074 152.927 234.512 153.125 235.034C153.323 235.55 153.422 236.141 153.422 236.807C153.422 236.975 153.413 237.116 153.395 237.23C153.383 237.338 153.356 237.425 153.314 237.491C153.278 237.551 153.227 237.596 153.161 237.626C153.095 237.65 153.011 237.662 152.909 237.662H147.203C147.269 238.61 147.524 239.306 147.968 239.75C148.412 240.194 149 240.416 149.732 240.416C150.092 240.416 150.401 240.374 150.659 240.29C150.923 240.206 151.151 240.113 151.343 240.011C151.541 239.909 151.712 239.816 151.856 239.732C152.006 239.648 152.15 239.606 152.288 239.606C152.378 239.606 152.456 239.624 152.522 239.66C152.588 239.696 152.645 239.747 152.693 239.813L153.341 240.623C153.095 240.911 152.819 241.154 152.513 241.352C152.207 241.544 151.886 241.7 151.55 241.82C151.22 241.934 150.881 242.015 150.533 242.063C150.191 242.111 149.858 242.135 149.534 242.135C148.892 242.135 148.295 242.03 147.743 241.82C147.191 241.604 146.711 241.289 146.303 240.875C145.895 240.455 145.574 239.939 145.34 239.327C145.106 238.709 144.989 237.995 144.989 237.185C144.989 236.555 145.091 235.964 145.295 235.412C145.499 234.854 145.79 234.371 146.168 233.963C146.552 233.549 147.017 233.222 147.563 232.982C148.115 232.742 148.736 232.622 149.426 232.622ZM149.471 234.215C148.823 234.215 148.316 234.398 147.95 234.764C147.584 235.13 147.35 235.649 147.248 236.321H151.424C151.424 236.033 151.385 235.763 151.307 235.511C151.229 235.253 151.109 235.028 150.947 234.836C150.785 234.644 150.581 234.494 150.335 234.386C150.089 234.272 149.801 234.215 149.471 234.215ZM165.942 242H164.943C164.733 242 164.568 241.97 164.448 241.91C164.328 241.844 164.238 241.715 164.178 241.523L163.98 240.866C163.746 241.076 163.515 241.262 163.287 241.424C163.065 241.58 162.834 241.712 162.594 241.82C162.354 241.928 162.099 242.009 161.829 242.063C161.559 242.117 161.259 242.144 160.929 242.144C160.539 242.144 160.179 242.093 159.849 241.991C159.519 241.883 159.234 241.724 158.994 241.514C158.76 241.304 158.577 241.043 158.445 240.731C158.313 240.419 158.247 240.056 158.247 239.642C158.247 239.294 158.337 238.952 158.517 238.616C158.703 238.274 159.009 237.968 159.435 237.698C159.861 237.422 160.428 237.194 161.136 237.014C161.844 236.834 162.723 236.732 163.773 236.708V236.168C163.773 235.55 163.641 235.094 163.377 234.8C163.119 234.5 162.741 234.35 162.243 234.35C161.883 234.35 161.583 234.392 161.343 234.476C161.103 234.56 160.893 234.656 160.713 234.764C160.539 234.866 160.377 234.959 160.227 235.043C160.077 235.127 159.912 235.169 159.732 235.169C159.582 235.169 159.453 235.13 159.345 235.052C159.237 234.974 159.15 234.878 159.084 234.764L158.679 234.053C159.741 233.081 161.022 232.595 162.522 232.595C163.062 232.595 163.542 232.685 163.962 232.865C164.388 233.039 164.748 233.285 165.042 233.603C165.336 233.915 165.558 234.29 165.708 234.728C165.864 235.166 165.942 235.646 165.942 236.168V242ZM161.622 240.614C161.85 240.614 162.06 240.593 162.252 240.551C162.444 240.509 162.624 240.446 162.792 240.362C162.966 240.278 163.131 240.176 163.287 240.056C163.449 239.93 163.611 239.783 163.773 239.615V238.058C163.125 238.088 162.582 238.145 162.144 238.229C161.712 238.307 161.364 238.409 161.1 238.535C160.836 238.661 160.647 238.808 160.533 238.976C160.425 239.144 160.371 239.327 160.371 239.525C160.371 239.915 160.485 240.194 160.713 240.362C160.947 240.53 161.25 240.614 161.622 240.614ZM171.608 242V232.766H172.967C173.255 232.766 173.444 232.901 173.534 233.171L173.687 233.9C173.873 233.708 174.068 233.534 174.272 233.378C174.482 233.222 174.701 233.087 174.929 232.973C175.163 232.859 175.412 232.772 175.676 232.712C175.94 232.652 176.228 232.622 176.54 232.622C177.044 232.622 177.491 232.709 177.881 232.883C178.271 233.051 178.595 233.291 178.853 233.603C179.117 233.909 179.315 234.278 179.447 234.71C179.585 235.136 179.654 235.607 179.654 236.123V242H177.431V236.123C177.431 235.559 177.299 235.124 177.035 234.818C176.777 234.506 176.387 234.35 175.865 234.35C175.481 234.35 175.121 234.437 174.785 234.611C174.449 234.785 174.131 235.022 173.831 235.322V242H171.608ZM185.654 232.622C186.236 232.622 186.77 232.715 187.256 232.901C187.748 233.087 188.171 233.36 188.525 233.72C188.879 234.074 189.155 234.512 189.353 235.034C189.551 235.55 189.65 236.141 189.65 236.807C189.65 236.975 189.641 237.116 189.623 237.23C189.611 237.338 189.584 237.425 189.542 237.491C189.506 237.551 189.455 237.596 189.389 237.626C189.323 237.65 189.239 237.662 189.137 237.662H183.431C183.497 238.61 183.752 239.306 184.196 239.75C184.64 240.194 185.228 240.416 185.96 240.416C186.32 240.416 186.629 240.374 186.887 240.29C187.151 240.206 187.379 240.113 187.571 240.011C187.769 239.909 187.94 239.816 188.084 239.732C188.234 239.648 188.378 239.606 188.516 239.606C188.606 239.606 188.684 239.624 188.75 239.66C188.816 239.696 188.873 239.747 188.921 239.813L189.569 240.623C189.323 240.911 189.047 241.154 188.741 241.352C188.435 241.544 188.114 241.7 187.778 241.82C187.448 241.934 187.109 242.015 186.761 242.063C186.419 242.111 186.086 242.135 185.762 242.135C185.12 242.135 184.523 242.03 183.971 241.82C183.419 241.604 182.939 241.289 182.531 240.875C182.123 240.455 181.802 239.939 181.568 239.327C181.334 238.709 181.217 237.995 181.217 237.185C181.217 236.555 181.319 235.964 181.523 235.412C181.727 234.854 182.018 234.371 182.396 233.963C182.78 233.549 183.245 233.222 183.791 232.982C184.343 232.742 184.964 232.622 185.654 232.622ZM185.699 234.215C185.051 234.215 184.544 234.398 184.178 234.764C183.812 235.13 183.578 235.649 183.476 236.321H187.652C187.652 236.033 187.613 235.763 187.535 235.511C187.457 235.253 187.337 235.028 187.175 234.836C187.013 234.644 186.809 234.494 186.563 234.386C186.317 234.272 186.029 234.215 185.699 234.215ZM190.329 232.766H192.093C192.261 232.766 192.402 232.805 192.516 232.883C192.63 232.961 192.702 233.06 192.732 233.18L194.055 238.112C194.127 238.382 194.184 238.646 194.226 238.904C194.274 239.162 194.319 239.42 194.361 239.678C194.427 239.42 194.496 239.162 194.568 238.904C194.646 238.646 194.727 238.382 194.811 238.112L196.341 233.162C196.377 233.042 196.449 232.943 196.557 232.865C196.665 232.787 196.791 232.748 196.935 232.748H197.916C198.078 232.748 198.213 232.787 198.321 232.865C198.429 232.943 198.501 233.042 198.537 233.162L200.049 238.202C200.127 238.46 200.196 238.712 200.256 238.958C200.322 239.198 200.385 239.441 200.445 239.687C200.487 239.429 200.532 239.171 200.58 238.913C200.634 238.655 200.7 238.388 200.778 238.112L202.146 233.18C202.176 233.06 202.248 232.961 202.362 232.883C202.476 232.805 202.608 232.766 202.758 232.766H204.441L201.516 242H199.725C199.533 242 199.395 241.868 199.311 241.604L197.646 236.267C197.592 236.093 197.541 235.919 197.493 235.745C197.451 235.565 197.415 235.388 197.385 235.214C197.349 235.394 197.31 235.574 197.268 235.754C197.226 235.928 197.178 236.105 197.124 236.285L195.441 241.604C195.357 241.868 195.195 242 194.955 242H193.254L190.329 232.766ZM212.205 242.144C211.407 242.144 210.792 241.919 210.36 241.469C209.928 241.013 209.712 240.386 209.712 239.588V234.431H208.776C208.656 234.431 208.551 234.392 208.461 234.314C208.377 234.236 208.335 234.119 208.335 233.963V233.081L209.82 232.838L210.288 230.318C210.312 230.198 210.366 230.105 210.45 230.039C210.54 229.973 210.651 229.94 210.783 229.94H211.935V232.847H214.365V234.431H211.935V239.435C211.935 239.723 212.007 239.948 212.151 240.11C212.295 240.272 212.487 240.353 212.727 240.353C212.865 240.353 212.979 240.338 213.069 240.308C213.165 240.272 213.246 240.236 213.312 240.2C213.384 240.164 213.447 240.131 213.501 240.101C213.555 240.065 213.609 240.047 213.663 240.047C213.729 240.047 213.783 240.065 213.825 240.101C213.867 240.131 213.912 240.179 213.96 240.245L214.626 241.325C214.302 241.595 213.93 241.799 213.51 241.937C213.09 242.075 212.655 242.144 212.205 242.144ZM219.949 232.622C220.531 232.622 221.065 232.715 221.551 232.901C222.043 233.087 222.466 233.36 222.82 233.72C223.174 234.074 223.45 234.512 223.648 235.034C223.846 235.55 223.945 236.141 223.945 236.807C223.945 236.975 223.936 237.116 223.918 237.23C223.906 237.338 223.879 237.425 223.837 237.491C223.801 237.551 223.75 237.596 223.684 237.626C223.618 237.65 223.534 237.662 223.432 237.662H217.726C217.792 238.61 218.047 239.306 218.491 239.75C218.935 240.194 219.523 240.416 220.255 240.416C220.615 240.416 220.924 240.374 221.182 240.29C221.446 240.206 221.674 240.113 221.866 240.011C222.064 239.909 222.235 239.816 222.379 239.732C222.529 239.648 222.673 239.606 222.811 239.606C222.901 239.606 222.979 239.624 223.045 239.66C223.111 239.696 223.168 239.747 223.216 239.813L223.864 240.623C223.618 240.911 223.342 241.154 223.036 241.352C222.73 241.544 222.409 241.7 222.073 241.82C221.743 241.934 221.404 242.015 221.056 242.063C220.714 242.111 220.381 242.135 220.057 242.135C219.415 242.135 218.818 242.03 218.266 241.82C217.714 241.604 217.234 241.289 216.826 240.875C216.418 240.455 216.097 239.939 215.863 239.327C215.629 238.709 215.512 237.995 215.512 237.185C215.512 236.555 215.614 235.964 215.818 235.412C216.022 234.854 216.313 234.371 216.691 233.963C217.075 233.549 217.54 233.222 218.086 232.982C218.638 232.742 219.259 232.622 219.949 232.622ZM219.994 234.215C219.346 234.215 218.839 234.398 218.473 234.764C218.107 235.13 217.873 235.649 217.771 236.321H221.947C221.947 236.033 221.908 235.763 221.83 235.511C221.752 235.253 221.632 235.028 221.47 234.836C221.308 234.644 221.104 234.494 220.858 234.386C220.612 234.272 220.324 234.215 219.994 234.215ZM225.749 242V232.766H227.108C227.396 232.766 227.585 232.901 227.675 233.171L227.819 233.855C227.981 233.675 228.149 233.51 228.323 233.36C228.503 233.21 228.692 233.081 228.89 232.973C229.094 232.865 229.31 232.781 229.538 232.721C229.772 232.655 230.027 232.622 230.303 232.622C230.885 232.622 231.362 232.781 231.734 233.099C232.112 233.411 232.394 233.828 232.58 234.35C232.724 234.044 232.904 233.783 233.12 233.567C233.336 233.345 233.573 233.165 233.831 233.027C234.089 232.889 234.362 232.787 234.65 232.721C234.944 232.655 235.238 232.622 235.532 232.622C236.042 232.622 236.495 232.7 236.891 232.856C237.287 233.012 237.62 233.24 237.89 233.54C238.16 233.84 238.364 234.206 238.502 234.638C238.646 235.07 238.718 235.565 238.718 236.123V242H236.495V236.123C236.495 235.535 236.366 235.094 236.108 234.8C235.85 234.5 235.472 234.35 234.974 234.35C234.746 234.35 234.533 234.389 234.335 234.467C234.143 234.545 233.972 234.659 233.822 234.809C233.678 234.953 233.564 235.136 233.48 235.358C233.396 235.58 233.354 235.835 233.354 236.123V242H231.122V236.123C231.122 235.505 230.996 235.055 230.744 234.773C230.498 234.491 230.132 234.35 229.646 234.35C229.328 234.35 229.028 234.431 228.746 234.593C228.47 234.749 228.212 234.965 227.972 235.241V242H225.749ZM240.901 245.015V232.766H242.26C242.404 232.766 242.527 232.799 242.629 232.865C242.731 232.931 242.797 233.033 242.827 233.171L243.007 234.026C243.379 233.6 243.805 233.255 244.285 232.991C244.771 232.727 245.338 232.595 245.986 232.595C246.49 232.595 246.949 232.7 247.363 232.91C247.783 233.12 248.143 233.426 248.443 233.828C248.749 234.224 248.983 234.716 249.145 235.304C249.313 235.886 249.397 236.555 249.397 237.311C249.397 238.001 249.304 238.64 249.118 239.228C248.932 239.816 248.665 240.326 248.317 240.758C247.975 241.19 247.558 241.529 247.066 241.775C246.58 242.015 246.034 242.135 245.428 242.135C244.906 242.135 244.462 242.057 244.096 241.901C243.736 241.739 243.412 241.517 243.124 241.235V245.015H240.901ZM245.221 234.35C244.759 234.35 244.363 234.449 244.033 234.647C243.709 234.839 243.406 235.112 243.124 235.466V239.606C243.376 239.918 243.649 240.137 243.943 240.263C244.243 240.383 244.564 240.443 244.906 240.443C245.242 240.443 245.545 240.38 245.815 240.254C246.091 240.128 246.322 239.936 246.508 239.678C246.7 239.42 246.847 239.096 246.949 238.706C247.051 238.31 247.102 237.845 247.102 237.311C247.102 236.771 247.057 236.315 246.967 235.943C246.883 235.565 246.76 235.259 246.598 235.025C246.436 234.791 246.238 234.62 246.004 234.512C245.776 234.404 245.515 234.35 245.221 234.35ZM253.446 228.626V242H251.223V228.626H253.446ZM263.201 242H262.202C261.992 242 261.827 241.97 261.707 241.91C261.587 241.844 261.497 241.715 261.437 241.523L261.239 240.866C261.005 241.076 260.774 241.262 260.546 241.424C260.324 241.58 260.093 241.712 259.853 241.82C259.613 241.928 259.358 242.009 259.088 242.063C258.818 242.117 258.518 242.144 258.188 242.144C257.798 242.144 257.438 242.093 257.108 241.991C256.778 241.883 256.493 241.724 256.253 241.514C256.019 241.304 255.836 241.043 255.704 240.731C255.572 240.419 255.506 240.056 255.506 239.642C255.506 239.294 255.596 238.952 255.776 238.616C255.962 238.274 256.268 237.968 256.694 237.698C257.12 237.422 257.687 237.194 258.395 237.014C259.103 236.834 259.982 236.732 261.032 236.708V236.168C261.032 235.55 260.9 235.094 260.636 234.8C260.378 234.5 260 234.35 259.502 234.35C259.142 234.35 258.842 234.392 258.602 234.476C258.362 234.56 258.152 234.656 257.972 234.764C257.798 234.866 257.636 234.959 257.486 235.043C257.336 235.127 257.171 235.169 256.991 235.169C256.841 235.169 256.712 235.13 256.604 235.052C256.496 234.974 256.409 234.878 256.343 234.764L255.938 234.053C257 233.081 258.281 232.595 259.781 232.595C260.321 232.595 260.801 232.685 261.221 232.865C261.647 233.039 262.007 233.285 262.301 233.603C262.595 233.915 262.817 234.29 262.967 234.728C263.123 235.166 263.201 235.646 263.201 236.168V242ZM258.881 240.614C259.109 240.614 259.319 240.593 259.511 240.551C259.703 240.509 259.883 240.446 260.051 240.362C260.225 240.278 260.39 240.176 260.546 240.056C260.708 239.93 260.87 239.783 261.032 239.615V238.058C260.384 238.088 259.841 238.145 259.403 238.229C258.971 238.307 258.623 238.409 258.359 238.535C258.095 238.661 257.906 238.808 257.792 238.976C257.684 239.144 257.63 239.327 257.63 239.525C257.63 239.915 257.744 240.194 257.972 240.362C258.206 240.53 258.509 240.614 258.881 240.614ZM268.42 242.144C267.622 242.144 267.007 241.919 266.575 241.469C266.143 241.013 265.927 240.386 265.927 239.588V234.431H264.991C264.871 234.431 264.766 234.392 264.676 234.314C264.592 234.236 264.55 234.119 264.55 233.963V233.081L266.035 232.838L266.503 230.318C266.527 230.198 266.581 230.105 266.665 230.039C266.755 229.973 266.866 229.94 266.998 229.94H268.15V232.847H270.58V234.431H268.15V239.435C268.15 239.723 268.222 239.948 268.366 240.11C268.51 240.272 268.702 240.353 268.942 240.353C269.08 240.353 269.194 240.338 269.284 240.308C269.38 240.272 269.461 240.236 269.527 240.2C269.599 240.164 269.662 240.131 269.716 240.101C269.77 240.065 269.824 240.047 269.878 240.047C269.944 240.047 269.998 240.065 270.04 240.101C270.082 240.131 270.127 240.179 270.175 240.245L270.841 241.325C270.517 241.595 270.145 241.799 269.725 241.937C269.305 242.075 268.87 242.144 268.42 242.144ZM276.164 232.622C276.746 232.622 277.28 232.715 277.766 232.901C278.258 233.087 278.681 233.36 279.035 233.72C279.389 234.074 279.665 234.512 279.863 235.034C280.061 235.55 280.16 236.141 280.16 236.807C280.16 236.975 280.151 237.116 280.133 237.23C280.121 237.338 280.094 237.425 280.052 237.491C280.016 237.551 279.965 237.596 279.899 237.626C279.833 237.65 279.749 237.662 279.647 237.662H273.941C274.007 238.61 274.262 239.306 274.706 239.75C275.15 240.194 275.738 240.416 276.47 240.416C276.83 240.416 277.139 240.374 277.397 240.29C277.661 240.206 277.889 240.113 278.081 240.011C278.279 239.909 278.45 239.816 278.594 239.732C278.744 239.648 278.888 239.606 279.026 239.606C279.116 239.606 279.194 239.624 279.26 239.66C279.326 239.696 279.383 239.747 279.431 239.813L280.079 240.623C279.833 240.911 279.557 241.154 279.251 241.352C278.945 241.544 278.624 241.7 278.288 241.82C277.958 241.934 277.619 242.015 277.271 242.063C276.929 242.111 276.596 242.135 276.272 242.135C275.63 242.135 275.033 242.03 274.481 241.82C273.929 241.604 273.449 241.289 273.041 240.875C272.633 240.455 272.312 239.939 272.078 239.327C271.844 238.709 271.727 237.995 271.727 237.185C271.727 236.555 271.829 235.964 272.033 235.412C272.237 234.854 272.528 234.371 272.906 233.963C273.29 233.549 273.755 233.222 274.301 232.982C274.853 232.742 275.474 232.622 276.164 232.622ZM276.209 234.215C275.561 234.215 275.054 234.398 274.688 234.764C274.322 235.13 274.088 235.649 273.986 236.321H278.162C278.162 236.033 278.123 235.763 278.045 235.511C277.967 235.253 277.847 235.028 277.685 234.836C277.523 234.644 277.319 234.494 277.073 234.386C276.827 234.272 276.539 234.215 276.209 234.215Z" fill="#181818"/>
</svg>
