<svg width="90" height="90" viewBox="0 0 90 90" fill="none" xmlns="http://www.w3.org/2000/svg">
<path d="M61.8347 4.43555H28.1333C18.8652 4.43555 11.2822 12.0185 11.2822 21.287V68.6805C11.2822 77.9488 18.865 85.532 28.1333 85.532H61.8347C71.1028 85.532 78.6858 77.949 78.6858 68.6805V21.287C78.6858 12.0187 71.103 4.43555 61.8355 4.43555H61.8347ZM30.1343 29.7121H43.8257C46.1427 29.7121 48.038 31.6075 48.038 33.9245C48.038 36.2415 46.1427 38.1369 43.8257 38.1369H30.1343C27.8174 38.1369 25.922 36.2415 25.922 33.9245C25.922 31.6075 27.8174 29.7121 30.1343 29.7121ZM57.0955 65.5206H29.7131C27.3961 65.5206 25.5008 63.6252 25.5008 61.3082C25.5008 58.9912 27.3961 57.0958 29.7131 57.0958H57.0955C59.4124 57.0958 61.3078 58.9912 61.3078 61.3082C61.3085 63.6252 59.4124 65.5206 57.0955 65.5206ZM57.0955 51.8289H29.7131C27.3961 51.8289 25.5008 49.9336 25.5008 47.6166C25.5008 45.2995 27.3961 43.4042 29.7131 43.4042H57.0955C59.4124 43.4042 61.3078 45.2995 61.3078 47.6166C61.3085 49.9336 59.4124 51.8289 57.0955 51.8289Z" fill="#D9D9D9"/>
</svg>
