<svg width="380" height="300" viewBox="0 0 380 300" fill="none" xmlns="http://www.w3.org/2000/svg">
<rect x="1" y="1" width="378" height="298" rx="9" fill="#4AACEA" fill-opacity="0.1" stroke="#4AACEA" stroke-width="2" stroke-linecap="round" stroke-linejoin="round" stroke-dasharray="6 6"/>
<g clip-path="url(#clip0_102_3614)">
<path d="M259.232 56.7009L258.327 55.144C250.717 42.0264 236.957 34.1192 222.446 35.0785C220.574 35.2018 218.714 35.468 216.88 35.8751C203.691 38.8289 192.214 49.2615 187.454 62.6222C184.672 70.4795 183.875 79.5298 178.564 85.7645C171.653 93.8836 159.92 94.1309 149.607 93.8C139.294 93.4691 127.552 93.7527 120.675 101.901C116.369 106.993 114.999 114.269 115.347 121.096C116.276 139.2 128.32 155.38 143.667 163.423C159.013 171.465 177.058 172.185 193.837 168.65C217.364 163.692 239.705 150.08 253.145 129.058C266.585 108.037 269.983 79.3953 259.232 56.7009Z" fill="#F4F4F5"/>
<path d="M158.941 49.8882C161.473 47.2403 161.473 42.9472 158.941 40.2993C156.409 37.6514 152.304 37.6514 149.772 40.2993C147.24 42.9472 147.24 47.2403 149.772 49.8882C152.304 52.5361 156.409 52.5361 158.941 49.8882Z" fill="#F4F4F5"/>
<path d="M222.615 182.22C225.249 179.683 225.417 175.393 222.991 172.639C220.565 169.885 216.464 169.709 213.83 172.246C211.196 174.783 211.028 179.073 213.454 181.827C215.88 184.581 219.982 184.757 222.615 182.22Z" fill="#F4F4F5"/>
<path d="M265.99 190.894H268V190.927L190.198 190.999L133.752 190.97L116.649 190.927H112L116.65 190.909L133.752 190.879L190.197 190.85L267.999 190.922V190.926H266.487L265.99 190.894Z" fill="#181818"/>
<path d="M175.02 49.5597H252.978V164.598H175.02V49.5597Z" fill="white"/>
<path d="M252.978 164.598L252.895 49.5597L252.978 49.6433H175.028L175.118 49.5487L175.101 164.587L175.027 164.51L252.986 164.587L175.027 164.664H174.93V49.4615H253.062V49.5487L252.978 164.598Z" fill="#181818"/>
<path d="M211.913 125.938H181.905C181.001 125.938 180.269 126.704 180.269 127.649V132.208C180.269 133.153 181.001 133.919 181.905 133.919H211.913C212.816 133.919 213.549 133.153 213.549 132.208V127.649C213.549 126.704 212.816 125.938 211.913 125.938Z" fill="#F4F4F5"/>
<path d="M246.639 125.938H217.368C216.465 125.938 215.732 126.704 215.732 127.649V132.208C215.732 133.153 216.465 133.919 217.368 133.919H246.639C247.543 133.919 248.275 133.153 248.275 132.208V127.649C248.275 126.704 247.543 125.938 246.639 125.938Z" fill="#F4F4F5"/>
<path d="M247.098 142.292H181.747C180.844 142.292 180.111 143.058 180.111 144.003V148.562C180.111 149.507 180.844 150.273 181.747 150.273H247.098C248.002 150.273 248.734 149.507 248.734 148.562V144.003C248.734 143.058 248.002 142.292 247.098 142.292Z" fill="#F4F4F5"/>
<path d="M195.549 122.726C195.549 122.777 192.335 122.82 188.366 122.82C184.398 122.82 181.184 122.776 181.184 122.726C181.184 122.675 184.398 122.631 188.366 122.631L195.549 122.726Z" fill="#181818"/>
<path d="M229.538 122.726C229.538 122.777 227.006 122.82 223.883 122.82C220.759 122.82 218.224 122.776 218.224 122.726C218.224 122.675 220.756 122.631 223.883 122.631C227.01 122.631 229.538 122.675 229.538 122.726Z" fill="#181818"/>
<path d="M204.669 139C204.669 139.051 199.451 139.094 193.016 139.094C186.582 139.094 181.364 139.051 181.364 139C181.364 138.95 186.582 138.906 193.016 138.906L204.669 139Z" fill="#181818"/>
<path d="M247.142 107.819H180.479C179.599 107.819 178.887 108.565 178.887 109.484V114.877C178.887 115.797 179.599 116.542 180.479 116.542H247.142C248.021 116.542 248.734 115.797 248.734 114.877V109.484C248.734 108.565 248.021 107.819 247.142 107.819Z" fill="#D9D9D9"/>
<path d="M228.689 112.18C228.689 112.234 222.491 112.274 214.848 112.274C207.206 112.274 201.005 112.235 201.005 112.18C201.005 112.126 207.203 112.086 214.848 112.086L228.689 112.18Z" fill="#181818"/>
<path d="M247.142 54.7834H180.479C179.599 54.7834 178.887 55.5287 178.887 56.4482V61.8415C178.887 62.7609 179.599 63.5063 180.479 63.5063H247.142C248.021 63.5063 248.734 62.7609 248.734 61.8415V56.4482C248.734 55.5287 248.021 54.7834 247.142 54.7834Z" fill="#D9D9D9"/>
<path d="M228.689 59.1443C228.689 59.1953 222.491 59.2386 214.848 59.2386C207.206 59.2386 201.005 59.195 201.005 59.1443C201.005 59.0936 207.203 59.0501 214.848 59.0501L228.689 59.1443Z" fill="#181818"/>
<path d="M252.977 65.6159C252.977 65.6704 235.51 65.7141 213.965 65.7141C192.421 65.7141 174.946 65.6704 174.946 65.6159C174.946 65.5614 192.414 65.5213 213.965 65.5213L252.977 65.6159ZM252.977 104.207C252.977 104.262 235.51 104.302 213.965 104.302C192.421 104.302 174.946 104.262 174.946 104.207C174.946 104.153 192.414 104.113 213.965 104.113L252.977 104.207Z" fill="#F4F4F5"/>
<path d="M211.913 74.3644H181.905C181.001 74.3644 180.269 75.1304 180.269 76.0753V80.6344C180.269 81.5793 181.001 82.3452 181.905 82.3452H211.913C212.816 82.3452 213.549 81.5793 213.549 80.6344V76.0753C213.549 75.1304 212.816 74.3644 211.913 74.3644Z" fill="#F4F4F5"/>
<path d="M246.639 74.3644H217.368C216.465 74.3644 215.732 75.1304 215.732 76.0753V80.6344C215.732 81.5793 216.465 82.3452 217.368 82.3452H246.639C247.543 82.3452 248.275 81.5793 248.275 80.6344V76.0753C248.275 75.1304 247.543 74.3644 246.639 74.3644Z" fill="#F4F4F5"/>
<path d="M247.098 90.7189H181.747C180.844 90.7189 180.111 91.4849 180.111 92.4298V96.9888C180.111 97.9337 180.844 98.6997 181.747 98.6997H247.098C248.002 98.6997 248.734 97.9337 248.734 96.9888V92.4298C248.734 91.4849 248.002 90.7189 247.098 90.7189Z" fill="#F4F4F5"/>
<path d="M195.549 71.1524C195.549 71.2035 192.335 71.247 188.366 71.247C184.398 71.247 181.184 71.2033 181.184 71.1524C181.184 71.1015 184.398 71.0577 188.366 71.0577L195.549 71.1524ZM229.538 71.1524C229.538 71.2035 227.006 71.247 223.882 71.247C220.759 71.247 218.223 71.2033 218.223 71.1524C218.223 71.1015 220.756 71.0577 223.882 71.0577C227.009 71.0577 229.538 71.1015 229.538 71.1524ZM204.668 87.427C204.668 87.4781 199.451 87.5216 193.016 87.5216C186.582 87.5216 181.364 87.4779 181.364 87.427C181.364 87.3761 186.582 87.3324 193.016 87.3324L204.668 87.427ZM246.328 155.122C246.328 155.177 241.239 155.217 234.961 155.217C228.682 155.217 223.597 155.177 223.597 155.122C223.597 155.068 228.684 155.028 234.961 155.028L246.328 155.122Z" fill="#181818"/>
<path d="M208.438 79.1915C208.262 79.252 208.083 79.2994 207.9 79.3334C206.534 79.5964 205.124 79.3856 203.883 78.7332C203.652 78.608 203.444 78.4419 203.267 78.2422C203.073 78.0274 202.944 77.758 202.895 77.4673C202.83 77.1538 202.895 76.8264 203.072 76.5651C203.283 76.2917 203.63 76.1771 203.952 76.274C204.036 76.2994 204.113 76.3425 204.18 76.4008C204.246 76.459 204.3 76.5311 204.339 76.6124C204.415 76.7771 204.439 76.9637 204.405 77.1435C204.331 77.4961 204.164 77.8198 203.923 78.0772C203.448 78.6342 202.851 79.0624 202.183 79.325C201.465 79.6091 200.685 79.682 199.93 79.536C199.528 79.4644 199.149 79.2908 198.827 79.0304C198.653 78.8973 198.513 78.7215 198.42 78.5184C198.326 78.3154 198.282 78.0914 198.291 77.8662C198.314 77.6351 198.397 77.4148 198.531 77.2297C198.663 77.032 198.858 76.8901 199.081 76.8295C199.32 76.7801 199.567 76.8655 199.731 77.055C199.884 77.2427 199.967 77.4816 199.964 77.7279C199.968 77.9686 199.913 78.2063 199.804 78.4184C199.687 78.6275 199.525 78.8055 199.331 78.9386C198.946 79.1802 198.525 79.3557 198.086 79.4587C197.241 79.7096 196.319 79.9825 195.38 79.7608C194.91 79.654 194.478 79.4093 194.135 79.0552C193.776 78.6905 193.579 78.1851 193.592 77.6619C193.596 77.4956 193.632 77.3317 193.697 77.18C193.762 77.0282 193.855 76.8915 193.971 76.7781C194.1 76.6721 194.254 76.6063 194.416 76.5882C194.579 76.5701 194.743 76.6005 194.89 76.6758C195.202 76.8226 195.366 77.1852 195.276 77.5307C195.182 77.839 194.991 78.1046 194.733 78.2836C193.8 78.9533 192.726 79.3799 191.603 79.5278C191.056 79.6264 190.494 79.575 189.972 79.3787C189.714 79.2699 189.488 79.0948 189.312 78.8697C189.137 78.6445 189.019 78.3767 188.969 78.091C188.884 77.498 189.241 76.9336 189.797 76.7852C190.075 76.7292 190.36 76.8351 190.541 77.0617C190.705 77.2773 190.797 77.5431 190.802 77.8184C190.814 78.0844 190.759 78.3489 190.642 78.5856C190.518 78.8082 190.35 79.0001 190.148 79.1483C189.759 79.4145 189.326 79.6042 188.872 79.7083C188.02 79.9449 187.133 80.1121 186.326 79.8029C185.945 79.6592 185.61 79.4072 185.359 79.0754C185.115 78.7575 184.992 78.357 185.011 77.9501C185.048 77.5735 185.213 77.2234 185.477 76.9643C185.72 76.7093 186.07 76.5998 186.406 76.6732H186.441V76.7095C186.452 77.4236 186.203 78.1151 185.745 78.6447C185.42 79.0433 184.998 79.3436 184.525 79.5142C184.232 79.62 183.922 79.6621 183.613 79.638C183.405 79.6053 183.3 79.5761 183.3 79.5761C183.705 79.6453 184.121 79.6053 184.507 79.4597C184.966 79.2844 185.373 78.9859 185.686 78.5941C186.116 78.0739 186.345 77.4044 186.326 76.717L186.364 76.7643C186.215 76.7354 186.061 76.7452 185.916 76.7928C185.771 76.8403 185.64 76.9242 185.533 77.0371C185.293 77.2789 185.143 77.6029 185.112 77.9501C185.06 78.6777 185.62 79.4053 186.35 79.6672C187.081 79.929 187.968 79.795 188.813 79.5544C189.249 79.4526 189.664 79.269 190.038 79.0125C190.219 78.8776 190.371 78.7041 190.483 78.5033C190.587 78.2923 190.635 78.0563 190.622 77.8194C190.617 77.5829 190.539 77.3545 190.4 77.1683C190.329 77.0793 190.237 77.0117 190.133 76.9726C190.029 76.9336 189.917 76.9245 189.808 76.9464C189.338 77.0793 189.039 77.5601 189.113 78.0632C189.159 78.3173 189.266 78.5551 189.423 78.7547C189.581 78.9543 189.784 79.1092 190.013 79.2053C190.508 79.3891 191.04 79.4355 191.558 79.3398C192.65 79.1946 193.694 78.778 194.601 78.1248C194.824 77.9711 194.991 77.7448 195.078 77.4808C195.11 77.3553 195.099 77.2217 195.045 77.1043C194.992 76.987 194.899 76.8937 194.786 76.8415C194.551 76.7244 194.273 76.7538 194.066 76.9182C193.868 77.1131 193.754 77.3834 193.749 77.6675C193.744 77.8996 193.785 78.1303 193.87 78.345C193.954 78.5597 194.08 78.7539 194.24 78.9153C194.558 79.2434 194.958 79.4705 195.394 79.57C196.271 79.781 197.172 79.5262 198.014 79.2754C198.434 79.1761 198.836 79.0094 199.207 78.7808C199.379 78.6653 199.523 78.5097 199.628 78.3261C199.722 78.1415 199.769 77.935 199.767 77.7258C199.77 77.5228 199.704 77.3252 199.579 77.1694C199.457 77.0259 199.272 76.9607 199.092 76.9985C198.913 77.0628 198.755 77.1803 198.638 77.3366C198.522 77.4928 198.451 77.6812 198.435 77.8788C198.432 78.0762 198.475 78.2714 198.561 78.4471C198.648 78.6228 198.774 78.7736 198.929 78.8864C199.234 79.1313 199.593 79.2949 199.972 79.3628C200.7 79.5032 201.45 79.4339 202.143 79.1628C202.793 78.9155 203.375 78.5045 203.837 77.966C204.061 77.7294 204.218 77.4323 204.289 77.1075C204.373 76.807 204.221 76.4894 203.941 76.3799C203.669 76.2945 203.374 76.3909 203.197 76.6236C203.118 76.7381 203.063 76.8682 203.035 77.0059C203.007 77.1436 203.006 77.2858 203.033 77.4238C203.09 77.6835 203.202 77.9261 203.363 78.133C203.523 78.3398 203.727 78.5054 203.958 78.6168C204.699 79.0209 205.509 79.2682 206.341 79.3444C206.868 79.3889 207.398 79.3693 207.92 79.2861L208.327 79.2061C208.364 79.1989 208.401 79.194 208.438 79.1915ZM242.467 78.7585C242.329 78.8495 242.182 78.9251 242.029 78.9841C241.593 79.1703 241.129 79.2725 240.659 79.2861C239.911 79.3142 239.169 79.1335 238.51 78.7623C238.087 78.5431 237.727 78.2105 237.466 77.7985C237.322 77.564 237.256 77.2866 237.278 77.009C237.294 76.8621 237.337 76.7199 237.407 76.5911C237.476 76.4623 237.57 76.3495 237.682 76.2597C237.803 76.1611 237.953 76.1097 238.106 76.1142C238.263 76.1198 238.413 76.1858 238.527 76.2996C238.747 76.5387 238.85 76.8694 238.809 77.198C238.753 77.5264 238.599 77.8279 238.371 78.0601C238.145 78.2974 237.89 78.5017 237.612 78.6675C237.032 79.0253 236.382 79.2428 235.71 79.304C234.991 79.3904 234.265 79.2498 233.623 78.9002C233.287 78.7116 233.008 78.4296 232.816 78.0854C232.72 77.9052 232.658 77.7078 232.632 77.5034C232.612 77.1857 232.691 76.8699 232.855 76.6022C233.02 76.3345 233.262 76.1289 233.547 76.0155C233.755 75.9474 233.981 75.971 234.173 76.0809C234.359 76.1908 234.506 76.3622 234.59 76.5684C234.672 76.7717 234.711 76.9914 234.703 77.2121C234.695 77.4327 234.641 77.6489 234.545 77.8453C234.348 78.2292 234.064 78.5566 233.717 78.7984C233.027 79.2979 232.219 79.5898 231.381 79.6424C230.543 79.695 229.708 79.5062 228.966 79.0966C228.6 78.9022 228.268 78.6439 227.985 78.3327C227.687 78.0223 227.512 77.6048 227.498 77.165C227.502 76.9434 227.567 76.7277 227.686 76.5438C227.804 76.3599 227.971 76.2157 228.166 76.1283C228.268 76.0861 228.379 76.0711 228.488 76.0845C228.597 76.0979 228.702 76.1393 228.792 76.205C228.963 76.3341 229.087 76.522 229.14 76.7361C229.188 76.9383 229.193 77.1493 229.153 77.3535C229.112 77.5577 229.028 77.7496 228.906 77.9148C228.681 78.227 228.41 78.4996 228.103 78.7225C227.547 79.1526 226.91 79.4547 226.235 79.609C225.559 79.7633 224.86 79.7662 224.183 79.6175C223.554 79.4984 222.987 79.1439 222.59 78.6202C222.405 78.365 222.302 78.056 222.294 77.7363C222.286 77.4307 222.358 77.1287 222.503 76.8632C222.638 76.6003 222.871 76.4073 223.146 76.3285C223.412 76.2663 223.69 76.3321 223.904 76.5075C224.093 76.6642 224.24 76.8697 224.33 77.1038C224.421 77.3378 224.451 77.5924 224.419 77.8425C224.348 78.2725 224.129 78.6605 223.803 78.9337C223.539 79.1636 223.229 79.3278 222.896 79.414C222.439 79.5214 221.97 79.5521 221.504 79.505L221.156 79.4723C221.116 79.4777 221.075 79.4777 221.034 79.4723C221.075 79.4674 221.116 79.4674 221.156 79.4723H221.521C221.989 79.5037 222.458 79.462 222.913 79.3485C223.233 79.2575 223.53 79.0935 223.782 78.8682C224.081 78.5928 224.273 78.2122 224.32 77.7987C224.374 77.3318 224.192 76.8694 223.84 76.5766C223.747 76.5027 223.639 76.4511 223.524 76.4253C223.409 76.3996 223.29 76.4003 223.176 76.4275C222.936 76.5032 222.734 76.676 222.616 76.9077C222.479 77.1541 222.414 77.4372 222.43 77.7217C222.445 78.0063 222.54 78.2798 222.703 78.5084C223.084 78.9985 223.621 79.329 224.216 79.4395C224.872 79.584 225.549 79.5815 226.204 79.4323C226.859 79.2831 227.476 78.9905 228.014 78.5739C228.304 78.3587 228.56 78.0972 228.772 77.799C228.988 77.5085 229.064 77.13 228.978 76.7732C228.937 76.6009 228.84 76.449 228.703 76.3441C228.636 76.2947 228.558 76.2635 228.477 76.2533C228.395 76.2432 228.313 76.2543 228.237 76.2858C228.075 76.3606 227.937 76.4822 227.839 76.6362C227.741 76.7903 227.687 76.9703 227.684 77.1553C227.701 77.5466 227.859 77.9167 228.125 78.1921C228.396 78.4874 228.712 78.7334 229.061 78.9196C229.776 79.3073 230.577 79.4871 231.381 79.4398C232.185 79.3909 232.96 79.1101 233.621 78.6286C233.947 78.4121 234.217 78.1147 234.407 77.7629C234.491 77.5913 234.539 77.4025 234.547 77.2097C234.554 77.0169 234.522 76.8246 234.452 76.6461C234.329 76.2909 233.966 76.0932 233.617 76.1914C233.113 76.3991 232.794 76.921 232.824 77.4865C232.847 77.6668 232.902 77.8409 232.988 77.9995C233.163 78.3165 233.42 78.576 233.729 78.7488C234.337 79.0822 235.025 79.219 235.708 79.1416C236.354 79.081 236.978 78.8713 237.537 78.5278C237.804 78.3716 238.05 78.1782 238.268 77.9532C238.476 77.7438 238.617 77.4718 238.671 77.1747C238.69 77.0347 238.678 76.8922 238.638 76.7574C238.597 76.6227 238.527 76.4993 238.435 76.3963C238.249 76.2088 237.958 76.1947 237.757 76.3635C237.562 76.5249 237.437 76.7604 237.409 77.0182C237.389 77.2731 237.448 77.528 237.576 77.7458C237.826 78.1402 238.17 78.4599 238.574 78.6734C239.212 79.0443 239.931 79.2325 240.661 79.2191C241.124 79.2103 241.582 79.1218 242.017 78.9572C242.317 78.8386 242.459 78.7475 242.467 78.7585ZM210.129 94.8258C210.087 94.8536 210.043 94.8766 209.996 94.8948L209.596 95.084L208.038 95.7569C207.205 96.0935 206.34 96.3373 205.457 96.4845C204.905 96.5689 204.346 96.6041 203.788 96.5898C203.157 96.6026 202.529 96.5042 201.929 96.2988C201.593 96.1794 201.29 95.9772 201.044 95.7095C200.798 95.4417 200.618 95.1161 200.517 94.76C200.466 94.5666 200.452 94.3645 200.476 94.1653C200.499 93.9661 200.561 93.7739 200.656 93.5997C200.752 93.4145 200.89 93.2562 201.057 93.1384C201.224 93.0206 201.416 92.9467 201.616 92.9231C201.828 92.9194 202.035 92.9814 202.213 93.1011C202.391 93.2209 202.531 93.3931 202.615 93.5959C202.805 93.999 202.836 94.464 202.702 94.891C202.556 95.3157 202.305 95.6922 201.975 95.9822C201.644 96.2755 201.277 96.5203 200.883 96.7098C200.07 97.1518 199.13 97.267 198.242 97.0335C197.306 96.7315 196.602 95.92 196.405 94.9165C196.363 94.6627 196.363 94.4032 196.405 94.1493C196.439 93.8825 196.542 93.6307 196.704 93.4217C196.781 93.3083 196.881 93.2136 196.996 93.1439C197.111 93.0743 197.24 93.0313 197.372 93.0179C197.513 93.0151 197.651 93.059 197.767 93.1433C197.882 93.2276 197.969 93.348 198.015 93.4872C198.082 93.7488 198.094 94.0225 198.05 94.2894C198.006 94.5562 197.907 94.81 197.761 95.0331C197.504 95.4904 197.175 95.8988 196.787 96.2407C195.209 97.6532 192.872 97.6158 191.336 96.1535C190.979 95.8067 190.736 95.3511 190.641 94.8513C190.593 94.5992 190.609 94.3385 190.686 94.0946C190.771 93.8554 190.91 93.6418 191.093 93.4726C191.273 93.2998 191.5 93.1893 191.743 93.1563C191.868 93.1376 191.995 93.1478 192.115 93.1861C192.235 93.2245 192.346 93.2901 192.439 93.3783C192.602 93.5563 192.716 93.7766 192.771 94.0164C192.825 94.2561 192.818 94.5068 192.749 94.7424C192.613 95.1845 192.364 95.5797 192.029 95.8845C191.72 96.1855 191.38 96.4502 191.016 96.674C190.321 97.104 189.547 97.379 188.745 97.4816C187.995 97.5849 187.233 97.5141 186.512 97.2742C186.169 97.154 185.856 96.9565 185.594 96.6957C185.34 96.4433 185.167 96.1157 185.096 95.7571C185.021 95.4148 185.053 95.0562 185.187 94.7342C185.318 94.4189 185.593 94.1954 185.917 94.1414C186.221 94.0931 186.529 94.1818 186.766 94.3851C186.992 94.5815 187.095 94.8922 187.035 95.1927C186.977 95.4613 186.837 95.7027 186.635 95.8802C186.458 96.0427 186.26 96.1797 186.048 96.2875C185.681 96.4776 185.298 96.631 184.904 96.7458C184.361 96.9085 183.799 96.9954 183.234 97.0041C183.038 97.0113 182.842 97.0028 182.647 96.9785H183.234C183.793 96.9522 184.347 96.8545 184.883 96.6875C185.271 96.5657 185.648 96.4087 186.01 96.2182C186.214 96.112 186.403 95.9774 186.573 95.818C186.75 95.651 186.872 95.4293 186.92 95.1851C186.971 94.9217 186.879 94.6503 186.68 94.4795C186.574 94.3919 186.451 94.3281 186.32 94.2918C186.189 94.2555 186.053 94.2476 185.919 94.2685C185.778 94.2936 185.646 94.3554 185.535 94.4483C185.424 94.5412 185.337 94.6621 185.283 94.7997C185.162 95.0958 185.135 95.4249 185.206 95.7382C185.291 96.0747 185.459 96.3818 185.694 96.6287C185.928 96.8756 186.221 97.0536 186.542 97.1448C187.242 97.3752 187.982 97.4399 188.709 97.334C189.903 97.1776 191.02 96.6301 191.899 95.7699C192.213 95.4863 192.446 95.1175 192.573 94.704C192.633 94.4995 192.64 94.2821 192.594 94.0739C192.547 93.8656 192.449 93.6739 192.309 93.5182C192.145 93.388 191.941 93.3263 191.737 93.3453C191.532 93.3642 191.342 93.4623 191.203 93.6205C191.047 93.7692 190.928 93.9551 190.855 94.1624C190.788 94.377 190.775 94.6059 190.817 94.8273C190.911 95.2894 191.141 95.7091 191.474 96.0277C192.946 97.4246 195.182 97.4573 196.692 96.1044C197.066 95.7773 197.382 95.3848 197.627 94.9442C197.755 94.7358 197.846 94.5055 197.896 94.2639C197.952 94.0325 197.945 93.7892 197.875 93.5619C197.843 93.4576 197.781 93.3664 197.697 93.3011C197.612 93.2359 197.511 93.1999 197.406 93.1982C197.19 93.2256 196.996 93.3473 196.87 93.533C196.607 93.9207 196.512 94.4069 196.61 94.8715C196.7 95.3306 196.907 95.7558 197.208 96.1032C197.509 96.4505 197.893 96.7073 198.321 96.8468C199.168 97.0695 200.064 96.9608 200.84 96.5412C201.598 96.1592 202.325 95.6063 202.579 94.8171C202.701 94.4311 202.674 94.0107 202.503 93.6458C202.433 93.4706 202.315 93.3211 202.164 93.2163C202.013 93.1115 201.835 93.0563 201.654 93.0576C201.478 93.0792 201.309 93.1446 201.162 93.2484C201.015 93.3522 200.894 93.4914 200.809 93.6542C200.721 93.8111 200.665 93.9848 200.643 94.1648C200.621 94.3449 200.633 94.5279 200.68 94.7027C200.869 95.3835 201.361 95.9259 202.002 96.1579C202.587 96.3635 203.201 96.4643 203.817 96.4561C204.37 96.4749 204.922 96.4444 205.47 96.365C206.346 96.2311 207.208 96.0031 208.04 95.6848C208.736 95.4265 209.25 95.1973 209.609 95.0482L210.016 94.8736L210.129 94.8258Z" fill="#4AACEA"/>
<path d="M138.818 79.7117L138.425 112.857C138.359 118.492 139.36 126.786 147.886 126.491C155.267 125.651 157.225 118.346 157.276 113.086L157.349 108.256C157.349 108.256 165.426 107.565 166.108 99.2201C166.438 95.1897 166.455 86.8268 166.417 79.2608C166.354 71.1345 160.335 64.4211 152.584 63.8337L151.812 63.7718C143.472 63.648 138.71 70.9851 138.818 79.7117Z" fill="#FFBE9D"/>
<path d="M157.353 108.256C157.353 108.256 152.299 108.179 147.183 104.255C147.183 104.255 149.291 110.547 157.311 110.402L157.353 108.256Z" fill="#EB996E"/>
<path d="M152.779 82.68C152.623 82.8511 151.701 82.0726 150.362 82.0361C149.023 81.9995 148.028 82.6836 147.889 82.5053C147.819 82.4253 147.983 82.1161 148.421 81.7959C149.007 81.3855 149.702 81.1796 150.407 81.2077C151.105 81.2264 151.777 81.4816 152.324 81.9353C152.727 82.2877 152.858 82.6071 152.779 82.68ZM152.741 85.5719C152.722 85.8658 152.595 86.1405 152.386 86.338C152.177 86.5355 151.903 86.6403 151.621 86.6304C151.344 86.6302 151.079 86.5151 150.883 86.3105C150.688 86.1059 150.578 85.8285 150.578 85.5391C150.615 84.9287 151.109 84.4597 151.694 84.4806C151.971 84.4796 152.238 84.5942 152.434 84.799C152.531 84.9004 152.609 85.0209 152.661 85.1535C152.714 85.2861 152.741 85.4283 152.741 85.5719ZM156.146 92.4034C156.146 92.3308 156.918 92.25 158.164 92.1814C158.48 92.1814 158.783 92.1269 158.859 91.9085C158.91 91.5728 158.862 91.2287 158.72 90.9227L157.938 88.3474C156.894 84.7098 156.174 81.7051 156.313 81.6617C156.452 81.6182 157.412 84.5464 158.449 88.2085L159.144 90.7877C159.238 91.1695 159.413 91.606 159.218 92.0863C159.165 92.1988 159.087 92.297 158.992 92.3733C158.897 92.4497 158.786 92.502 158.668 92.5264C158.492 92.5622 158.312 92.5744 158.133 92.5627C156.901 92.5308 156.146 92.4796 156.146 92.4034ZM152.212 77.4346C152.084 77.7473 151.012 77.5113 149.732 77.5801C148.452 77.6489 147.395 77.9437 147.249 77.6491C147.183 77.5036 147.381 77.22 147.816 76.9435C148.389 76.6014 149.034 76.4116 149.694 76.3906C150.349 76.3543 151.003 76.4894 151.596 76.7835C152.049 77.009 152.268 77.2781 152.212 77.4346ZM164.904 80.0137C164.764 80.2694 163.721 79.9881 162.469 79.9482C161.216 79.9083 160.156 80.0761 160.034 79.8099C159.978 79.6861 160.187 79.4462 160.625 79.257C161.22 79.0101 161.858 78.8997 162.496 78.9332C163.141 78.9539 163.775 79.1176 164.355 79.4135C164.765 79.65 164.967 79.8937 164.904 80.0137Z" fill="#181818"/>
<path d="M139.04 85.9465C138.908 85.8739 133.669 83.8295 133.447 89.5524C133.224 95.2753 138.755 94.3322 138.779 94.1685C138.803 94.0048 139.04 85.9465 139.04 85.9465Z" fill="#FFBE9D"/>
<path d="M137.193 91.9267C137.168 91.9086 137.092 91.9922 136.928 92.0612C136.705 92.1533 136.456 92.1533 136.232 92.0612C135.662 91.8139 135.213 90.8355 135.227 89.8023C135.233 89.3114 135.344 88.8279 135.551 88.3873C135.67 88.0303 135.95 87.758 136.299 87.6597C136.526 87.6053 136.758 87.7296 136.848 87.9544C136.917 88.118 136.876 88.2308 136.907 88.2418C136.938 88.2528 137.029 88.1508 136.991 87.9145C136.966 87.773 136.896 87.6447 136.792 87.5508C136.646 87.4252 136.459 87.3639 136.27 87.3797C136.042 87.4156 135.825 87.5124 135.643 87.6608C135.46 87.8093 135.317 88.0043 135.227 88.2272C134.977 88.7129 134.842 89.2543 134.834 89.8059C134.834 90.9626 135.349 92.0648 136.128 92.3523C136.423 92.4535 136.745 92.4121 137.008 92.2395C137.174 92.0648 137.21 91.9375 137.193 91.9267Z" fill="#EB996E"/>
<path d="M154.839 96.3684C154.898 96.2229 153.827 95.8881 153.072 94.834C152.758 94.3736 152.503 93.8721 152.314 93.3425C152.154 92.9241 152.032 92.6658 151.966 92.684C151.9 92.7021 151.921 92.9822 152.011 93.4369C152.125 94.0406 152.362 94.6115 152.707 95.1102C153.064 95.6086 153.546 95.9947 154.098 96.227C154.54 96.4047 154.82 96.4157 154.839 96.3684ZM164.967 83.2076C164.807 83.3749 163.886 82.6002 162.533 82.5637C161.179 82.5271 160.199 83.2112 160.056 83.0329C159.987 82.9529 160.154 82.6437 160.588 82.3235C161.174 81.9131 161.87 81.7072 162.574 81.7353C163.273 81.7539 163.947 82.0093 164.494 82.4629C164.912 82.8145 165.044 83.1311 164.967 83.2076ZM164.748 85.9793C164.729 86.2732 164.602 86.5479 164.393 86.7454C164.184 86.9429 163.91 87.0477 163.628 87.0378C163.351 87.0376 163.086 86.9226 162.89 86.7179C162.695 86.5133 162.585 86.2359 162.585 85.9466C162.604 85.6527 162.731 85.378 162.94 85.1804C163.149 84.9829 163.423 84.8781 163.705 84.8881C163.981 84.8883 164.247 85.0033 164.442 85.2079C164.638 85.4125 164.748 85.6899 164.748 85.9793ZM171.986 68.1807C171.443 67.2574 170.6 66.5694 169.611 66.2421C168.623 65.9149 167.555 65.9703 166.602 66.3982C167.104 63.6767 165.814 60.938 163.444 59.6966C162.291 59.0926 160.98 58.8994 159.712 59.1466C158.445 59.3937 157.289 60.0676 156.421 61.0656C156.281 60.3495 155.851 59.7322 155.242 59.3741C154.638 59.0227 153.969 58.8133 153.28 58.7604C151.648 58.5707 149.996 58.8322 148.49 59.5188C146.985 60.2054 145.678 61.293 144.699 62.6731C143.108 62.4756 141.495 62.672 139.99 63.2464C138.485 63.8208 137.13 64.7571 136.035 65.9798C133.465 68.9589 132.978 75.8595 135.795 81.8215L136.455 85.5573C137.339 85.5573 138.146 85.6228 138.692 86.132C139.433 86.8268 139.763 88.1362 140.991 87.6408C141.617 87.3851 142.187 86.0148 142.382 85.3492C143.771 80.9078 144.231 76.2062 143.732 71.5626C144.609 70.5857 145.658 69.7944 146.822 69.2318L146.728 69.3228C148.957 68.5116 151.479 67.715 153.594 68.8098C155.236 69.6573 156.202 71.4398 157.42 72.8584C158.553 74.1705 159.928 75.2292 161.462 75.9707C162.997 76.7122 164.659 77.121 166.349 77.1727C166.467 79.5227 166.279 82.8437 166.397 85.1755L168.321 81.4361C168.47 81.1673 168.606 80.8904 168.728 80.6068L168.77 80.5195C169.117 80.2249 169.375 79.6866 169.959 78.9882C170.518 78.3018 170.885 77.4685 171.022 76.5789C171.159 75.6893 171.059 74.7775 170.735 73.9427C172.463 72.6142 172.997 70.1601 171.987 68.1807H171.986Z" fill="#181818"/>
<path d="M168.713 68.2679C168.731 68.3074 168.745 68.3489 168.755 68.3917C168.783 68.5109 168.799 68.6326 168.804 68.7553C168.821 69.2239 168.712 69.688 168.487 70.0939C168.328 70.374 168.121 70.6207 167.876 70.8214C167.584 71.0549 167.241 71.2075 166.878 71.2652C166.455 71.3346 166.023 71.2884 165.623 71.1309C165.223 70.9735 164.869 70.7101 164.596 70.3667L164.732 70.2468C164.863 70.3977 164.965 70.5744 165.032 70.7667C165.098 70.9589 165.127 71.163 165.118 71.3672C165.114 71.6401 165.057 71.9094 164.952 72.1593C164.847 72.4092 164.696 72.6346 164.506 72.8223C164.146 73.1568 163.692 73.3599 163.212 73.4008C162.415 73.4617 161.621 73.233 160.965 72.7533C160.529 72.4431 160.125 72.0845 159.762 71.6838C159.623 71.5447 159.495 71.3939 159.379 71.2327C159.532 71.3547 159.677 71.4884 159.811 71.6329C160.189 72.0067 160.599 72.3439 161.035 72.6405C161.671 73.0852 162.433 73.2916 163.195 73.2261C163.637 73.1839 164.055 72.9955 164.388 72.6878C164.729 72.3436 164.926 71.8732 164.938 71.3782C164.951 71.0134 164.826 70.6579 164.59 70.3887L164.726 70.265C164.979 70.584 165.307 70.8298 165.677 70.9788C166.047 71.1278 166.448 71.175 166.84 71.1161C167.483 71.0145 168.046 70.613 168.371 70.0248C168.593 69.6389 168.713 69.1983 168.718 68.7479C168.727 68.588 168.725 68.4276 168.713 68.2679ZM161.868 61.9967C161.911 62.0034 161.952 62.0222 161.986 62.0512C162.092 62.1151 162.193 62.187 162.288 62.2657C162.652 62.5588 162.937 62.9446 163.116 63.3861C163.249 63.7197 163.301 64.0822 163.268 64.4419C163.236 64.8016 163.119 65.1473 162.928 65.4487C162.698 65.8169 162.34 66.0777 161.93 66.1762C161.489 66.2762 161.028 66.1829 160.654 65.9179C160.539 65.8275 160.438 65.7211 160.351 65.6016L160.508 65.507C160.587 65.7128 160.624 65.9337 160.617 66.1554C160.609 66.3771 160.558 66.5948 160.466 66.7946C160.305 67.167 160.025 67.4684 159.673 67.6457C159.381 67.7875 159.063 67.861 158.741 67.861C158.419 67.861 158.101 67.7875 157.808 67.6457C157.424 67.4598 157.081 67.1907 156.803 66.8562C156.694 66.7408 156.604 66.6083 156.534 66.4634L156.851 66.8053C157.138 67.1133 157.479 67.3603 157.856 67.5329C158.131 67.6565 158.429 67.7175 158.729 67.7119C159.029 67.7063 159.324 67.6341 159.595 67.5002C159.904 67.3321 160.15 67.0588 160.291 66.7253C160.37 66.5486 160.415 66.3568 160.42 66.1616C160.426 65.9664 160.394 65.772 160.325 65.5903L160.033 64.8883L160.482 65.4995C160.555 65.6025 160.643 65.6933 160.743 65.7688C160.907 65.8859 161.092 65.9669 161.287 66.0069C161.482 66.0469 161.683 66.0451 161.877 66.0016C162.242 65.9188 162.562 65.6921 162.771 65.3686C162.95 65.0908 163.063 64.7716 163.099 64.4383C163.134 64.105 163.092 63.7677 162.976 63.4552C162.814 63.0268 162.557 62.645 162.225 62.3419C162.01 62.1023 161.857 62.0113 161.868 61.9967Z" fill="#999999"/>
<path d="M208.321 103.72L195.678 113.81C195.501 113.953 195.354 114.131 195.245 114.335C195.137 114.539 195.069 114.764 195.046 114.997C195.024 115.229 195.047 115.464 195.114 115.686C195.182 115.909 195.292 116.115 195.438 116.291C195.712 116.622 196.096 116.83 196.512 116.873C196.929 116.916 197.345 116.79 197.675 116.521L210.196 106.335L211.89 102.84L208.321 103.72Z" fill="#4AACEA"/>
<path opacity="0.5" d="M210.267 103.236L211.161 104.327L210.195 106.335C209.959 106.361 209.725 106.272 209.56 106.094C209.396 105.916 209.319 105.668 209.353 105.422C209.121 105.456 208.888 105.365 208.734 105.18C208.58 104.995 208.525 104.742 208.588 104.506C208.588 104.506 207.93 104.444 208.303 103.72L210.267 103.236Z" fill="white"/>
<path d="M195.677 113.799L197.75 116.448L198.445 115.885L196.459 113.177L195.677 113.799Z" fill="#181818"/>
<path d="M194.755 139.077L194.3 138.99L203.601 121.988L202.126 117.084C202.126 117.084 200.422 110.103 201.841 108.322C201.841 108.322 204.946 104.495 205.956 104.549C206.965 104.604 207.768 104.811 207.97 105.604C207.97 105.604 209.684 105.393 210.136 105.968C210.439 106.366 210.709 106.789 210.943 107.234C210.943 107.234 212.808 107.074 213.312 108.762C213.312 108.762 215.076 109.711 215.228 111.079C215.381 112.447 214.881 118.828 214.321 120.46C213.761 122.093 211.698 125.52 211.096 130.58C210.494 135.64 208.359 138.925 206.463 146.316L201.319 148.444L194.755 139.077Z" fill="#FFBE9D"/>
<path d="M207.882 105.495C207.92 105.549 207.28 105.993 206.797 106.812C206.313 107.63 206.198 108.416 206.132 108.405C206.139 107.8 206.304 107.208 206.611 106.695C206.918 106.181 207.354 105.766 207.871 105.495H207.882ZM210.842 107.234C210.877 107.292 210.265 107.677 209.781 108.412C209.298 109.147 209.145 109.867 209.085 109.867C209.026 109.867 209.085 109.071 209.611 108.296C209.895 107.807 210.329 107.433 210.842 107.234ZM213.214 108.718C213.252 108.769 212.79 109.194 212.365 109.834C211.941 110.475 211.712 111.075 211.652 111.053C211.705 110.561 211.892 110.095 212.19 109.711C212.432 109.282 212.788 108.937 213.214 108.718ZM204.494 109.271C204.157 109.156 203.805 109.093 203.451 109.085C203.102 109.142 202.764 109.253 202.448 109.416C202.431 109.416 202.497 109.278 202.668 109.147C202.895 108.983 203.16 108.886 203.435 108.866C203.71 108.847 203.985 108.906 204.23 109.038C204.338 109.087 204.429 109.168 204.494 109.271ZM208.188 111.697C207.977 111.34 207.718 111.017 207.419 110.737C206.894 110.308 206.324 110.282 206.331 110.217C206.338 110.151 206.473 110.155 206.706 110.184C207.328 110.284 207.859 110.708 208.115 111.309C208.205 111.537 208.212 111.69 208.188 111.697ZM211.871 112.519C211.826 112.567 211.419 112.086 210.727 111.897C210.303 111.812 209.87 111.79 209.44 111.832C209.44 111.806 209.562 111.719 209.809 111.657C210.463 111.513 211.143 111.705 211.638 112.174C211.819 112.355 211.889 112.505 211.871 112.519Z" fill="#EB996E"/>
<path d="M118.028 131.067C118.028 131.067 112.32 164.926 112.602 168.094C112.884 171.262 114.393 176.297 117.819 177.159C119.995 177.668 122.252 177.668 124.428 177.159L120.32 135.57L118.028 131.067Z" fill="#4AACEA"/>
<path d="M134.72 113.598C134.72 113.598 127.896 118.691 126.372 120.164C120.063 126.403 118.745 128.956 118.025 131.077C117.305 133.198 122.407 182.197 122.407 182.197L123.451 190.764L171.336 190.892V147.135L164.146 116.335L159.718 115.018L158.825 111.348C158.825 111.348 153.326 107.099 144.254 106.983C141.472 106.943 137.513 108.092 135.308 109.893L134.72 113.598Z" fill="#4AACEA"/>
<path d="M158.776 116.462C158.776 116.462 163.698 116.232 164.131 116.334C165.647 116.698 169.811 120.7 174.566 125.618C179.088 130.31 187.999 140.077 187.999 140.077C187.999 140.077 189.599 138.389 191.425 140.644L198.455 129.95C198.455 129.95 209.015 131.303 210.657 139.637C210.657 139.637 207.422 146.097 204.772 150.713C204.772 150.713 194.966 167.734 187.221 164.649C180.146 161.826 171.273 154.304 170.024 152.696L159.589 144.921C159.589 144.921 152.452 130.691 155.607 123.576L158.776 116.462Z" fill="#4AACEA"/>
<path d="M159.704 115.018C159.619 115.01 159.535 114.992 159.454 114.964L158.758 114.767C158.142 114.604 157.245 114.378 156.125 114.156C153.204 113.591 150.252 113.211 147.287 113.018C144.323 112.797 141.348 112.807 138.386 113.047C137.248 113.149 136.337 113.298 135.711 113.41L134.991 113.56C134.909 113.585 134.823 113.597 134.737 113.596C134.816 113.56 134.898 113.533 134.982 113.516L135.695 113.327C136.579 113.127 137.473 112.98 138.373 112.886C141.342 112.602 144.328 112.571 147.302 112.795C150.273 112.987 153.228 113.39 156.146 114.002C157.266 114.246 158.161 114.493 158.776 114.686L159.472 114.923C159.552 114.945 159.63 114.977 159.704 115.018ZM141.054 112.471C140.995 112.471 140.838 111.641 140.706 110.597C140.574 109.553 140.501 108.705 140.559 108.695C140.742 109.304 140.859 109.932 140.907 110.568C141.047 111.627 141.113 112.464 141.054 112.471ZM142.842 112.312C142.366 111.11 142.278 109.78 142.591 108.521C142.654 108.521 142.56 109.38 142.629 110.424C142.699 111.468 142.901 112.293 142.842 112.312Z" fill="#181818"/>
<g opacity="0.3">
<path d="M134.877 113.559C142.369 114.945 149.965 113.559 157.896 114.552C150.244 112.894 142.265 112.108 134.877 113.559Z" fill="#181818"/>
</g>
<g opacity="0.3">
<path d="M121.712 177.224C117.496 166.896 117.997 155.228 118.581 144.02L121.712 177.224Z" fill="#181818"/>
</g>
<path d="M118.029 138.448C118.04 138.49 118.047 138.534 118.049 138.579C118.049 138.677 118.077 138.804 118.095 138.96L118.244 140.441L118.759 145.897L120.471 163.838L122.426 181.749L123.121 187.165L123.306 188.639L123.351 189.024C123.355 189.068 123.355 189.112 123.351 189.155C123.337 189.114 123.327 189.071 123.323 189.027L123.257 188.645L123.034 187.191L122.287 181.781C121.692 177.209 120.968 170.869 120.269 163.87L118.621 145.922L118.172 140.466L118.064 138.985C118.07 138.855 118.062 138.724 118.04 138.596C118.03 138.547 118.027 138.497 118.029 138.447L118.029 138.448ZM150.446 132.908C150.345 132.924 150.242 132.93 150.14 132.926H149.252L146.003 132.966C142.43 133.056 138.864 133.32 135.314 133.755C131.158 134.268 127.426 135.01 124.744 135.636L121.575 136.393L120.713 136.604C120.613 136.632 120.512 136.652 120.41 136.662C120.504 136.619 120.602 136.585 120.702 136.56L121.555 136.309C122.295 136.091 123.374 135.807 124.713 135.483C131.697 133.804 138.834 132.915 146 132.831L149.255 132.861L150.139 132.897C150.241 132.892 150.343 132.896 150.445 132.908H150.446Z" fill="#181818"/>
<path d="M132.06 143.871C132.001 143.871 132.112 139.182 132.304 133.402L132.764 122.937C132.823 122.941 132.712 127.626 132.517 133.41L132.06 143.871ZM156.53 143.293C156.465 143.199 156.405 143.101 156.352 142.999C156.229 142.783 156.069 142.495 155.872 142.136L154.105 138.961C153.211 137.397 152.469 135.744 151.89 134.025C151.569 132.999 151.347 131.941 151.229 130.868C151.128 129.713 151.128 128.552 151.229 127.398C151.376 125.16 151.911 122.97 152.809 120.933C153.221 120.052 153.746 119.233 154.37 118.5C154.919 117.868 155.549 117.318 156.242 116.866C157.239 116.196 158.381 115.796 159.563 115.702C159.994 115.665 160.427 115.691 160.85 115.779C160.424 115.755 159.997 115.755 159.57 115.779C158.41 115.901 157.296 116.316 156.322 116.987C155.647 117.44 155.033 117.987 154.499 118.613C153.893 119.338 153.384 120.145 152.986 121.014C152.108 123.031 151.584 125.197 151.438 127.409C151.341 128.547 151.341 129.693 151.438 130.832C151.554 131.89 151.768 132.934 152.078 133.949C152.647 135.659 153.37 137.308 154.238 138.874L155.946 142.082L156.395 142.966C156.449 143.071 156.494 143.18 156.53 143.293Z" fill="#181818"/>
<g opacity="0.3">
<path d="M121.187 136.621C124.213 136.457 127.222 136.042 130.186 135.381C129.82 136.75 129.65 138.168 129.682 139.589C130.621 138.482 131.305 137.164 131.682 135.737C131.789 136.514 132.046 137.259 132.436 137.93C132.827 138.6 133.342 139.18 133.953 139.637C134.251 138.229 134.319 136.779 134.155 135.348C138.632 134.785 143.08 134.015 147.497 133.038C138.556 132.812 129.632 133.973 121.016 136.483" fill="#181818"/>
</g>
<path d="M178.754 159.961C178.681 159.927 178.612 159.884 178.549 159.833L177.975 159.433L175.888 157.927L169.133 152.809L162.525 147.494L160.553 145.839L160.024 145.381C159.959 145.331 159.9 145.273 159.847 145.21C159.918 145.251 159.985 145.298 160.048 145.352L160.598 145.781L162.605 147.389L169.256 152.657L175.973 157.826L178.018 159.383L178.571 159.808C178.636 159.854 178.698 159.906 178.755 159.962L178.754 159.961ZM190.438 148.8C190.407 148.8 190.438 148.247 190.365 147.371C190.207 145.073 189.545 142.843 188.431 140.856L187.714 139.634C187.809 139.719 187.892 139.817 187.961 139.925C188.168 140.201 188.361 140.489 188.539 140.787C189.731 142.762 190.405 145.03 190.493 147.363C190.512 147.714 190.512 148.065 190.493 148.415C190.491 148.546 190.472 148.675 190.438 148.8L190.438 148.8ZM192.595 147.975C192.605 147.6 192.634 147.226 192.682 146.854C192.747 145.957 192.73 145.056 192.633 144.162C192.535 143.268 192.355 142.386 192.095 141.528C191.897 140.866 191.747 140.47 191.768 140.454C191.828 140.535 191.876 140.624 191.911 140.72C192.026 140.968 192.128 141.223 192.217 141.484C192.815 143.205 193.017 145.049 192.808 146.867C192.766 147.213 192.721 147.493 192.68 147.682C192.665 147.782 192.637 147.88 192.596 147.973L192.595 147.975ZM208.928 143.293C208.922 143.237 208.892 143.187 208.848 143.155C208.788 143.115 208.739 143.06 208.706 142.995L208.591 142.739C208.497 142.554 208.264 142.415 208.097 142.146C207.916 141.848 207.776 141.524 207.68 141.186C207.442 140.322 207.034 139.519 206.483 138.829C206.152 138.428 205.792 138.053 205.407 137.708C204.999 137.331 204.565 136.985 204.11 136.672C203.669 136.335 203.204 136.035 202.718 135.773L201.327 135.068L200.078 134.446L198.965 133.947C198.8 133.881 198.638 133.804 198.482 133.717L198.085 133.452L197.737 133.252C197.626 133.19 197.532 133.106 197.449 133.052C197.277 132.939 197.129 132.877 197.031 132.821C196.934 132.766 196.884 132.738 196.889 132.73C196.943 132.743 196.995 132.763 197.045 132.789C197.197 132.844 197.344 132.911 197.487 132.989C197.698 133.128 197.918 133.249 198.147 133.352C198.283 133.421 198.411 133.523 198.55 133.604C198.69 133.684 198.863 133.742 199.031 133.818L200.15 134.291L201.413 134.902L202.804 135.597C203.296 135.861 203.767 136.165 204.213 136.506C204.677 136.822 205.116 137.175 205.528 137.561C205.918 137.913 206.281 138.296 206.613 138.707C207.172 139.417 207.578 140.245 207.803 141.133C207.89 141.465 208.018 141.783 208.182 142.08C208.329 142.335 208.554 142.484 208.652 142.693C208.704 142.796 208.725 142.89 208.756 142.959C208.784 143.02 208.824 143.075 208.874 143.119C208.963 143.217 208.932 143.3 208.928 143.293ZM164.306 190.047C164.257 190.047 164.215 180.844 164.215 169.491L164.306 148.935C164.354 148.935 164.396 158.138 164.396 169.491L164.306 190.047Z" fill="#181818"/>
</g>
<path d="M84.26 238.931C84.392 238.931 84.506 238.982 84.602 239.084L85.556 240.119C85.028 240.773 84.377 241.274 83.603 241.622C82.835 241.97 81.911 242.144 80.831 242.144C79.865 242.144 78.995 241.979 78.221 241.649C77.453 241.319 76.796 240.86 76.25 240.272C75.704 239.684 75.284 238.982 74.99 238.166C74.702 237.35 74.558 236.459 74.558 235.493C74.558 234.515 74.72 233.621 75.044 232.811C75.368 231.995 75.824 231.293 76.412 230.705C77 230.117 77.702 229.661 78.518 229.337C79.34 229.007 80.246 228.842 81.236 228.842C82.202 228.842 83.045 228.998 83.765 229.31C84.491 229.616 85.112 230.024 85.628 230.534L84.818 231.659C84.77 231.731 84.707 231.794 84.629 231.848C84.557 231.902 84.455 231.929 84.323 231.929C84.185 231.929 84.044 231.875 83.9 231.767C83.756 231.659 83.573 231.542 83.351 231.416C83.129 231.29 82.847 231.173 82.505 231.065C82.169 230.957 81.74 230.903 81.218 230.903C80.606 230.903 80.042 231.011 79.526 231.227C79.016 231.437 78.575 231.74 78.203 232.136C77.837 232.532 77.549 233.015 77.339 233.585C77.135 234.149 77.033 234.785 77.033 235.493C77.033 236.225 77.135 236.876 77.339 237.446C77.549 238.016 77.831 238.496 78.185 238.886C78.539 239.276 78.956 239.576 79.436 239.786C79.916 239.99 80.432 240.092 80.984 240.092C81.314 240.092 81.611 240.074 81.875 240.038C82.145 240.002 82.391 239.945 82.613 239.867C82.841 239.789 83.054 239.69 83.252 239.57C83.456 239.444 83.657 239.291 83.855 239.111C83.915 239.057 83.978 239.015 84.044 238.985C84.11 238.949 84.182 238.931 84.26 238.931ZM87.2642 242V232.766H88.5692C88.7972 232.766 88.9562 232.808 89.0462 232.892C89.1362 232.976 89.1962 233.12 89.2262 233.324L89.3612 234.44C89.6912 233.87 90.0782 233.42 90.5222 233.09C90.9662 232.76 91.4642 232.595 92.0162 232.595C92.4722 232.595 92.8502 232.7 93.1502 232.91L92.8622 234.575C92.8442 234.683 92.8052 234.761 92.7452 234.809C92.6852 234.851 92.6042 234.872 92.5022 234.872C92.4122 234.872 92.2892 234.851 92.1332 234.809C91.9772 234.767 91.7702 234.746 91.5122 234.746C91.0502 234.746 90.6542 234.875 90.3242 235.133C89.9942 235.385 89.7152 235.757 89.4872 236.249V242H87.2642ZM98.4278 232.622C99.0098 232.622 99.5438 232.715 100.03 232.901C100.522 233.087 100.945 233.36 101.299 233.72C101.653 234.074 101.929 234.512 102.127 235.034C102.325 235.55 102.424 236.141 102.424 236.807C102.424 236.975 102.415 237.116 102.397 237.23C102.385 237.338 102.358 237.425 102.316 237.491C102.28 237.551 102.229 237.596 102.163 237.626C102.097 237.65 102.013 237.662 101.911 237.662H96.2048C96.2708 238.61 96.5258 239.306 96.9698 239.75C97.4138 240.194 98.0018 240.416 98.7338 240.416C99.0938 240.416 99.4028 240.374 99.6608 240.29C99.9248 240.206 100.153 240.113 100.345 240.011C100.543 239.909 100.714 239.816 100.858 239.732C101.008 239.648 101.152 239.606 101.29 239.606C101.38 239.606 101.458 239.624 101.524 239.66C101.59 239.696 101.647 239.747 101.695 239.813L102.343 240.623C102.097 240.911 101.821 241.154 101.515 241.352C101.209 241.544 100.888 241.7 100.552 241.82C100.222 241.934 99.8828 242.015 99.5348 242.063C99.1928 242.111 98.8598 242.135 98.5358 242.135C97.8938 242.135 97.2968 242.03 96.7448 241.82C96.1928 241.604 95.7128 241.289 95.3048 240.875C94.8968 240.455 94.5758 239.939 94.3418 239.327C94.1078 238.709 93.9908 237.995 93.9908 237.185C93.9908 236.555 94.0928 235.964 94.2968 235.412C94.5008 234.854 94.7918 234.371 95.1698 233.963C95.5538 233.549 96.0188 233.222 96.5648 232.982C97.1168 232.742 97.7378 232.622 98.4278 232.622ZM98.4728 234.215C97.8248 234.215 97.3178 234.398 96.9518 234.764C96.5858 235.13 96.3518 235.649 96.2498 236.321H100.426C100.426 236.033 100.387 235.763 100.309 235.511C100.231 235.253 100.111 235.028 99.9488 234.836C99.7868 234.644 99.5828 234.494 99.3368 234.386C99.0908 234.272 98.8028 234.215 98.4728 234.215ZM111.463 242H110.464C110.254 242 110.089 241.97 109.969 241.91C109.849 241.844 109.759 241.715 109.699 241.523L109.501 240.866C109.267 241.076 109.036 241.262 108.808 241.424C108.586 241.58 108.355 241.712 108.115 241.82C107.875 241.928 107.62 242.009 107.35 242.063C107.08 242.117 106.78 242.144 106.45 242.144C106.06 242.144 105.7 242.093 105.37 241.991C105.04 241.883 104.755 241.724 104.515 241.514C104.281 241.304 104.098 241.043 103.966 240.731C103.834 240.419 103.768 240.056 103.768 239.642C103.768 239.294 103.858 238.952 104.038 238.616C104.224 238.274 104.53 237.968 104.956 237.698C105.382 237.422 105.949 237.194 106.657 237.014C107.365 236.834 108.244 236.732 109.294 236.708V236.168C109.294 235.55 109.162 235.094 108.898 234.8C108.64 234.5 108.262 234.35 107.764 234.35C107.404 234.35 107.104 234.392 106.864 234.476C106.624 234.56 106.414 234.656 106.234 234.764C106.06 234.866 105.898 234.959 105.748 235.043C105.598 235.127 105.433 235.169 105.253 235.169C105.103 235.169 104.974 235.13 104.866 235.052C104.758 234.974 104.671 234.878 104.605 234.764L104.2 234.053C105.262 233.081 106.543 232.595 108.043 232.595C108.583 232.595 109.063 232.685 109.483 232.865C109.909 233.039 110.269 233.285 110.563 233.603C110.857 233.915 111.079 234.29 111.229 234.728C111.385 235.166 111.463 235.646 111.463 236.168V242ZM107.143 240.614C107.371 240.614 107.581 240.593 107.773 240.551C107.965 240.509 108.145 240.446 108.313 240.362C108.487 240.278 108.652 240.176 108.808 240.056C108.97 239.93 109.132 239.783 109.294 239.615V238.058C108.646 238.088 108.103 238.145 107.665 238.229C107.233 238.307 106.885 238.409 106.621 238.535C106.357 238.661 106.168 238.808 106.054 238.976C105.946 239.144 105.892 239.327 105.892 239.525C105.892 239.915 106.006 240.194 106.234 240.362C106.468 240.53 106.771 240.614 107.143 240.614ZM116.682 242.144C115.884 242.144 115.269 241.919 114.837 241.469C114.405 241.013 114.189 240.386 114.189 239.588V234.431H113.253C113.133 234.431 113.028 234.392 112.938 234.314C112.854 234.236 112.812 234.119 112.812 233.963V233.081L114.297 232.838L114.765 230.318C114.789 230.198 114.843 230.105 114.927 230.039C115.017 229.973 115.128 229.94 115.26 229.94H116.412V232.847H118.842V234.431H116.412V239.435C116.412 239.723 116.484 239.948 116.628 240.11C116.772 240.272 116.964 240.353 117.204 240.353C117.342 240.353 117.456 240.338 117.546 240.308C117.642 240.272 117.723 240.236 117.789 240.2C117.861 240.164 117.924 240.131 117.978 240.101C118.032 240.065 118.086 240.047 118.14 240.047C118.206 240.047 118.26 240.065 118.302 240.101C118.344 240.131 118.389 240.179 118.437 240.245L119.103 241.325C118.779 241.595 118.407 241.799 117.987 241.937C117.567 242.075 117.132 242.144 116.682 242.144ZM124.426 232.622C125.008 232.622 125.542 232.715 126.028 232.901C126.52 233.087 126.943 233.36 127.297 233.72C127.651 234.074 127.927 234.512 128.125 235.034C128.323 235.55 128.422 236.141 128.422 236.807C128.422 236.975 128.413 237.116 128.395 237.23C128.383 237.338 128.356 237.425 128.314 237.491C128.278 237.551 128.227 237.596 128.161 237.626C128.095 237.65 128.011 237.662 127.909 237.662H122.203C122.269 238.61 122.524 239.306 122.968 239.75C123.412 240.194 124 240.416 124.732 240.416C125.092 240.416 125.401 240.374 125.659 240.29C125.923 240.206 126.151 240.113 126.343 240.011C126.541 239.909 126.712 239.816 126.856 239.732C127.006 239.648 127.15 239.606 127.288 239.606C127.378 239.606 127.456 239.624 127.522 239.66C127.588 239.696 127.645 239.747 127.693 239.813L128.341 240.623C128.095 240.911 127.819 241.154 127.513 241.352C127.207 241.544 126.886 241.7 126.55 241.82C126.22 241.934 125.881 242.015 125.533 242.063C125.191 242.111 124.858 242.135 124.534 242.135C123.892 242.135 123.295 242.03 122.743 241.82C122.191 241.604 121.711 241.289 121.303 240.875C120.895 240.455 120.574 239.939 120.34 239.327C120.106 238.709 119.989 237.995 119.989 237.185C119.989 236.555 120.091 235.964 120.295 235.412C120.499 234.854 120.79 234.371 121.168 233.963C121.552 233.549 122.017 233.222 122.563 232.982C123.115 232.742 123.736 232.622 124.426 232.622ZM124.471 234.215C123.823 234.215 123.316 234.398 122.95 234.764C122.584 235.13 122.35 235.649 122.248 236.321H126.424C126.424 236.033 126.385 235.763 126.307 235.511C126.229 235.253 126.109 235.028 125.947 234.836C125.785 234.644 125.581 234.494 125.335 234.386C125.089 234.272 124.801 234.215 124.471 234.215ZM133.706 242V232.766H135.065C135.353 232.766 135.542 232.901 135.632 233.171L135.785 233.9C135.971 233.708 136.166 233.534 136.37 233.378C136.58 233.222 136.799 233.087 137.027 232.973C137.261 232.859 137.51 232.772 137.774 232.712C138.038 232.652 138.326 232.622 138.638 232.622C139.142 232.622 139.589 232.709 139.979 232.883C140.369 233.051 140.693 233.291 140.951 233.603C141.215 233.909 141.413 234.278 141.545 234.71C141.683 235.136 141.752 235.607 141.752 236.123V242H139.529V236.123C139.529 235.559 139.397 235.124 139.133 234.818C138.875 234.506 138.485 234.35 137.963 234.35C137.579 234.35 137.219 234.437 136.883 234.611C136.547 234.785 136.229 235.022 135.929 235.322V242H133.706ZM147.752 232.622C148.334 232.622 148.868 232.715 149.354 232.901C149.846 233.087 150.269 233.36 150.623 233.72C150.977 234.074 151.253 234.512 151.451 235.034C151.649 235.55 151.748 236.141 151.748 236.807C151.748 236.975 151.739 237.116 151.721 237.23C151.709 237.338 151.682 237.425 151.64 237.491C151.604 237.551 151.553 237.596 151.487 237.626C151.421 237.65 151.337 237.662 151.235 237.662H145.529C145.595 238.61 145.85 239.306 146.294 239.75C146.738 240.194 147.326 240.416 148.058 240.416C148.418 240.416 148.727 240.374 148.985 240.29C149.249 240.206 149.477 240.113 149.669 240.011C149.867 239.909 150.038 239.816 150.182 239.732C150.332 239.648 150.476 239.606 150.614 239.606C150.704 239.606 150.782 239.624 150.848 239.66C150.914 239.696 150.971 239.747 151.019 239.813L151.667 240.623C151.421 240.911 151.145 241.154 150.839 241.352C150.533 241.544 150.212 241.7 149.876 241.82C149.546 241.934 149.207 242.015 148.859 242.063C148.517 242.111 148.184 242.135 147.86 242.135C147.218 242.135 146.621 242.03 146.069 241.82C145.517 241.604 145.037 241.289 144.629 240.875C144.221 240.455 143.9 239.939 143.666 239.327C143.432 238.709 143.315 237.995 143.315 237.185C143.315 236.555 143.417 235.964 143.621 235.412C143.825 234.854 144.116 234.371 144.494 233.963C144.878 233.549 145.343 233.222 145.889 232.982C146.441 232.742 147.062 232.622 147.752 232.622ZM147.797 234.215C147.149 234.215 146.642 234.398 146.276 234.764C145.91 235.13 145.676 235.649 145.574 236.321H149.75C149.75 236.033 149.711 235.763 149.633 235.511C149.555 235.253 149.435 235.028 149.273 234.836C149.111 234.644 148.907 234.494 148.661 234.386C148.415 234.272 148.127 234.215 147.797 234.215ZM152.426 232.766H154.19C154.358 232.766 154.499 232.805 154.613 232.883C154.727 232.961 154.799 233.06 154.829 233.18L156.152 238.112C156.224 238.382 156.281 238.646 156.323 238.904C156.371 239.162 156.416 239.42 156.458 239.678C156.524 239.42 156.593 239.162 156.665 238.904C156.743 238.646 156.824 238.382 156.908 238.112L158.438 233.162C158.474 233.042 158.546 232.943 158.654 232.865C158.762 232.787 158.888 232.748 159.032 232.748H160.013C160.175 232.748 160.31 232.787 160.418 232.865C160.526 232.943 160.598 233.042 160.634 233.162L162.146 238.202C162.224 238.46 162.293 238.712 162.353 238.958C162.419 239.198 162.482 239.441 162.542 239.687C162.584 239.429 162.629 239.171 162.677 238.913C162.731 238.655 162.797 238.388 162.875 238.112L164.243 233.18C164.273 233.06 164.345 232.961 164.459 232.883C164.573 232.805 164.705 232.766 164.855 232.766H166.538L163.613 242H161.822C161.63 242 161.492 241.868 161.408 241.604L159.743 236.267C159.689 236.093 159.638 235.919 159.59 235.745C159.548 235.565 159.512 235.388 159.482 235.214C159.446 235.394 159.407 235.574 159.365 235.754C159.323 235.928 159.275 236.105 159.221 236.285L157.538 241.604C157.454 241.868 157.292 242 157.052 242H155.351L152.426 232.766ZM175.086 232.622C175.668 232.622 176.202 232.715 176.688 232.901C177.18 233.087 177.603 233.36 177.957 233.72C178.311 234.074 178.587 234.512 178.785 235.034C178.983 235.55 179.082 236.141 179.082 236.807C179.082 236.975 179.073 237.116 179.055 237.23C179.043 237.338 179.016 237.425 178.974 237.491C178.938 237.551 178.887 237.596 178.821 237.626C178.755 237.65 178.671 237.662 178.569 237.662H172.863C172.929 238.61 173.184 239.306 173.628 239.75C174.072 240.194 174.66 240.416 175.392 240.416C175.752 240.416 176.061 240.374 176.319 240.29C176.583 240.206 176.811 240.113 177.003 240.011C177.201 239.909 177.372 239.816 177.516 239.732C177.666 239.648 177.81 239.606 177.948 239.606C178.038 239.606 178.116 239.624 178.182 239.66C178.248 239.696 178.305 239.747 178.353 239.813L179.001 240.623C178.755 240.911 178.479 241.154 178.173 241.352C177.867 241.544 177.546 241.7 177.21 241.82C176.88 241.934 176.541 242.015 176.193 242.063C175.851 242.111 175.518 242.135 175.194 242.135C174.552 242.135 173.955 242.03 173.403 241.82C172.851 241.604 172.371 241.289 171.963 240.875C171.555 240.455 171.234 239.939 171 239.327C170.766 238.709 170.649 237.995 170.649 237.185C170.649 236.555 170.751 235.964 170.955 235.412C171.159 234.854 171.45 234.371 171.828 233.963C172.212 233.549 172.677 233.222 173.223 232.982C173.775 232.742 174.396 232.622 175.086 232.622ZM175.131 234.215C174.483 234.215 173.976 234.398 173.61 234.764C173.244 235.13 173.01 235.649 172.908 236.321H177.084C177.084 236.033 177.045 235.763 176.967 235.511C176.889 235.253 176.769 235.028 176.607 234.836C176.445 234.644 176.241 234.494 175.995 234.386C175.749 234.272 175.461 234.215 175.131 234.215ZM182.527 237.239L179.494 232.766H181.636C181.798 232.766 181.918 232.79 181.996 232.838C182.074 232.88 182.143 232.952 182.203 233.054L184.138 236.141C184.168 236.039 184.204 235.937 184.246 235.835C184.294 235.733 184.351 235.631 184.417 235.529L185.974 233.099C186.046 232.985 186.121 232.901 186.199 232.847C186.277 232.793 186.373 232.766 186.487 232.766H188.53L185.488 237.14L188.656 242H186.514C186.352 242 186.22 241.958 186.118 241.874C186.022 241.79 185.941 241.694 185.875 241.586L183.913 238.373C183.859 238.589 183.784 238.769 183.688 238.913L181.96 241.586C181.894 241.688 181.813 241.784 181.717 241.874C181.621 241.958 181.501 242 181.357 242H179.368L182.527 237.239ZM192.428 232.766V242H190.205V232.766H192.428ZM192.761 230.075C192.761 230.267 192.722 230.447 192.644 230.615C192.566 230.783 192.461 230.93 192.329 231.056C192.203 231.182 192.053 231.284 191.879 231.362C191.705 231.434 191.519 231.47 191.321 231.47C191.129 231.47 190.946 231.434 190.772 231.362C190.604 231.284 190.457 231.182 190.331 231.056C190.205 230.93 190.103 230.783 190.025 230.615C189.953 230.447 189.917 230.267 189.917 230.075C189.917 229.877 189.953 229.691 190.025 229.517C190.103 229.343 190.205 229.193 190.331 229.067C190.457 228.941 190.604 228.842 190.772 228.77C190.946 228.692 191.129 228.653 191.321 228.653C191.519 228.653 191.705 228.692 191.879 228.77C192.053 228.842 192.203 228.941 192.329 229.067C192.461 229.193 192.566 229.343 192.644 229.517C192.722 229.691 192.761 229.877 192.761 230.075ZM200.429 234.566C200.369 234.662 200.306 234.731 200.24 234.773C200.174 234.809 200.09 234.827 199.988 234.827C199.88 234.827 199.763 234.797 199.637 234.737C199.517 234.677 199.376 234.611 199.214 234.539C199.052 234.461 198.866 234.392 198.656 234.332C198.452 234.272 198.209 234.242 197.927 234.242C197.489 234.242 197.144 234.335 196.892 234.521C196.64 234.707 196.514 234.95 196.514 235.25C196.514 235.448 196.577 235.616 196.703 235.754C196.835 235.886 197.006 236.003 197.216 236.105C197.432 236.207 197.675 236.3 197.945 236.384C198.215 236.462 198.491 236.549 198.773 236.645C199.055 236.741 199.331 236.852 199.601 236.978C199.871 237.098 200.111 237.254 200.321 237.446C200.537 237.632 200.708 237.857 200.834 238.121C200.966 238.385 201.032 238.703 201.032 239.075C201.032 239.519 200.951 239.93 200.789 240.308C200.627 240.68 200.39 241.004 200.078 241.28C199.766 241.55 199.379 241.763 198.917 241.919C198.461 242.069 197.936 242.144 197.342 242.144C197.024 242.144 196.712 242.114 196.406 242.054C196.106 242 195.815 241.922 195.533 241.82C195.257 241.718 194.999 241.598 194.759 241.46C194.525 241.322 194.318 241.172 194.138 241.01L194.651 240.164C194.717 240.062 194.795 239.984 194.885 239.93C194.975 239.876 195.089 239.849 195.227 239.849C195.365 239.849 195.494 239.888 195.614 239.966C195.74 240.044 195.884 240.128 196.046 240.218C196.208 240.308 196.397 240.392 196.613 240.47C196.835 240.548 197.114 240.587 197.45 240.587C197.714 240.587 197.939 240.557 198.125 240.497C198.317 240.431 198.473 240.347 198.593 240.245C198.719 240.143 198.809 240.026 198.863 239.894C198.923 239.756 198.953 239.615 198.953 239.471C198.953 239.255 198.887 239.078 198.755 238.94C198.629 238.802 198.458 238.682 198.242 238.58C198.032 238.478 197.789 238.388 197.513 238.31C197.243 238.226 196.964 238.136 196.676 238.04C196.394 237.944 196.115 237.833 195.839 237.707C195.569 237.575 195.326 237.41 195.11 237.212C194.9 237.014 194.729 236.771 194.597 236.483C194.471 236.195 194.408 235.847 194.408 235.439C194.408 235.061 194.483 234.701 194.633 234.359C194.783 234.017 195.002 233.72 195.29 233.468C195.584 233.21 195.947 233.006 196.379 232.856C196.817 232.7 197.321 232.622 197.891 232.622C198.527 232.622 199.106 232.727 199.628 232.937C200.15 233.147 200.585 233.423 200.933 233.765L200.429 234.566ZM205.838 242.144C205.04 242.144 204.425 241.919 203.993 241.469C203.561 241.013 203.345 240.386 203.345 239.588V234.431H202.409C202.289 234.431 202.184 234.392 202.094 234.314C202.01 234.236 201.968 234.119 201.968 233.963V233.081L203.453 232.838L203.921 230.318C203.945 230.198 203.999 230.105 204.083 230.039C204.173 229.973 204.284 229.94 204.416 229.94H205.568V232.847H207.998V234.431H205.568V239.435C205.568 239.723 205.64 239.948 205.784 240.11C205.928 240.272 206.12 240.353 206.36 240.353C206.498 240.353 206.612 240.338 206.702 240.308C206.798 240.272 206.879 240.236 206.945 240.2C207.017 240.164 207.08 240.131 207.134 240.101C207.188 240.065 207.242 240.047 207.296 240.047C207.362 240.047 207.416 240.065 207.458 240.101C207.5 240.131 207.545 240.179 207.593 240.245L208.259 241.325C207.935 241.595 207.563 241.799 207.143 241.937C206.723 242.075 206.288 242.144 205.838 242.144ZM212.133 232.766V242H209.91V232.766H212.133ZM212.466 230.075C212.466 230.267 212.427 230.447 212.349 230.615C212.271 230.783 212.166 230.93 212.034 231.056C211.908 231.182 211.758 231.284 211.584 231.362C211.41 231.434 211.224 231.47 211.026 231.47C210.834 231.47 210.651 231.434 210.477 231.362C210.309 231.284 210.162 231.182 210.036 231.056C209.91 230.93 209.808 230.783 209.73 230.615C209.658 230.447 209.622 230.267 209.622 230.075C209.622 229.877 209.658 229.691 209.73 229.517C209.808 229.343 209.91 229.193 210.036 229.067C210.162 228.941 210.309 228.842 210.477 228.77C210.651 228.692 210.834 228.653 211.026 228.653C211.224 228.653 211.41 228.692 211.584 228.77C211.758 228.842 211.908 228.941 212.034 229.067C212.166 229.193 212.271 229.343 212.349 229.517C212.427 229.691 212.466 229.877 212.466 230.075ZM214.653 242V232.766H216.012C216.3 232.766 216.489 232.901 216.579 233.171L216.732 233.9C216.918 233.708 217.113 233.534 217.317 233.378C217.527 233.222 217.746 233.087 217.974 232.973C218.208 232.859 218.457 232.772 218.721 232.712C218.985 232.652 219.273 232.622 219.585 232.622C220.089 232.622 220.536 232.709 220.926 232.883C221.316 233.051 221.64 233.291 221.898 233.603C222.162 233.909 222.36 234.278 222.492 234.71C222.63 235.136 222.699 235.607 222.699 236.123V242H220.476V236.123C220.476 235.559 220.344 235.124 220.08 234.818C219.822 234.506 219.432 234.35 218.91 234.35C218.526 234.35 218.166 234.437 217.83 234.611C217.494 234.785 217.176 235.022 216.876 235.322V242H214.653ZM228.078 232.604C228.474 232.604 228.846 232.646 229.194 232.73C229.542 232.808 229.86 232.925 230.148 233.081H232.803V233.909C232.803 234.047 232.767 234.155 232.695 234.233C232.623 234.311 232.5 234.365 232.326 234.395L231.498 234.548C231.558 234.704 231.603 234.869 231.633 235.043C231.669 235.217 231.687 235.4 231.687 235.592C231.687 236.048 231.594 236.462 231.408 236.834C231.228 237.2 230.976 237.512 230.652 237.77C230.334 238.028 229.953 238.229 229.509 238.373C229.071 238.511 228.594 238.58 228.078 238.58C227.73 238.58 227.391 238.547 227.061 238.481C226.773 238.655 226.629 238.85 226.629 239.066C226.629 239.252 226.713 239.39 226.881 239.48C227.055 239.564 227.28 239.624 227.556 239.66C227.838 239.696 228.156 239.72 228.51 239.732C228.864 239.738 229.227 239.756 229.599 239.786C229.971 239.816 230.334 239.87 230.688 239.948C231.042 240.02 231.357 240.137 231.633 240.299C231.915 240.461 232.14 240.683 232.308 240.965C232.482 241.241 232.569 241.598 232.569 242.036C232.569 242.444 232.467 242.84 232.263 243.224C232.065 243.608 231.774 243.95 231.39 244.25C231.012 244.55 230.547 244.79 229.995 244.97C229.443 245.156 228.813 245.249 228.105 245.249C227.403 245.249 226.794 245.18 226.278 245.042C225.762 244.91 225.333 244.73 224.991 244.502C224.655 244.28 224.403 244.022 224.235 243.728C224.067 243.434 223.983 243.128 223.983 242.81C223.983 242.378 224.115 242.015 224.379 241.721C224.643 241.427 225.009 241.193 225.477 241.019C225.249 240.893 225.066 240.725 224.928 240.515C224.79 240.305 224.721 240.032 224.721 239.696C224.721 239.558 224.745 239.417 224.793 239.273C224.841 239.123 224.913 238.976 225.009 238.832C225.111 238.688 225.237 238.553 225.387 238.427C225.537 238.295 225.714 238.178 225.918 238.076C225.45 237.824 225.081 237.488 224.811 237.068C224.547 236.648 224.415 236.156 224.415 235.592C224.415 235.136 224.505 234.725 224.685 234.359C224.871 233.987 225.126 233.672 225.45 233.414C225.78 233.15 226.167 232.949 226.611 232.811C227.061 232.673 227.55 232.604 228.078 232.604ZM230.517 242.414C230.517 242.234 230.463 242.087 230.355 241.973C230.247 241.859 230.1 241.772 229.914 241.712C229.728 241.646 229.509 241.598 229.257 241.568C229.011 241.538 228.747 241.517 228.465 241.505C228.189 241.487 227.901 241.472 227.601 241.46C227.307 241.442 227.022 241.415 226.746 241.379C226.494 241.517 226.29 241.682 226.134 241.874C225.984 242.06 225.909 242.276 225.909 242.522C225.909 242.684 225.948 242.834 226.026 242.972C226.11 243.116 226.239 243.239 226.413 243.341C226.593 243.443 226.824 243.521 227.106 243.575C227.388 243.635 227.733 243.665 228.141 243.665C228.555 243.665 228.912 243.632 229.212 243.566C229.512 243.506 229.758 243.419 229.95 243.305C230.148 243.197 230.292 243.065 230.382 242.909C230.472 242.759 230.517 242.594 230.517 242.414ZM228.078 237.158C228.354 237.158 228.594 237.122 228.798 237.05C229.002 236.972 229.17 236.867 229.302 236.735C229.44 236.603 229.542 236.444 229.608 236.258C229.68 236.072 229.716 235.868 229.716 235.646C229.716 235.19 229.578 234.83 229.302 234.566C229.032 234.296 228.624 234.161 228.078 234.161C227.532 234.161 227.121 234.296 226.845 234.566C226.575 234.83 226.44 235.19 226.44 235.646C226.44 235.862 226.473 236.063 226.539 236.249C226.611 236.435 226.713 236.597 226.845 236.735C226.983 236.867 227.154 236.972 227.358 237.05C227.568 237.122 227.808 237.158 228.078 237.158ZM240.713 242.144C239.915 242.144 239.3 241.919 238.868 241.469C238.436 241.013 238.22 240.386 238.22 239.588V234.431H237.284C237.164 234.431 237.059 234.392 236.969 234.314C236.885 234.236 236.843 234.119 236.843 233.963V233.081L238.328 232.838L238.796 230.318C238.82 230.198 238.874 230.105 238.958 230.039C239.048 229.973 239.159 229.94 239.291 229.94H240.443V232.847H242.873V234.431H240.443V239.435C240.443 239.723 240.515 239.948 240.659 240.11C240.803 240.272 240.995 240.353 241.235 240.353C241.373 240.353 241.487 240.338 241.577 240.308C241.673 240.272 241.754 240.236 241.82 240.2C241.892 240.164 241.955 240.131 242.009 240.101C242.063 240.065 242.117 240.047 242.171 240.047C242.237 240.047 242.291 240.065 242.333 240.101C242.375 240.131 242.42 240.179 242.468 240.245L243.134 241.325C242.81 241.595 242.438 241.799 242.018 241.937C241.598 242.075 241.163 242.144 240.713 242.144ZM248.457 232.622C249.039 232.622 249.573 232.715 250.059 232.901C250.551 233.087 250.974 233.36 251.328 233.72C251.682 234.074 251.958 234.512 252.156 235.034C252.354 235.55 252.453 236.141 252.453 236.807C252.453 236.975 252.444 237.116 252.426 237.23C252.414 237.338 252.387 237.425 252.345 237.491C252.309 237.551 252.258 237.596 252.192 237.626C252.126 237.65 252.042 237.662 251.94 237.662H246.234C246.3 238.61 246.555 239.306 246.999 239.75C247.443 240.194 248.031 240.416 248.763 240.416C249.123 240.416 249.432 240.374 249.69 240.29C249.954 240.206 250.182 240.113 250.374 240.011C250.572 239.909 250.743 239.816 250.887 239.732C251.037 239.648 251.181 239.606 251.319 239.606C251.409 239.606 251.487 239.624 251.553 239.66C251.619 239.696 251.676 239.747 251.724 239.813L252.372 240.623C252.126 240.911 251.85 241.154 251.544 241.352C251.238 241.544 250.917 241.7 250.581 241.82C250.251 241.934 249.912 242.015 249.564 242.063C249.222 242.111 248.889 242.135 248.565 242.135C247.923 242.135 247.326 242.03 246.774 241.82C246.222 241.604 245.742 241.289 245.334 240.875C244.926 240.455 244.605 239.939 244.371 239.327C244.137 238.709 244.02 237.995 244.02 237.185C244.02 236.555 244.122 235.964 244.326 235.412C244.53 234.854 244.821 234.371 245.199 233.963C245.583 233.549 246.048 233.222 246.594 232.982C247.146 232.742 247.767 232.622 248.457 232.622ZM248.502 234.215C247.854 234.215 247.347 234.398 246.981 234.764C246.615 235.13 246.381 235.649 246.279 236.321H250.455C250.455 236.033 250.416 235.763 250.338 235.511C250.26 235.253 250.14 235.028 249.978 234.836C249.816 234.644 249.612 234.494 249.366 234.386C249.12 234.272 248.832 234.215 248.502 234.215ZM254.256 242V232.766H255.615C255.903 232.766 256.092 232.901 256.182 233.171L256.326 233.855C256.488 233.675 256.656 233.51 256.83 233.36C257.01 233.21 257.199 233.081 257.397 232.973C257.601 232.865 257.817 232.781 258.045 232.721C258.279 232.655 258.534 232.622 258.81 232.622C259.392 232.622 259.869 232.781 260.241 233.099C260.619 233.411 260.901 233.828 261.087 234.35C261.231 234.044 261.411 233.783 261.627 233.567C261.843 233.345 262.08 233.165 262.338 233.027C262.596 232.889 262.869 232.787 263.157 232.721C263.451 232.655 263.745 232.622 264.039 232.622C264.549 232.622 265.002 232.7 265.398 232.856C265.794 233.012 266.127 233.24 266.397 233.54C266.667 233.84 266.871 234.206 267.009 234.638C267.153 235.07 267.225 235.565 267.225 236.123V242H265.002V236.123C265.002 235.535 264.873 235.094 264.615 234.8C264.357 234.5 263.979 234.35 263.481 234.35C263.253 234.35 263.04 234.389 262.842 234.467C262.65 234.545 262.479 234.659 262.329 234.809C262.185 234.953 262.071 235.136 261.987 235.358C261.903 235.58 261.861 235.835 261.861 236.123V242H259.629V236.123C259.629 235.505 259.503 235.055 259.251 234.773C259.005 234.491 258.639 234.35 258.153 234.35C257.835 234.35 257.535 234.431 257.253 234.593C256.977 234.749 256.719 234.965 256.479 235.241V242H254.256ZM269.409 245.015V232.766H270.768C270.912 232.766 271.035 232.799 271.137 232.865C271.239 232.931 271.305 233.033 271.335 233.171L271.515 234.026C271.887 233.6 272.313 233.255 272.793 232.991C273.279 232.727 273.846 232.595 274.494 232.595C274.998 232.595 275.457 232.7 275.871 232.91C276.291 233.12 276.651 233.426 276.951 233.828C277.257 234.224 277.491 234.716 277.653 235.304C277.821 235.886 277.905 236.555 277.905 237.311C277.905 238.001 277.812 238.64 277.626 239.228C277.44 239.816 277.173 240.326 276.825 240.758C276.483 241.19 276.066 241.529 275.574 241.775C275.088 242.015 274.542 242.135 273.936 242.135C273.414 242.135 272.97 242.057 272.604 241.901C272.244 241.739 271.92 241.517 271.632 241.235V245.015H269.409ZM273.729 234.35C273.267 234.35 272.871 234.449 272.541 234.647C272.217 234.839 271.914 235.112 271.632 235.466V239.606C271.884 239.918 272.157 240.137 272.451 240.263C272.751 240.383 273.072 240.443 273.414 240.443C273.75 240.443 274.053 240.38 274.323 240.254C274.599 240.128 274.83 239.936 275.016 239.678C275.208 239.42 275.355 239.096 275.457 238.706C275.559 238.31 275.61 237.845 275.61 237.311C275.61 236.771 275.565 236.315 275.475 235.943C275.391 235.565 275.268 235.259 275.106 235.025C274.944 234.791 274.746 234.62 274.512 234.512C274.284 234.404 274.023 234.35 273.729 234.35ZM281.953 228.626V242H279.73V228.626H281.953ZM291.709 242H290.71C290.5 242 290.335 241.97 290.215 241.91C290.095 241.844 290.005 241.715 289.945 241.523L289.747 240.866C289.513 241.076 289.282 241.262 289.054 241.424C288.832 241.58 288.601 241.712 288.361 241.82C288.121 241.928 287.866 242.009 287.596 242.063C287.326 242.117 287.026 242.144 286.696 242.144C286.306 242.144 285.946 242.093 285.616 241.991C285.286 241.883 285.001 241.724 284.761 241.514C284.527 241.304 284.344 241.043 284.212 240.731C284.08 240.419 284.014 240.056 284.014 239.642C284.014 239.294 284.104 238.952 284.284 238.616C284.47 238.274 284.776 237.968 285.202 237.698C285.628 237.422 286.195 237.194 286.903 237.014C287.611 236.834 288.49 236.732 289.54 236.708V236.168C289.54 235.55 289.408 235.094 289.144 234.8C288.886 234.5 288.508 234.35 288.01 234.35C287.65 234.35 287.35 234.392 287.11 234.476C286.87 234.56 286.66 234.656 286.48 234.764C286.306 234.866 286.144 234.959 285.994 235.043C285.844 235.127 285.679 235.169 285.499 235.169C285.349 235.169 285.22 235.13 285.112 235.052C285.004 234.974 284.917 234.878 284.851 234.764L284.446 234.053C285.508 233.081 286.789 232.595 288.289 232.595C288.829 232.595 289.309 232.685 289.729 232.865C290.155 233.039 290.515 233.285 290.809 233.603C291.103 233.915 291.325 234.29 291.475 234.728C291.631 235.166 291.709 235.646 291.709 236.168V242ZM287.389 240.614C287.617 240.614 287.827 240.593 288.019 240.551C288.211 240.509 288.391 240.446 288.559 240.362C288.733 240.278 288.898 240.176 289.054 240.056C289.216 239.93 289.378 239.783 289.54 239.615V238.058C288.892 238.088 288.349 238.145 287.911 238.229C287.479 238.307 287.131 238.409 286.867 238.535C286.603 238.661 286.414 238.808 286.3 238.976C286.192 239.144 286.138 239.327 286.138 239.525C286.138 239.915 286.252 240.194 286.48 240.362C286.714 240.53 287.017 240.614 287.389 240.614ZM296.928 242.144C296.13 242.144 295.515 241.919 295.083 241.469C294.651 241.013 294.435 240.386 294.435 239.588V234.431H293.499C293.379 234.431 293.274 234.392 293.184 234.314C293.1 234.236 293.058 234.119 293.058 233.963V233.081L294.543 232.838L295.011 230.318C295.035 230.198 295.089 230.105 295.173 230.039C295.263 229.973 295.374 229.94 295.506 229.94H296.658V232.847H299.088V234.431H296.658V239.435C296.658 239.723 296.73 239.948 296.874 240.11C297.018 240.272 297.21 240.353 297.45 240.353C297.588 240.353 297.702 240.338 297.792 240.308C297.888 240.272 297.969 240.236 298.035 240.2C298.107 240.164 298.17 240.131 298.224 240.101C298.278 240.065 298.332 240.047 298.386 240.047C298.452 240.047 298.506 240.065 298.548 240.101C298.59 240.131 298.635 240.179 298.683 240.245L299.349 241.325C299.025 241.595 298.653 241.799 298.233 241.937C297.813 242.075 297.378 242.144 296.928 242.144ZM304.672 232.622C305.254 232.622 305.788 232.715 306.274 232.901C306.766 233.087 307.189 233.36 307.543 233.72C307.897 234.074 308.173 234.512 308.371 235.034C308.569 235.55 308.668 236.141 308.668 236.807C308.668 236.975 308.659 237.116 308.641 237.23C308.629 237.338 308.602 237.425 308.56 237.491C308.524 237.551 308.473 237.596 308.407 237.626C308.341 237.65 308.257 237.662 308.155 237.662H302.449C302.515 238.61 302.77 239.306 303.214 239.75C303.658 240.194 304.246 240.416 304.978 240.416C305.338 240.416 305.647 240.374 305.905 240.29C306.169 240.206 306.397 240.113 306.589 240.011C306.787 239.909 306.958 239.816 307.102 239.732C307.252 239.648 307.396 239.606 307.534 239.606C307.624 239.606 307.702 239.624 307.768 239.66C307.834 239.696 307.891 239.747 307.939 239.813L308.587 240.623C308.341 240.911 308.065 241.154 307.759 241.352C307.453 241.544 307.132 241.7 306.796 241.82C306.466 241.934 306.127 242.015 305.779 242.063C305.437 242.111 305.104 242.135 304.78 242.135C304.138 242.135 303.541 242.03 302.989 241.82C302.437 241.604 301.957 241.289 301.549 240.875C301.141 240.455 300.82 239.939 300.586 239.327C300.352 238.709 300.235 237.995 300.235 237.185C300.235 236.555 300.337 235.964 300.541 235.412C300.745 234.854 301.036 234.371 301.414 233.963C301.798 233.549 302.263 233.222 302.809 232.982C303.361 232.742 303.982 232.622 304.672 232.622ZM304.717 234.215C304.069 234.215 303.562 234.398 303.196 234.764C302.83 235.13 302.596 235.649 302.494 236.321H306.67C306.67 236.033 306.631 235.763 306.553 235.511C306.475 235.253 306.355 235.028 306.193 234.836C306.031 234.644 305.827 234.494 305.581 234.386C305.335 234.272 305.047 234.215 304.717 234.215Z" fill="#181818"/>
<defs>
<clipPath id="clip0_102_3614">
<rect width="156" height="156" fill="white" transform="translate(112 35)"/>
</clipPath>
</defs>
</svg>
