<svg width="40" height="40" viewBox="0 0 40 40" fill="none" xmlns="http://www.w3.org/2000/svg">
<circle cx="20" cy="20" r="20" fill="url(#paint0_linear_5174_14868)"/>
<path d="M28.5 18.8747L31 11.3747C31 11.3747 27.0458 11.8559 24.5 11.8747C20.5754 11.9037 17.4237 10.2838 13.5 10.375C11.3438 10.4251 9 11.3747 9 11.3747V13.3747C9 13.3747 10.2008 12.9716 11 12.8747C11.7754 12.7807 13 12.8747 13 12.8747V22.875C13 22.875 11.7754 22.7807 11 22.8747C10.2008 22.9716 9 23.3747 9 23.3747V25.3748C9 25.3748 11.1491 24.4183 13.5 24.3748C17.6184 24.2987 22.8824 25.9858 27 25.8748C29.156 25.8167 31 25.3748 31 25.3748L28.5 18.8747Z" fill="white"/>
<path d="M10 26.3752L12 25.8752V31.8752L10 32.3752V26.3752Z" fill="white"/>
<path d="M10 13.8751H12V21.3751L10 21.8751V13.8751Z" fill="white"/>
<path d="M10 8.37505C11 7.875 11 7.875 12 8.37505V9.37505L10 9.87505V8.37505Z" fill="white"/>
<defs>
<linearGradient id="paint0_linear_5174_14868" x1="20" y1="0" x2="20" y2="40" gradientUnits="userSpaceOnUse">
<stop stop-color="#FFC20A"/>
<stop offset="1" stop-color="#FF8D0A"/>
</linearGradient>
</defs>
</svg>
