<svg width="40" height="40" viewBox="0 0 40 40" fill="none" xmlns="http://www.w3.org/2000/svg">
<rect width="40" height="40" rx="20" fill="#0062E0"/>
<g clip-path="url(#clip0_7477_25923)">
<path d="M30.5 9.49968C30.5 8.89499 30.1344 8.34655 29.5719 8.11218C29.0094 7.8778 28.3672 8.00905 27.9359 8.43562L25.8922 10.4841C23.6422 12.7341 20.5906 13.9997 17.4078 13.9997H17H15.5H11C9.34531 13.9997 8 15.345 8 16.9997V21.4997C8 23.1544 9.34531 24.4997 11 24.4997V30.4997C11 31.3294 11.6703 31.9997 12.5 31.9997H15.5C16.3297 31.9997 17 31.3294 17 30.4997V24.4997H17.4078C20.5906 24.4997 23.6422 25.7653 25.8922 28.0153L27.9359 30.0591C28.3672 30.4903 29.0094 30.6169 29.5719 30.3825C30.1344 30.1481 30.5 29.6044 30.5 28.995V22.0809C31.3719 21.6684 32 20.5575 32 19.2497C32 17.9419 31.3719 16.8309 30.5 16.4184V9.49968ZM27.5 13.095V19.2497V25.4044C24.7437 22.8966 21.1484 21.4997 17.4078 21.4997H17V16.9997H17.4078C21.1484 16.9997 24.7437 15.6028 27.5 13.095Z" fill="white"/>
</g>
<defs>
<clipPath id="clip0_7477_25923">
<rect width="24" height="24" fill="white" transform="translate(8 8)"/>
</clipPath>
</defs>
</svg>
