<svg width="40" height="40" viewBox="0 0 40 40" fill="none" xmlns="http://www.w3.org/2000/svg">
<circle cx="20" cy="20" r="20" fill="url(#paint0_linear_5174_14878)"/>
<path d="M19.2677 11.0886C21.1378 10.6536 22.1681 11.8864 22.762 13.3501C23.2538 14.5693 23.2958 15.802 22.9704 17.0768C22.8459 17.5567 22.693 18.104 23.2164 18.506C23.3318 18.5959 23.2913 18.7114 23.1369 18.7504C22.9089 18.8074 22.684 18.8809 22.453 18.9199C22.1441 18.9724 22.0181 19.0713 22.3525 19.3518C21.9311 19.4613 21.5667 19.4013 21.1783 19.2768C21.2233 19.6217 21.2623 19.9337 21.3043 20.2426C21.4437 21.2444 22.1981 21.5593 23.0049 21.8232C23.4758 21.9762 23.9497 22.1352 24.4086 22.3226C25.4089 22.732 25.9173 23.5719 26.1737 24.5767C26.3987 25.433 26.5171 26.3163 26.5231 27.2011C26.5231 28.4368 25.8378 28.8507 24.938 28.8882C21.3313 29.0352 17.7245 29.0352 14.1178 28.8882C13.458 28.8612 12.8506 28.6813 12.5342 27.9689C12.4052 27.681 12.4247 27.3916 12.4697 27.1321C12.6406 26.1558 12.7396 25.1615 13.0605 24.2152C13.392 23.2314 13.9708 22.5386 15.0056 22.2627C15.6355 22.0947 16.2369 21.8067 16.8532 21.5773C17.6136 21.2939 17.84 20.6445 17.921 19.9202C17.942 19.7282 18.056 19.4718 17.963 19.3503C17.84 19.2003 17.6031 19.4193 17.4036 19.3803C17.2386 19.3458 17.0632 19.4133 16.9012 19.3503C16.8667 19.2408 16.9702 19.2573 17.0002 19.2123C17.0497 19.1373 17.1967 19.1043 17.1382 18.9799C17.0947 18.8884 16.9807 18.9199 16.8982 18.9274C16.6133 18.9514 16.3508 18.7654 16.0539 18.8374C16.0051 18.8417 15.9564 18.829 15.9159 18.8014C15.875 18.7732 15.8448 18.732 15.8304 18.6844C15.8124 18.6139 15.7945 18.533 15.9054 18.467C16.3943 18.1835 16.3538 17.7186 16.2219 17.2762C15.6775 15.4046 16.0569 13.6965 17.1022 12.1188C17.4921 11.531 18.065 11.2175 18.8043 11.39C19.0458 11.525 19.0787 11.276 19.1897 11.1725L19.2587 11.0886H19.2677Z" fill="#FEFEFE"/>
<path d="M29.2106 27.4664C28.7907 27.4754 28.3708 27.3839 27.9569 27.5159C27.8909 27.5369 27.7724 27.5309 27.8069 27.4214C27.9824 26.9025 27.7739 26.4046 27.699 25.9127C27.528 24.77 27.339 23.6182 26.6852 22.6194C26.5517 22.417 26.2683 22.2715 26.2563 22.0705C26.2413 21.8051 26.6447 21.8711 26.7842 21.6731C26.8426 21.5921 26.9491 21.5352 26.9791 21.4452C27.1951 20.7898 27.477 20.136 27.0961 19.4431C27.0535 19.3648 27.0255 19.2795 27.0136 19.1912C26.9386 18.6423 26.5292 18.2539 26.3567 17.75C26.2683 17.4935 26.2923 17.2326 26.2578 16.9746C26.2473 16.8997 26.2923 16.7647 26.3477 16.7392C26.7137 16.5787 26.5907 16.2743 26.5667 16.0103C26.4992 15.406 26.5067 14.7956 26.5892 14.1912C26.6642 13.7038 26.8441 13.3409 27.36 13.2014C27.8099 13.0785 28.1669 12.7111 28.6617 12.6736C29.4521 12.6121 30.1914 12.7335 30.8618 13.1835C30.8665 13.1851 30.8715 13.1858 30.8765 13.1854C30.8815 13.1851 30.8864 13.1838 30.8908 13.1816C30.8953 13.1793 30.8993 13.1762 30.9025 13.1724C30.9058 13.1686 30.9082 13.1642 30.9098 13.1595C30.8948 13.2239 30.9173 13.2464 30.9803 13.2314L30.9848 13.2374C30.9698 13.3019 30.9952 13.3244 31.0597 13.3064L31.0507 13.3214C31.0282 13.4054 31.0852 13.4294 31.1452 13.4489L31.1407 13.4594C31.3957 13.8403 31.5936 14.2437 31.6506 14.7041C31.6806 14.9246 31.7181 15.139 31.5246 15.34C31.3297 15.5409 31.4437 15.8259 31.4137 16.0703C31.3867 16.2923 31.2397 16.5667 31.5636 16.7257C31.6221 16.7557 31.6686 16.8847 31.6611 16.9611C31.6131 17.4485 31.6911 17.9809 31.2472 18.3453C31.1632 18.4128 31.1527 18.5178 31.1272 18.6153C31.0612 18.8447 31.0252 19.0922 30.9128 19.2961C30.6128 19.8285 30.7838 20.3309 30.8843 20.8828C31.0057 21.5547 31.4257 21.8021 31.9325 22.0645C32.7709 22.5009 33.6812 22.7844 34.4685 23.3288C35.1374 23.7922 35.4658 24.431 35.4838 25.2454C35.4898 25.5123 35.4733 25.7792 35.4898 26.0447C35.5528 27.1095 34.9889 27.3389 34.1701 27.4469C34.0351 27.4634 33.8971 27.4589 33.7607 27.4649H29.2106V27.4664Z" fill="#FEFEFE"/>
<path d="M7.73003 17.0978C7.874 16.8353 7.95948 16.5639 7.88449 16.2594C7.862 15.4706 7.868 14.6893 8.36889 14.0189L8.39588 14.0234C9.37817 12.9422 10.5704 12.9886 11.6592 13.542C12.4885 13.9634 12.7464 14.7508 12.8124 15.6191C12.8529 15.9985 12.8379 16.3809 12.7674 16.7558C12.7359 16.8968 12.6835 17.0663 12.9174 17.1128C13.0194 17.1323 13.0449 17.2207 13.0464 17.3167C13.0554 17.8161 13.0119 18.2945 12.661 18.6979C12.391 19.0098 12.4765 19.4747 12.2441 19.8122C12.2201 19.8467 12.2441 19.9262 12.2171 19.9411C11.5782 20.3281 11.9291 20.9009 11.9561 21.4048C11.9741 21.7378 12.1646 21.9957 12.439 22.1787C12.604 22.2896 12.6385 22.3796 12.5035 22.5686C12.0806 23.1655 11.9666 23.8808 11.7612 24.5677C11.4912 25.4675 11.3742 26.3823 11.2633 27.3016C11.2333 27.5355 11.0623 27.4485 10.9483 27.4485C9.7276 27.456 8.50686 27.4485 7.28162 27.453C6.68775 27.453 6.09238 27.423 5.503 27.5295C5.12059 27.6 4.81165 27.4065 4.50272 27.2461C4.36048 27.1727 4.24036 27.0627 4.1547 26.9275C4.06904 26.7923 4.02094 26.6367 4.01532 26.4767C3.93434 25.2875 4.1458 24.3502 5.34254 23.7233C6.18236 23.2839 7.02368 22.8505 7.859 22.4036C8.21892 22.2102 8.50386 21.9012 8.67332 21.5248C8.84279 21.1499 8.88328 20.7255 8.7918 20.3221C8.74981 20.1511 8.58334 20.0131 8.50086 19.8467C8.40522 19.669 8.33217 19.4801 8.28341 19.2843C8.22492 19.0068 8.09595 18.7879 7.94898 18.5479C7.68504 18.1175 7.50807 17.6301 7.73003 17.0978Z" fill="#FEFEFE"/>
<defs>
<linearGradient id="paint0_linear_5174_14878" x1="20" y1="0" x2="20" y2="40" gradientUnits="userSpaceOnUse">
<stop stop-color="#3884FE"/>
<stop offset="1" stop-color="#3884FE"/>
</linearGradient>
</defs>
</svg>
