<svg width="20" height="17" viewBox="0 0 20 17" fill="none" xmlns="http://www.w3.org/2000/svg">
<path fill-rule="evenodd" clip-rule="evenodd" d="M10.0081 2.25629L9.5015 1.66422C7.46296 -0.374316 4.21201 -0.2354 2.17347 1.80314C0.134936 3.84167 0.527258 7.78284 2.56579 9.82137C3.39315 10.6487 4.63217 11.7943 6.28285 13.258L7.67155 14.4797L9.23129 15.8336C9.66075 16.2043 10.2953 16.2099 10.7313 15.847L11.9948 14.7876C14.2076 12.9176 15.8496 11.4447 16.9209 10.3688L17.1989 10.0852L17.4486 9.82137C19.3471 7.77404 19.835 3.79427 17.8439 1.80314L17.6996 1.66422C15.6523 -0.234297 12.5651 -0.326908 10.5739 1.66422L10.0081 2.25629ZM2.99372 2.62338C4.60567 1.01142 7.09946 0.93585 8.65128 2.45481L9.96054 3.98498L11.4125 2.46568C12.9019 0.976762 15.2755 0.998286 16.9109 2.5148L17.0392 2.63867C18.4462 4.04598 18.2069 7.29765 16.598 9.03262L16.3563 9.28792L16.0882 9.56127C15.2001 10.4525 13.884 11.6466 12.1487 13.1337L11.2461 13.9016L9.98921 14.9554L8.43194 13.6037L7.3174 12.6246C5.74691 11.2366 4.53537 10.1264 3.6871 9.2984L3.38604 9.00113C1.70671 7.3218 1.49667 4.12042 2.99372 2.62338Z" fill="#262626"/>
</svg>
