<svg width="40" height="40" viewBox="0 0 40 40" fill="none" xmlns="http://www.w3.org/2000/svg">
<g clip-path="url(#clip0_5174_14857)">
<path d="M20.0103 0C11.6589 0 9.21644 0.00861538 8.74168 0.048C7.02783 0.190462 5.96137 0.460308 4.79952 1.03877C3.90414 1.48338 3.19798 1.99877 2.50106 2.72123C1.23183 4.03877 0.462598 5.65969 0.184137 7.58646C0.0487521 8.52185 0.00936752 8.71262 0.00136752 13.4905C-0.0017094 15.0831 0.00136752 17.1791 0.00136752 19.9905C0.00136752 28.3351 0.0105983 30.7751 0.0505983 31.2489C0.18906 32.9166 0.450598 33.9658 1.00444 35.1135C2.06291 37.3105 4.08444 38.9597 6.46598 39.5751C7.2906 39.7874 8.20137 39.9043 9.3706 39.9597C9.86598 39.9812 14.9152 39.9966 19.9675 39.9966C25.0198 39.9966 30.0721 39.9905 30.5552 39.9659C31.9091 39.9022 32.6952 39.7966 33.5644 39.572C35.9614 38.9535 37.946 37.3289 39.026 35.1012C39.5691 33.9812 39.8444 32.892 39.9691 31.3114C39.9961 30.9668 40.0075 25.4723 40.0075 19.9852C40.0075 14.4972 39.9952 9.01292 39.9681 8.66831C39.842 7.06215 39.5666 5.98215 39.006 4.84062C38.546 3.90615 38.0352 3.20831 37.2937 2.49477C35.9703 1.23077 34.3518 0.461538 32.4232 0.183385C31.4888 0.0483077 31.3026 0.00830769 26.5211 0H20.0103Z" fill="url(#paint0_radial_5174_14857)"/>
<path d="M20.0103 0C11.6589 0 9.21644 0.00861538 8.74168 0.048C7.02783 0.190462 5.96137 0.460308 4.79952 1.03877C3.90414 1.48338 3.19798 1.99877 2.50106 2.72123C1.23183 4.03877 0.462598 5.65969 0.184137 7.58646C0.0487521 8.52185 0.00936752 8.71262 0.00136752 13.4905C-0.0017094 15.0831 0.00136752 17.1791 0.00136752 19.9905C0.00136752 28.3351 0.0105983 30.7751 0.0505983 31.2489C0.18906 32.9166 0.450598 33.9658 1.00444 35.1135C2.06291 37.3105 4.08444 38.9597 6.46598 39.5751C7.2906 39.7874 8.20137 39.9043 9.3706 39.9597C9.86598 39.9812 14.9152 39.9966 19.9675 39.9966C25.0198 39.9966 30.0721 39.9905 30.5552 39.9659C31.9091 39.9022 32.6952 39.7966 33.5644 39.572C35.9614 38.9535 37.946 37.3289 39.026 35.1012C39.5691 33.9812 39.8444 32.892 39.9691 31.3114C39.9961 30.9668 40.0075 25.4723 40.0075 19.9852C40.0075 14.4972 39.9952 9.01292 39.9681 8.66831C39.842 7.06215 39.5666 5.98215 39.006 4.84062C38.546 3.90615 38.0352 3.20831 37.2937 2.49477C35.9703 1.23077 34.3518 0.461538 32.4232 0.183385C31.4888 0.0483077 31.3026 0.00830769 26.5211 0H20.0103Z" fill="#D1006E"/>
<path d="M20.0009 5.23096C15.9899 5.23096 15.4865 5.2485 13.9111 5.32019C12.3388 5.39219 11.2655 5.64111 10.3265 6.00634C9.35508 6.38357 8.53108 6.88819 7.71016 7.70942C6.88862 8.53034 6.38401 9.35434 6.00555 10.3254C5.63939 11.2648 5.39016 12.3383 5.31939 13.91C5.24893 15.4854 5.23047 15.9891 5.23047 20.0002C5.23047 24.0113 5.24831 24.5131 5.3197 26.0885C5.39201 27.6608 5.64093 28.734 6.00585 29.6731C6.38339 30.6445 6.88801 31.4685 7.70924 32.2894C8.52985 33.111 9.35385 33.6168 10.3246 33.994C11.2643 34.3593 12.3379 34.6082 13.9099 34.6802C15.4852 34.7519 15.9883 34.7694 19.9991 34.7694C24.0105 34.7694 24.5123 34.7519 26.0877 34.6802C27.66 34.6082 28.7345 34.3593 29.6742 33.994C30.6452 33.6168 31.468 33.111 32.2886 32.2894C33.1102 31.4685 33.6148 30.6445 33.9932 29.6734C34.3563 28.734 34.6055 27.6605 34.6794 26.0888C34.7502 24.5134 34.7686 24.0113 34.7686 20.0002C34.7686 15.9891 34.7502 15.4857 34.6794 13.9103C34.6055 12.338 34.3563 11.2648 33.9932 10.3257C33.6148 9.35434 33.1102 8.53034 32.2886 7.70942C31.4671 6.88788 30.6455 6.38326 29.6732 6.00634C28.7317 5.64111 27.6579 5.39219 26.0855 5.32019C24.5102 5.2485 24.0086 5.23096 19.9963 5.23096H20.0009ZM18.676 7.8925C19.0692 7.89188 19.508 7.8925 20.0009 7.8925C23.9443 7.8925 24.4117 7.90665 25.9689 7.97742C27.4089 8.04327 28.1905 8.28388 28.7111 8.48603C29.4003 8.75373 29.8917 9.07373 30.4083 9.59065C30.9252 10.1076 31.2452 10.5999 31.5135 11.2891C31.7157 11.8091 31.9566 12.5906 32.0222 14.0306C32.0929 15.5876 32.1083 16.0553 32.1083 19.9968C32.1083 23.9383 32.0929 24.406 32.0222 25.963C31.9563 27.403 31.7157 28.1845 31.5135 28.7045C31.2459 29.3937 30.9252 29.8845 30.4083 30.4011C29.8914 30.918 29.4006 31.238 28.7111 31.5057C28.1911 31.7088 27.4089 31.9488 25.9689 32.0147C24.412 32.0854 23.9443 32.1008 20.0009 32.1008C16.0572 32.1008 15.5899 32.0854 14.0329 32.0147C12.5929 31.9482 11.8114 31.7076 11.2905 31.5054C10.6012 31.2377 10.1089 30.9177 9.59201 30.4008C9.07508 29.8839 8.75508 29.3928 8.48678 28.7033C8.28462 28.1833 8.0437 27.4017 7.97816 25.9617C7.90739 24.4048 7.89324 23.9371 7.89324 19.9931C7.89324 16.0491 7.90739 15.5839 7.97816 14.027C8.04401 12.587 8.28462 11.8054 8.48678 11.2848C8.75447 10.5956 9.07508 10.1033 9.59201 9.58634C10.1089 9.06942 10.6012 8.74942 11.2905 8.48111C11.8111 8.27803 12.5929 8.03803 14.0329 7.97188C15.3954 7.91034 15.9234 7.89188 18.676 7.8888V7.8925ZM27.8846 10.3448C26.9062 10.3448 26.1123 11.1377 26.1123 12.1165C26.1123 13.095 26.9062 13.8888 27.8846 13.8888C28.8631 13.8888 29.6569 13.095 29.6569 12.1165C29.6569 11.138 28.8631 10.3442 27.8846 10.3442V10.3448ZM20.0009 12.4156C15.8123 12.4156 12.4163 15.8116 12.4163 20.0002C12.4163 24.1888 15.8123 27.5833 20.0009 27.5833C24.1895 27.5833 27.5843 24.1888 27.5843 20.0002C27.5843 15.8116 24.1892 12.4156 20.0006 12.4156H20.0009ZM20.0009 15.0771C22.7197 15.0771 24.924 17.2811 24.924 20.0002C24.924 22.719 22.7197 24.9233 20.0009 24.9233C17.2819 24.9233 15.0779 22.719 15.0779 20.0002C15.0779 17.2811 17.2819 15.0771 20.0009 15.0771Z" fill="white"/>
</g>
<defs>
<radialGradient id="paint0_radial_5174_14857" cx="0" cy="0" r="1" gradientUnits="userSpaceOnUse" gradientTransform="translate(10.626 43.0772) rotate(-90) scale(39.6396 36.878)">
<stop stop-color="#FFDD55"/>
<stop offset="0.1" stop-color="#FFDD55"/>
<stop offset="0.5" stop-color="#FF543E"/>
<stop offset="1" stop-color="#C837AB"/>
</radialGradient>
<clipPath id="clip0_5174_14857">
<rect width="40" height="40" rx="20" fill="white"/>
</clipPath>
</defs>
</svg>
