<svg width="160" height="136" viewBox="0 0 160 136" fill="none" xmlns="http://www.w3.org/2000/svg">
<path d="M159.606 36.5753L159.313 36.1444L149.328 26.0195C148.738 25.1622 149.125 23.9085 150.203 23.5923C151.718 23.1445 153.157 22.3519 154.395 21.2092C158.558 17.3445 158.744 10.9854 154.769 7.12574C150.98 3.08337 144.45 2.98091 140.292 6.85754C139.064 8.00407 138.186 9.36913 137.662 10.8237C137.287 11.8554 135.984 12.1759 135.133 11.5657L125.182 1.40237L124.751 1.0998C124.124 0.51519 123.118 0.519493 122.467 1.12965L110.927 11.9024C110.211 11.9488 109.506 11.5614 109.287 10.8187C108.306 7.51857 105.485 4.66907 100.701 3.76899C100.211 3.67513 99.6891 3.67085 99.1939 3.75635C89.3966 5.43304 86.8739 15.3449 92.1391 20.7229C93.254 21.8614 94.5944 22.6673 96.0339 23.1402C96.8101 23.3964 97.1548 24.164 97.0157 24.8854L85.4091 35.7222C84.7345 36.35 84.7006 37.3683 85.3249 37.9957L95.8209 48.6453L96.0076 48.7862L96.0702 48.8502C96.9605 49.7584 98.5168 49.2767 98.8427 48.0308C99.8047 44.4321 102.862 41.2204 107.965 40.2427C108.92 40.1751 109.88 40.235 110.814 40.427C112.962 40.998 114.667 41.9958 115.937 43.2538C117.17 44.547 118.12 46.2485 118.605 48.3639C118.765 49.2767 118.786 50.2109 118.673 51.1401C117.435 56.058 114.001 58.8855 110.264 59.653C108.973 59.9215 108.408 61.4105 109.301 62.3146L109.364 62.3779L109.502 62.5701L119.957 73.2498C120.578 73.8855 121.626 73.8939 122.297 73.271L133.941 62.4677C134.69 62.3657 135.462 62.7409 135.691 63.5044C136.116 64.9289 136.88 66.2684 138 67.4025C143.285 72.7633 153.566 70.7547 155.731 61.3078C155.841 60.8256 155.861 60.3186 155.784 59.841C155.075 55.1488 152.274 52.2745 148.936 51.1743C148.185 50.9266 147.81 50.2231 147.898 49.5324L159.472 38.7967C160.125 38.1915 160.173 37.2153 159.606 36.5753Z" fill="#4AACEA"/>
<path d="M106.561 135.569H106.649L106.888 135.603L122.045 135.667C122.948 135.671 123.678 134.938 123.683 134.038L123.748 118.381C124.191 117.789 124.999 117.502 125.727 117.874C127.075 118.56 128.598 118.952 130.213 118.952C137.846 118.962 143.483 110.354 137.981 102.285C137.702 101.88 137.339 101.512 136.932 101.232C132.962 98.4804 128.899 98.4549 125.768 100.037C125.062 100.391 124.285 100.161 123.832 99.6241L123.896 84.065C123.902 83.1908 123.211 82.4743 122.345 82.4359L121.819 82.3377L107.399 82.3294C106.358 82.1498 105.694 81.0114 106.21 80.0344C106.923 78.6614 107.336 77.1008 107.344 75.4454C107.369 69.8455 102.785 65.3083 97.1701 65.4232C91.5485 65.278 86.9465 69.7941 86.9404 75.3948C86.9441 77.0533 87.3401 78.6147 88.0601 79.9919C88.5657 80.9684 87.8957 82.107 86.8525 82.2828L72.4268 82.2188L71.9063 82.3119C71.2869 82.3377 70.7667 82.7174 70.5107 83.2505C70.5986 83.4933 70.6538 83.7582 70.6538 84.0316L70.6263 100.097L69.7222 99.9224C69.3119 100.097 68.843 100.127 68.3954 99.8968L68.1159 99.7772C67.6292 99.7815 67.1289 99.8154 66.6123 99.8882L66.4808 99.9052L66.3487 99.8837C65.7784 99.7815 65.2705 99.6917 64.7814 99.6917C60.1556 99.7003 56.3259 103.176 55.7465 107.693C55.6952 108.081 55.6602 108.473 55.6602 108.879C55.6602 110.499 56.1065 112.231 57.0685 113.984C57.2751 114.363 57.4822 114.747 57.7416 115.131C57.9649 115.455 58.2582 115.75 58.5831 115.971C60.7075 117.434 62.7927 118.023 64.7338 118.027C65.253 118.023 65.762 117.981 66.2611 117.903L66.3929 117.878L66.5245 117.899C66.9458 117.967 67.2744 118.031 67.5792 118.066C67.8349 117.963 68.0933 117.861 68.3416 117.733C68.867 117.469 69.4336 117.554 69.8712 117.839L70.5936 117.699L70.5671 134.008C70.5671 134.217 70.5296 134.422 70.4808 134.618C70.7453 135.159 71.2869 135.543 71.9316 135.543L87.092 135.552L87.324 135.522H87.4155C88.7073 135.526 89.4246 134.102 88.7284 133.006C86.7284 129.841 86.4702 125.474 89.2827 121.213C89.8935 120.492 90.6017 119.865 91.3905 119.34C93.3016 118.227 95.2238 117.724 97.0371 117.704C98.8479 117.733 100.764 118.249 102.67 119.367C103.454 119.895 104.162 120.526 104.771 121.251C107.562 125.524 107.273 129.892 105.255 133.048C104.562 134.14 105.271 135.569 106.561 135.569Z" fill="#4D4D4D" fill-opacity="0.2"/>
<path d="M52.9283 80.2853L52.8944 80.3706L52.8795 80.4011L52.7928 80.7374C52.7892 81.0918 53.0849 81.45 53.45 81.5264L67.7653 81.5011C67.9707 81.5011 68.1428 81.5567 68.3221 81.5992V81.5952C68.8247 81.6167 69.2851 81.7874 69.6625 82.0645L69.7541 81.625L69.8193 65.9686C70.263 65.3756 71.0721 65.0943 71.798 65.4611C73.1435 66.1474 74.6659 66.5396 76.2834 66.5396C83.9202 66.5484 89.554 57.9414 84.0517 49.8722C83.7707 49.4672 83.4107 49.1003 83.0046 48.819C79.0358 46.0677 74.9693 46.0421 71.8367 47.625C71.1347 47.9782 70.3533 47.7482 69.902 47.2109L69.9698 31.6525C69.9707 30.7787 69.2812 30.0611 68.4149 30.0234L67.8905 29.9257L53.4701 29.9166C52.4267 29.7377 51.7634 28.5981 52.2775 27.6223C52.9972 26.2482 53.4058 24.6876 53.4161 23.0322C53.4424 17.4292 48.8591 12.8951 43.239 13.0099C37.6211 12.8657 33.0179 17.3816 33.0105 22.9815C33.0127 24.6405 33.4127 26.2019 34.13 27.5796C34.6355 28.5551 33.9683 29.695 32.9263 29.8653L18.4994 29.8056L17.9776 29.8987C17.1099 29.9336 16.4179 30.6457 16.4179 31.525L16.4039 47.0831C15.945 47.6159 15.1664 47.8466 14.4667 47.4841C11.343 45.8886 7.27507 45.8926 3.2925 48.6268C2.88489 48.9045 2.52145 49.2711 2.23802 49.6764C-3.30824 57.7157 2.28808 66.348 9.92243 66.3774C11.5389 66.386 13.0648 66.0022 14.4115 65.3195C15.1426 64.9534 15.9526 65.2433 16.3865 65.8406L16.374 81.497C16.374 81.6929 16.4203 81.8765 16.4841 82.0516C16.8591 81.7824 17.3158 81.6167 17.8162 81.5952V81.5992C17.9929 81.5567 18.1686 81.5011 18.374 81.5011L32.6905 81.5264C33.0542 81.45 33.3514 81.0918 33.3438 80.7424L33.2598 80.4011L33.2436 80.3629L33.2247 80.3245L33.2059 80.2772C32.4773 78.8398 32.0547 77.2187 32.0434 75.5002H32.0409V75.4542V75.4448V75.4193C32.0409 74.332 32.2515 73.3216 32.53 72.374C33.8454 67.9345 37.9209 64.6422 42.8314 64.6422L43.0908 64.6465L43.3092 64.6422C48.2147 64.6422 52.2937 67.9345 53.6093 72.374C53.8876 73.3216 54.0944 74.332 54.0944 75.4236V75.4448C54.0944 77.1894 53.6657 78.8314 52.9283 80.2853Z" fill="#4D4D4D" fill-opacity="0.2"/>
<path d="M57.8959 100.584C59.7808 98.9464 62.2387 97.9439 64.9383 97.9362C66.0814 97.9362 67.1849 98.0263 68.3342 98.0172C68.6012 98.0172 68.8694 98.0293 69.1391 98.0544L69.1592 83.8867C69.1592 83.4389 68.8318 83.1153 68.448 83.0728L68.3943 83.0595L68.2701 83.0549L68.1511 83.0131L67.9091 82.9658L53.4156 82.9909L53.3455 82.9783C52.212 82.7779 51.4306 81.8692 51.3253 80.8077L51.2851 80.5949C51.2851 80.2618 51.3666 79.9205 51.5285 79.5924H51.5209L51.5536 79.5112L51.5722 79.4856C52.2157 78.2226 52.5869 76.8114 52.5869 75.3012V75.2799C52.5869 74.3932 52.4174 73.5359 52.1656 72.6783C51.0318 68.8743 47.5722 66.1062 43.4517 66.1062L43.2412 66.1105H43.2183H43.1945L42.9752 66.1062C41.0365 66.1062 39.2571 66.7336 37.785 67.7786C36.1258 68.9557 34.8608 70.6615 34.264 72.6783C34.117 73.1643 34.0142 73.6551 33.9403 74.1499C33.8826 74.5207 33.8363 74.8919 33.8363 75.2713V75.2756V75.3012C33.8363 76.8114 34.21 78.2226 34.8571 79.4809L34.877 79.5155L34.8907 79.5539L34.9109 79.6007L34.9047 79.6046C35.0564 79.9243 35.1403 80.2661 35.1403 80.5985L35.1028 80.7907C35.0049 81.8609 34.2201 82.7779 33.0827 82.9783L33.0137 82.9909L18.5202 82.9658L18.4024 82.9873L18.2758 83.0131L18.158 83.0549L18.0314 83.0595C17.6238 83.0764 17.2662 83.4181 17.2625 83.8831L17.2903 99.7311L17.1008 99.9575C16.6468 100.486 15.9784 100.823 15.24 100.823C14.8714 100.823 14.4888 100.738 14.144 100.558C12.9101 99.9363 11.5268 99.5821 10.0498 99.5821C8.09983 99.5821 5.97566 100.196 3.8353 101.676C3.51161 101.899 3.21174 102.192 2.99358 102.517C1.52781 104.653 0.912109 106.79 0.912109 108.765C0.912109 113.848 5.01002 117.943 10.0247 117.951H10.0409C11.5143 117.951 12.9038 117.601 14.1376 116.975C14.475 116.804 14.8424 116.719 15.2 116.719C16.0085 116.719 16.7234 117.129 17.1685 117.729L17.3254 117.943L17.3504 133.855C17.3504 134.328 17.7278 134.683 18.1528 134.683L33.252 134.657L33.4915 134.623H33.5528H33.6407C33.8827 134.618 34.0382 134.537 34.1761 134.401C34.3077 134.256 34.3918 134.047 34.3918 133.825L34.2488 133.335C33.1904 131.671 32.5761 129.692 32.5761 127.577C32.5761 125.356 33.2557 122.983 34.7693 120.68L34.798 120.638L34.8269 120.604C35.4878 119.824 36.2576 119.141 37.1092 118.574L37.129 118.561L37.1467 118.548C39.172 117.363 41.2409 116.812 43.2009 116.778H43.2071H43.226C45.1872 116.812 47.2537 117.363 49.2763 118.548L49.2964 118.557L49.3177 118.574C50.1693 119.141 50.9379 119.824 51.5975 120.604L51.6287 120.643L51.6564 120.68C53.1685 122.983 53.8507 125.356 53.8471 127.582C53.8471 129.692 53.2375 131.671 52.1754 133.34L52.0301 133.825C52.0287 134.047 52.1168 134.256 52.2495 134.401C52.3835 134.537 52.5428 134.618 52.785 134.623H52.9303L52.9882 134.632L53.1685 134.657L68.2728 134.683C68.6966 134.683 69.0753 134.328 69.0765 133.855L69.1028 119.486C68.7629 119.529 68.4107 119.559 68.0431 119.559H68.0382C67.4137 119.555 66.9221 119.422 66.5096 119.354C65.9803 119.431 65.4461 119.486 64.8944 119.486C62.6861 119.486 60.3376 118.804 58.0441 117.29L57.7845 117.136C57.2991 116.795 56.8679 116.369 56.528 115.874C55.664 114.616 55.0672 113.333 54.6834 112.061C54.5656 111.665 54.4765 111.268 54.4 110.876C54.2584 110.151 54.1693 109.434 54.1693 108.73C54.1693 105.481 55.61 102.567 57.8959 100.584Z" fill="#4D4D4D" fill-opacity="0.2"/>
</svg>
