<svg width="54" height="54" viewBox="0 0 54 54" fill="none" xmlns="http://www.w3.org/2000/svg">
<path d="M46.0576 3.37494H39.4427C38.8287 3.31829 38.2098 3.39753 37.6299 3.60703C37.05 3.81654 36.5234 4.15117 36.0874 4.58715C35.6514 5.02314 35.3168 5.54978 35.1073 6.12967C34.8978 6.70956 34.8185 7.32848 34.8752 7.94244V14.5574C34.8185 15.1714 34.8978 15.7903 35.1073 16.3702C35.3168 16.9501 35.6514 17.4767 36.0874 17.9127C36.5234 18.3487 37.05 18.6833 37.6299 18.8929C38.2098 19.1024 38.8287 19.1816 39.4427 19.1249H46.0576C46.6715 19.1816 47.2904 19.1024 47.8703 18.8929C48.4502 18.6833 48.9769 18.3487 49.4128 17.9127C49.8488 17.4767 50.1835 16.9501 50.393 16.3702C50.6025 15.7903 50.6817 15.1714 50.6251 14.5574V7.94244C50.6817 7.32848 50.6025 6.70956 50.393 6.12967C50.1835 5.54978 49.8488 5.02314 49.4128 4.58715C48.9769 4.15117 48.4502 3.81654 47.8703 3.60703C47.2904 3.39753 46.6715 3.31829 46.0576 3.37494Z" fill="#FF7F6F"/>
<path d="M48.3743 18.6199L48.3733 32.5449C48.3687 35.524 47.1809 38.3792 45.0712 40.4825C42.9615 42.5859 40.1027 43.765 37.1237 43.7606H33.7506C33.4016 43.7605 33.0573 43.8414 32.7449 43.9972C32.4325 44.1529 32.1606 44.3791 31.9506 44.6579L28.5758 49.1444C28.2864 49.5982 27.8874 49.9718 27.4155 50.2305C26.9436 50.4893 26.4141 50.625 25.8759 50.625C25.3377 50.625 24.8082 50.4893 24.3363 50.2305C23.8644 49.9718 23.4653 49.5982 23.176 49.1444L19.8011 44.658C19.5778 44.394 19.303 44.1784 18.9935 44.0241C18.684 43.8698 18.3464 43.7802 18.0011 43.7607H14.6249C11.6459 43.7651 8.78723 42.5861 6.67755 40.4829C4.56788 38.3797 3.38003 35.5247 3.37527 32.5457L3.375 30.3002L3.37583 16.8407C3.38043 13.8617 4.56822 11.0064 6.67791 8.9031C8.78761 6.79977 11.6464 5.62061 14.6255 5.62501H35.3804C35.0361 6.3484 34.8632 7.14144 34.8751 7.94251V14.5575C34.8184 15.1715 34.8977 15.7904 35.1072 16.3703C35.3167 16.9502 35.6513 17.4768 36.0873 17.9128C36.5233 18.3488 37.0499 18.6834 37.6298 18.8929C38.2097 19.1024 38.8286 19.1817 39.4426 19.125H46.0574C46.8583 19.137 47.6511 18.9641 48.3743 18.6199Z" fill="#FF543E"/>
<path d="M25.8815 28.125H25.8684C25.2722 28.1232 24.7011 27.885 24.2805 27.4625C23.8599 27.04 23.6241 26.4679 23.625 25.8717C23.6259 25.2755 23.8633 24.7041 24.2852 24.2828C24.707 23.8616 25.2788 23.625 25.875 23.625C26.4712 23.625 27.043 23.8616 27.4648 24.2828C27.8867 24.7041 28.1241 25.2755 28.125 25.8717C28.1259 26.4679 27.8901 27.04 27.4695 27.4625C27.0489 27.885 26.4778 28.1232 25.8816 28.125H25.8815Z" fill="white"/>
<path d="M34.8815 28.125H34.8684C34.2722 28.1232 33.7011 27.885 33.2805 27.4625C32.8599 27.04 32.6241 26.4679 32.625 25.8717C32.6259 25.2755 32.8633 24.7041 33.2852 24.2828C33.707 23.8616 34.2788 23.625 34.875 23.625C35.4712 23.625 36.043 23.8616 36.4648 24.2828C36.8867 24.7041 37.1241 25.2755 37.125 25.8717C37.1259 26.4679 36.8901 27.04 36.4695 27.4625C36.0489 27.885 35.4778 28.1232 34.8816 28.125H34.8815Z" fill="white"/>
<path d="M16.8815 28.125H16.8684C16.2722 28.1232 15.7011 27.885 15.2805 27.4625C14.8599 27.04 14.6241 26.4679 14.625 25.8717C14.6259 25.2755 14.8633 24.7041 15.2852 24.2828C15.707 23.8616 16.2788 23.625 16.875 23.625C17.4712 23.625 18.043 23.8616 18.4648 24.2828C18.8867 24.7041 19.1241 25.2755 19.125 25.8717C19.1259 26.4679 18.8901 27.04 18.4695 27.4625C18.0489 27.885 17.4778 28.1232 16.8816 28.125H16.8815Z" fill="white"/>
<rect x="38.25" y="6.75" width="9" height="1.125" rx="0.5625" fill="white"/>
<rect x="38.25" y="10.125" width="9" height="1.125" rx="0.5625" fill="white"/>
<rect x="38.25" y="13.5" width="9" height="1.125" rx="0.5625" fill="white"/>
</svg>
