<svg width="16" height="19" viewBox="0 0 16 19" fill="none" xmlns="http://www.w3.org/2000/svg">
<path fill-rule="evenodd" clip-rule="evenodd" d="M0.0522461 0.951364V17.6959C0.0522461 17.8991 0.132235 18.0942 0.274915 18.2389C0.574787 18.543 1.06442 18.5464 1.36855 18.2466L7.97949 11.728L14.5904 18.2466C14.7351 18.3892 14.9302 18.4692 15.1334 18.4692C15.5605 18.4692 15.9067 18.123 15.9067 17.6959V0.951364C15.9067 0.737814 15.7336 0.564697 15.5201 0.564697H0.438913C0.225363 0.564697 0.0522461 0.737814 0.0522461 0.951364ZM1.21225 16.7716V1.7247H14.7467V16.7716L8.52246 10.6343C8.22135 10.3374 7.73762 10.3374 7.43652 10.6343L1.21225 16.7716Z" fill="#262626"/>
</svg>
