<svg width="16" height="16" viewBox="0 0 16 16" fill="none" xmlns="http://www.w3.org/2000/svg">
<path d="M8 10.667L14 10.667" stroke="#4D4D4D" stroke-width="1.5" stroke-linecap="round" stroke-linejoin="round"/>
<path d="M2 10.667H3.33333" stroke="#4D4D4D" stroke-width="1.5" stroke-linecap="round" stroke-linejoin="round"/>
<path d="M5.66667 12.3333C6.58714 12.3333 7.33333 11.5871 7.33333 10.6667C7.33333 9.74619 6.58714 9 5.66667 9C4.74619 9 4 9.74619 4 10.6667C4 11.5871 4.74619 12.3333 5.66667 12.3333Z" stroke="#4D4D4D" stroke-width="1.5" stroke-linecap="round" stroke-linejoin="round"/>
<path d="M12.666 5.33301H13.9993" stroke="#4D4D4D" stroke-width="1.5" stroke-linecap="round" stroke-linejoin="round"/>
<path d="M2 5.33301H8" stroke="#4D4D4D" stroke-width="1.5" stroke-linecap="round" stroke-linejoin="round"/>
<path d="M10.3327 7.00033C11.2532 7.00033 11.9993 6.25413 11.9993 5.33366C11.9993 4.41318 11.2532 3.66699 10.3327 3.66699C9.41221 3.66699 8.66602 4.41318 8.66602 5.33366C8.66602 6.25413 9.41221 7.00033 10.3327 7.00033Z" stroke="#4D4D4D" stroke-width="1.5" stroke-linecap="round" stroke-linejoin="round"/>
</svg>
