<svg width="50" height="50" viewBox="0 0 50 50" fill="none" xmlns="http://www.w3.org/2000/svg">
<rect width="50" height="50" rx="10" fill="#4AACEA"/>
<g clip-path="url(#clip0_573_19261)">
<path d="M24.9993 15.0833C19.5168 15.0833 15.0827 19.5175 15.0827 25H17.916C17.916 21.09 21.0893 17.9166 24.9993 17.9166C28.9093 17.9166 32.0827 21.09 32.0827 25H34.916C34.916 19.5175 30.4818 15.0833 24.9993 15.0833ZM26.416 28.2441C27.6627 27.6916 28.541 26.4591 28.541 25C28.541 23.045 26.9543 21.4583 24.9993 21.4583C23.0443 21.4583 21.4577 23.045 21.4577 25C21.4577 26.445 22.336 27.6916 23.5827 28.2441V32.9191L18.7518 37.75L20.7493 39.7475L24.9993 35.4975L29.2493 39.7475L31.2468 37.75L26.416 32.9191V28.2441ZM24.9993 9.41663C16.4002 9.41663 9.41602 16.4008 9.41602 25H12.2493C12.2493 17.9591 17.9585 12.25 24.9993 12.25C32.0402 12.25 37.7493 17.9591 37.7493 25H40.5827C40.5827 16.4008 33.5985 9.41663 24.9993 9.41663Z" fill="white"/>
</g>
<defs>
<clipPath id="clip0_573_19261">
<rect width="34" height="34" fill="white" transform="translate(8 8)"/>
</clipPath>
</defs>
</svg>
