<svg width="1170" height="135" viewBox="0 0 1170 135" fill="none" xmlns="http://www.w3.org/2000/svg">
<path opacity="0.6" d="M1092.91 81.916C1039.74 52.0245 981.733 15.3445 917.285 35.7245C860.893 54.7477 807.723 81.916 746.957 84.1526C735.312 84.477 723.407 84.1821 711.056 83.2777C636.942 77.841 548.323 38.4428 443.6 47.3596C338.871 56.2764 288.929 119.963 168.042 133.549C100.97 141.09 48.8196 118.508 0 82.7566V-0.0756378H1170V105.339C1143.12 102.881 1116.52 94.7997 1092.91 81.916Z" fill="url(#paint0_linear_6107_25782)"/>
<path opacity="0.6" d="M77.0941 81.916C130.264 52.0245 188.267 15.3445 252.715 35.7245C309.107 54.7477 362.277 81.916 423.043 84.1526C434.688 84.477 446.593 84.1821 458.944 83.2777C533.058 77.841 621.677 38.4428 726.4 47.3596C831.129 56.2764 881.071 119.963 1001.96 133.549C1069.03 141.09 1121.18 118.508 1170 82.7566V-0.0756378H0V105.339C26.8807 102.881 53.4839 94.7997 77.0941 81.916Z" fill="url(#paint1_linear_6107_25782)"/>
<path d="M1162.74 0.0829697C1154.18 5.46779 1145.47 10.7081 1136.94 15.9242C1131.85 18.9901 1126.69 22.0318 1121.43 24.9953C1116.17 27.9587 1110.81 30.8439 1105.32 33.6146C1096.34 38.1381 1086.99 42.3363 1077.07 45.9201C1035.54 63.5443 980.103 61.3096 937.262 44.9504C895.683 28.5912 850.321 8.51558 799.921 19.6707C755.819 30.0789 714.24 44.9504 666.712 46.1731C657.607 46.3538 648.297 46.1912 638.637 45.6912C580.676 42.7157 511.377 21.1524 429.474 26.0373C347.571 30.9161 308.514 65.7669 213.976 73.2056C127.017 80.0481 72.1335 41.5894 8 0.0829697H1162.74Z" fill="url(#paint2_linear_6107_25782)" fill-opacity="0.7"/>
<defs>
<linearGradient id="paint0_linear_6107_25782" x1="-95.3486" y1="67.4602" x2="1381.23" y2="67.4602" gradientUnits="userSpaceOnUse">
<stop stop-color="#3771C8" stop-opacity="0.2"/>
<stop offset="1" stop-color="#D3E5FF"/>
</linearGradient>
<linearGradient id="paint1_linear_6107_25782" x1="1265.35" y1="67.4602" x2="-211.23" y2="67.4602" gradientUnits="userSpaceOnUse">
<stop stop-color="#3771C8" stop-opacity="0.3"/>
<stop offset="1" stop-color="#4AACEA" stop-opacity="0.2"/>
</linearGradient>
<linearGradient id="paint2_linear_6107_25782" x1="7.99716" y1="37.0426" x2="1162.74" y2="37.0426" gradientUnits="userSpaceOnUse">
<stop stop-color="#4AACEA"/>
<stop offset="1" stop-color="#3771C8"/>
</linearGradient>
</defs>
</svg>
