<svg width="1170" height="135" viewBox="0 0 1170 135" fill="none" xmlns="http://www.w3.org/2000/svg">
<path opacity="0.6" d="M1092.91 53.084C1039.74 82.9755 981.733 119.655 917.285 99.2755C860.893 80.2523 807.723 53.084 746.957 50.8474C735.312 50.523 723.407 50.8179 711.056 51.7223C636.942 57.159 548.323 96.5572 443.6 87.6404C338.871 78.7236 288.929 15.0374 168.042 1.45082C100.97 -6.08966 48.8196 16.4925 0 52.2434V135.076H1170V29.6613C1143.12 32.1191 1116.52 40.2003 1092.91 53.084Z" fill="url(#paint0_linear_6108_26547)"/>
<path opacity="0.6" d="M77.0941 53.084C130.264 82.9755 188.267 119.655 252.715 99.2755C309.107 80.2523 362.277 53.084 423.043 50.8474C434.688 50.523 446.593 50.8179 458.944 51.7223C533.058 57.159 621.677 96.5572 726.4 87.6404C831.129 78.7236 881.071 15.0374 1001.96 1.45082C1069.03 -6.08966 1121.18 16.4925 1170 52.2434V135.076H0V29.6613C26.8807 32.1191 53.4839 40.2003 77.0941 53.084Z" fill="url(#paint1_linear_6108_26547)"/>
<path d="M1162.74 134.917C1154.18 129.532 1145.47 124.292 1136.94 119.076C1131.85 116.01 1126.69 112.968 1121.43 110.005C1116.17 107.041 1110.81 104.156 1105.32 101.385C1096.34 96.8619 1086.99 92.6637 1077.07 89.0799C1035.54 71.4557 980.103 73.6904 937.262 90.0496C895.683 106.409 850.321 126.484 799.921 115.329C755.819 104.921 714.24 90.0496 666.712 88.8269C657.607 88.6462 648.297 88.8088 638.637 89.3088C580.676 92.2843 511.377 113.848 429.474 108.963C347.571 104.084 308.514 69.2331 213.976 61.7944C127.017 54.9519 72.1335 93.4106 8 134.917H1162.74Z" fill="url(#paint2_linear_6108_26547)" fill-opacity="0.7"/>
<defs>
<linearGradient id="paint0_linear_6108_26547" x1="-95.3486" y1="67.5398" x2="1381.23" y2="67.5398" gradientUnits="userSpaceOnUse">
<stop stop-color="#3771C8" stop-opacity="0.2"/>
<stop offset="1" stop-color="#D3E5FF"/>
</linearGradient>
<linearGradient id="paint1_linear_6108_26547" x1="1265.35" y1="67.5398" x2="-211.23" y2="67.5398" gradientUnits="userSpaceOnUse">
<stop stop-color="#3771C8" stop-opacity="0.3"/>
<stop offset="1" stop-color="#4AACEA" stop-opacity="0.2"/>
</linearGradient>
<linearGradient id="paint2_linear_6108_26547" x1="7.99716" y1="97.9574" x2="1162.74" y2="97.9574" gradientUnits="userSpaceOnUse">
<stop stop-color="#4AACEA"/>
<stop offset="1" stop-color="#3771C8"/>
</linearGradient>
</defs>
</svg>
